<svg xmlns="http://www.w3.org/2000/svg" width="24.526" height="23.905" viewBox="0 0 24.526 23.905">
  <path id="Icon_awesome-arrow-right" data-name="Icon awesome-arrow-right" d="M10.428,4.248l1.215-1.215a1.308,1.308,0,0,1,1.856,0L24.14,13.669a1.308,1.308,0,0,1,0,1.856L13.5,26.166a1.308,1.308,0,0,1-1.856,0l-1.215-1.215a1.315,1.315,0,0,1,.022-1.878l6.6-6.284H1.314A1.311,1.311,0,0,1,0,15.475V13.724A1.311,1.311,0,0,1,1.314,12.41H17.046l-6.6-6.284A1.306,1.306,0,0,1,10.428,4.248Z" transform="translate(0 -2.647)" fill="#fff"/>
</svg>
