<svg width="18" height="20" viewBox="0 0 18 20" fill="none" xmlns="http://www.w3.org/2000/svg">
<path d="M5.50816 8.50951C5.68679 9.67069 6.58407 11.1485 8.05787 11.6682C8.66282 11.8794 9.32461 11.8834 9.92956 11.6642C11.379 11.1404 12.3047 9.66663 12.4874 8.50951C12.6823 8.49327 12.9381 8.22124 13.2142 7.24277C13.5917 5.907 13.1898 5.70806 12.8487 5.74054C12.9137 5.55784 12.9624 5.37108 12.9949 5.19243C13.5715 1.7292 11.8662 1.61145 11.8662 1.61145C11.8662 1.61145 11.582 1.06741 10.839 0.657338C10.3396 0.360954 9.64536 0.13359 8.73185 0.210731C8.43546 0.222911 8.15531 0.283812 7.89141 0.369074C7.55444 0.482756 7.24586 0.649218 6.96572 0.844102C6.62467 1.05929 6.29987 1.32725 6.01566 1.63175C5.565 2.0946 5.16305 2.69143 4.98847 3.43442C4.84231 3.99065 4.87478 4.57124 4.99659 5.19649C5.02906 5.3792 5.07778 5.5619 5.14275 5.7446C4.80171 5.71212 4.39976 5.91106 4.77734 7.24683C5.05749 8.22124 5.31327 8.49327 5.50816 8.50951Z" fill="#A5A5A5"/>
<path d="M15.6958 13.0527C13.6211 12.5249 11.9362 11.3394 11.9362 11.3394L10.6207 15.5009L10.373 16.2845L10.369 16.2723L10.1538 16.9382L9.45952 14.9691C11.1648 12.5898 9.11442 12.6142 9.00073 12.6183C8.88705 12.6142 6.83672 12.5898 8.54195 14.9691L7.84768 16.9382L7.63249 16.2723L7.62843 16.2845L7.38077 15.5009L6.06125 11.3394C6.06125 11.3394 4.37632 12.5249 2.30163 13.0527C0.754739 13.4465 0.681657 15.233 0.742559 16.114C0.742559 16.114 0.83188 17.3117 0.921201 17.8395C0.921201 17.8395 3.94189 19.8005 9.00073 19.8046C14.0596 19.8046 17.0803 17.8395 17.0803 17.8395C17.1696 17.3117 17.2589 16.114 17.2589 16.114C17.3158 15.233 17.2427 13.4465 15.6958 13.0527Z" fill="#A5A5A5"/>
</svg>
