<svg width="24" height="24" viewBox="0 0 24 24" fill="none" xmlns="http://www.w3.org/2000/svg">
<path d="M19.0697 4.92993C15.6849 1.52307 10.3563 1.00339 6.37706 3.69206C2.39782 6.38073 0.891763 11.5184 2.78967 15.9299C2.88556 16.1287 2.91702 16.3524 2.87967 16.5699L1.99967 20.7999C1.9308 21.1294 2.03227 21.4714 2.26967 21.7099C2.46326 21.9021 2.72697 22.0069 2.99967 21.9999H3.19967L7.47967 21.1399C7.6972 21.1138 7.91779 21.1448 8.11967 21.2299C12.5312 23.1278 17.6689 21.6218 20.3575 17.6425C23.0462 13.6633 22.5265 8.33469 19.1197 4.94993L19.0697 4.92993ZM7.99967 12.9999C7.44739 12.9999 6.99967 12.5522 6.99967 11.9999C6.99967 11.4476 7.44739 10.9999 7.99967 10.9999C8.55196 10.9999 8.99967 11.4476 8.99967 11.9999C8.99967 12.5522 8.55196 12.9999 7.99967 12.9999ZM11.9997 12.9999C11.4474 12.9999 10.9997 12.5522 10.9997 11.9999C10.9997 11.4476 11.4474 10.9999 11.9997 10.9999C12.552 10.9999 12.9997 11.4476 12.9997 11.9999C12.9997 12.5522 12.552 12.9999 11.9997 12.9999ZM15.9997 12.9999C15.4474 12.9999 14.9997 12.5522 14.9997 11.9999C14.9997 11.4476 15.4474 10.9999 15.9997 10.9999C16.552 10.9999 16.9997 11.4476 16.9997 11.9999C16.9997 12.5522 16.552 12.9999 15.9997 12.9999Z" stroke="#A5A5A5" stroke-width="2"/>
</svg>
