<svg width="22" height="19" viewBox="0 0 22 19" fill="none" xmlns="http://www.w3.org/2000/svg">
<path d="M21.0892 3.76456L11.2046 0.277011C11.0721 0.230254 10.9276 0.230254 10.7952 0.277011L0.910561 3.76456C0.664799 3.85126 0.500329 4.08341 0.5 4.34402C0.499672 4.60463 0.66361 4.83715 0.909167 4.92443L10.7938 8.43848C10.8604 8.46218 10.9302 8.47404 10.9999 8.47404C11.0696 8.47404 11.1393 8.46218 11.2059 8.43848L21.0905 4.92443C21.3361 4.83715 21.5 4.60463 21.4997 4.34402C21.4994 4.08341 21.3349 3.85127 21.0892 3.76456Z" fill="white"/>
<path d="M20.0217 12.7187V7.35229L18.7913 7.78972V12.7187C18.4207 12.932 18.1709 13.3317 18.1709 13.7901C18.1709 14.2484 18.4207 14.6481 18.7913 14.8614V17.8849C18.7913 18.2247 19.0667 18.5001 19.4065 18.5001C19.7463 18.5001 20.0217 18.2247 20.0217 17.8849V14.8615C20.3923 14.6482 20.6421 14.2484 20.6421 13.7901C20.6421 13.3318 20.3924 12.932 20.0217 12.7187Z" fill="white"/>
<path d="M10.9993 10.141C10.7881 10.141 10.5801 10.1051 10.3811 10.0343L4.82422 8.05884V10.7662C4.82422 11.4285 5.5152 11.9887 6.87796 12.431C8.0658 12.8165 9.52946 13.0288 10.9993 13.0288C12.4691 13.0288 13.9327 12.8165 15.1206 12.431C16.4834 11.9887 17.1743 11.4285 17.1743 10.7662V8.05884L11.6175 10.0343C11.4185 10.1051 11.2105 10.141 10.9993 10.141Z" fill="white"/>
</svg>
