<svg width="25" height="24" viewBox="0 0 25 24" fill="none" xmlns="http://www.w3.org/2000/svg">
<path d="M6.92627 13.9524C7.27817 16.7148 9.64366 18.8572 12.5001 18.8572C15.3566 18.8572 17.7221 16.7148 18.074 13.9524H6.92627Z" fill="white"/>
<path d="M20.9853 3.51474C18.7188 1.24824 15.7053 0 12.5 0C9.29469 0 6.28119 1.24824 4.01474 3.51474C1.74819 5.78119 0.5 8.79469 0.5 12C0.5 15.2053 1.74819 18.2188 4.01474 20.4853C6.28119 22.7518 9.29469 24 12.5 24C15.7053 24 18.7188 22.7518 20.9853 20.4853C23.2518 18.2188 24.5 15.2053 24.5 12C24.5 8.79469 23.2518 5.78119 20.9853 3.51474ZM15.0958 8.83107C16.2654 7.6613 18.1687 7.6614 19.3384 8.83107C19.6173 9.10997 19.6173 9.56227 19.3384 9.84123C19.1989 9.98073 19.0161 10.0505 18.8333 10.0505C18.6506 10.0505 18.4677 9.98073 18.3283 9.84123C17.7156 9.22847 16.7186 9.22852 16.106 9.84123C15.8271 10.1201 15.3748 10.1201 15.0958 9.84123C14.8168 9.56227 14.8168 9.11002 15.0958 8.83107ZM5.66164 8.83107C6.83132 7.6614 8.73458 7.6613 9.90426 8.83107C10.1832 9.10997 10.1832 9.56227 9.90426 9.84123C9.76476 9.98073 9.58199 10.0505 9.39922 10.0505C9.21646 10.0505 9.0336 9.98073 8.89419 9.84123C8.28149 9.22857 7.28455 9.22852 6.67185 9.84123C6.39294 10.1201 5.94064 10.1201 5.66169 9.84123C5.38269 9.56227 5.38269 9.11002 5.66164 8.83107ZM12.5 20.2857C8.61397 20.2857 5.45239 17.1242 5.45239 13.2381C5.45239 12.8437 5.77222 12.5238 6.16668 12.5238H18.8333C19.2278 12.5238 19.5476 12.8437 19.5476 13.2381C19.5476 17.1242 16.386 20.2857 12.5 20.2857Z" fill="white"/>
</svg>
