<svg width="24" height="24" viewBox="0 0 24 24" fill="none" xmlns="http://www.w3.org/2000/svg">
<path d="M6.99991 14.18V3C6.99991 2.44772 6.5522 2 5.99991 2C5.44763 2 4.99991 2.44772 4.99991 3V14.18C3.81346 14.6106 3.02344 15.7378 3.02344 17C3.02344 18.2622 3.81346 19.3894 4.99991 19.82L4.99991 21C4.99991 21.5523 5.44763 22 5.99991 22C6.5522 22 6.99991 21.5523 6.99991 21V19.82C8.18637 19.3894 8.97639 18.2622 8.97639 17C8.97639 15.7378 8.18637 14.6106 6.99991 14.18H6.99991ZM5.99991 18C5.44763 18 4.99991 17.5523 4.99991 17C4.99991 16.4477 5.44763 16 5.99991 16C6.5522 16 6.99991 16.4477 6.99991 17C6.99991 17.5523 6.5522 18 5.99991 18Z" fill="white"/>
<path d="M20.9999 13C20.9964 11.7317 20.1956 10.6027 18.9999 10.18V3C18.9999 2.44772 18.5522 2 17.9999 2C17.4476 2 16.9999 2.44772 16.9999 3V10.18C15.8135 10.6106 15.0234 11.7378 15.0234 13C15.0234 14.2622 15.8135 15.3894 16.9999 15.82L16.9999 21C16.9999 21.5523 17.4476 22 17.9999 22C18.5522 22 18.9999 21.5523 18.9999 21V15.82C20.1956 15.3973 20.9964 14.2683 20.9999 13L20.9999 13ZM17.9999 14C17.4476 14 16.9999 13.5523 16.9999 13C16.9999 12.4477 17.4476 12 17.9999 12C18.5522 12 18.9999 12.4477 18.9999 13C18.9999 13.5523 18.5522 14 17.9999 14Z" fill="white"/>
<path d="M15.0004 5.00008C15.0047 3.47337 13.8618 2.18694 12.3451 2.01153C10.8285 1.83611 9.42209 2.82766 9.07775 4.31504C8.73342 5.80242 9.56105 7.31117 11.0004 7.82008L11.0004 21.0001C11.0004 21.5524 11.4482 22.0001 12.0004 22.0001C12.5527 22.0001 13.0004 21.5524 13.0004 21.0001V7.82008C14.1962 7.39733 14.9969 6.26834 15.0004 5.00008H15.0004ZM12.0004 6.00008C11.4482 6.00008 11.0004 5.55237 11.0004 5.00008C11.0004 4.4478 11.4482 4.00008 12.0004 4.00008C12.5527 4.00008 13.0004 4.4478 13.0004 5.00008C13.0004 5.55237 12.5527 6.00008 12.0004 6.00008Z" fill="white"/>
</svg>
