<svg id="Group_370" data-name="Group 370" xmlns="http://www.w3.org/2000/svg" width="24" height="24" viewBox="0 0 24 24">
  <rect id="Rectangle_315" data-name="Rectangle 315" width="24" height="24" fill="none"/>
  <g id="gender_1_" data-name="gender(1)" transform="translate(1.695 1)">
    <g id="Group_369" data-name="Group 369">
      <path id="Path_1348" data-name="Path 1348" d="M32.84,0V1.347h1.519L31.4,4.157A5.77,5.77,0,0,0,22.209,5.4c-.084,0-.169-.006-.255-.006a5.776,5.776,0,0,0-.673,11.512V18.7H19.265v1.347h2.016V22h1.347V20.047h2.1V18.7h-2.1V16.91a5.787,5.787,0,0,0,4.383-2.948c.084,0,.169.006.254.006a5.773,5.773,0,0,0,4.956-8.738l3.219-3.052V3.85h1.347V0ZM21.955,15.6a4.429,4.429,0,0,1-.283-8.848,5.779,5.779,0,0,0,3.908,6.962A4.427,4.427,0,0,1,21.955,15.6Zm4.23-3.116a4.431,4.431,0,0,1-3.149-5.608,4.431,4.431,0,0,1,3.149,5.608Zm1.365.124a5.779,5.779,0,0,0-3.908-6.962,4.428,4.428,0,1,1,3.908,6.962Z" transform="translate(-16.179)" fill="#a5a5a5"/>
    </g>
  </g>
</svg>
