<svg width="14" height="22" viewBox="0 0 14 22" fill="none" xmlns="http://www.w3.org/2000/svg">
<path d="M13.3636 19.3151H11.4545V17.9576H12.3051C12.6566 17.9576 12.9415 17.6726 12.9415 17.3212C12.9415 16.9698 12.6566 16.6848 12.3051 16.6848H11.4545V15.4121H13.1536C13.5051 15.4121 13.79 15.1272 13.79 14.7758C13.79 14.4243 13.5051 14.1394 13.1536 14.1394H11.4545V12.8667H12.3051C12.6566 12.8667 12.9415 12.5817 12.9415 12.2303C12.9415 11.8789 12.6566 11.5939 12.3051 11.5939H11.4545V10.3212H13.1536C13.5051 10.3212 13.79 10.0363 13.79 9.68485C13.79 9.33341 13.5051 9.04849 13.1536 9.04849H11.4545V7.77576H12.3051C12.6566 7.77576 12.9415 7.49084 12.9415 7.1394C12.9415 6.78795 12.6566 6.50303 12.3051 6.50303H11.4545V5.23031H13.1536C13.5051 5.23031 13.79 4.94539 13.79 4.59395C13.79 4.2425 13.5051 3.95758 13.1536 3.95758H11.4545V2.68486H12.3051C12.6566 2.68486 12.9415 2.39994 12.9415 2.04849C12.9415 1.69705 12.6566 1.41213 12.3051 1.41213H11.4545V0.775767C11.4545 0.424325 11.1696 0.139404 10.8182 0.139404C10.4667 0.139404 10.1818 0.424325 10.1818 0.775767V19.3151H7.8842L8.15465 14.9879H3.30412L3.57458 19.3151H0.636368C0.284927 19.3151 0 19.6001 0 19.9515V21.2242C0 21.5757 0.284927 21.8606 0.636368 21.8606C0.987808 21.8606 1.27274 21.5757 1.27274 21.2242V20.5879H12.7273V21.2242C12.7273 21.5757 13.0122 21.8606 13.3636 21.8606C13.7151 21.8606 14 21.5757 14 21.2242V19.9515C14 19.6001 13.7151 19.3151 13.3636 19.3151Z" fill="#A5A5A5"/>
<circle cx="5.73135" cy="4.16959" r="1.90909" fill="#A5A5A5"/>
<path d="M3.1852 13.7151H8.27397C8.62541 13.7151 8.91034 13.4302 8.91034 13.0787V8.83525C8.91034 7.9149 8.51703 7.08501 7.89012 6.50371C6.66855 7.63472 4.79095 7.63405 3.57011 6.50269C2.94257 7.08406 2.54883 7.91438 2.54883 8.83525V13.0787C2.54883 13.4302 2.83371 13.7151 3.1852 13.7151Z" fill="#A5A5A5"/>
</svg>
