<svg width="20" height="20" viewBox="0 0 20 20" fill="none" xmlns="http://www.w3.org/2000/svg">
<path d="M16.7408 9.98729C16.7477 13.7011 13.719 16.7379 10.0052 16.7405C8.40118 16.7417 6.92783 16.1825 5.77001 15.2481C5.46894 15.0051 5.44644 14.5539 5.72003 14.2803L6.02626 13.9741C6.26025 13.7401 6.6338 13.7145 6.89304 13.9201C7.74607 14.597 8.82561 15.0011 10.0003 15.0011C12.7646 15.0011 15.0013 12.7639 15.0013 10C15.0013 7.23575 12.7641 4.99901 10.0003 4.99901C8.67355 4.99901 7.46854 5.51458 6.57382 6.35614L7.95329 7.73561C8.22726 8.00958 8.03322 8.47799 7.64581 8.47799H3.69464C3.45445 8.47799 3.25977 8.2833 3.25977 8.04312V4.09195C3.25977 3.70453 3.72818 3.5105 4.00215 3.78444L5.34405 5.12635C6.55417 3.96989 8.19426 3.25952 10.0003 3.25952C13.7187 3.25952 16.7339 6.27047 16.7408 9.98729ZM11.8237 12.1286L12.0907 11.7853C12.3119 11.5009 12.2606 11.0911 11.9763 10.8699L10.87 10.0095V7.17337C10.87 6.81311 10.578 6.52106 10.2177 6.52106H9.78285C9.42259 6.52106 9.13054 6.81311 9.13054 7.17337V10.8603L10.9083 12.243C11.1927 12.4642 11.6025 12.413 11.8237 12.1286H11.8237Z" fill="white"/>
</svg>
