<svg xmlns="http://www.w3.org/2000/svg" width="24" height="24" viewBox="0 0 24 24">
  <g id="Email" transform="translate(20540.354 23151)">
    <rect id="Rectangle_555" data-name="Rectangle 555" width="24" height="24" transform="translate(-20540.354 -23151)" fill="none"/>
    <g id="email_1_" data-name="email (1)" transform="translate(-20538.387 -23207.643)">
      <g id="Group_34" data-name="Group 34" transform="translate(1.008 61)">
        <g id="Group_33" data-name="Group 33" transform="translate(0 0)">
          <path id="Path_31" data-name="Path 31" d="M43.016,61H26.477a1.743,1.743,0,0,0-.756.177l8.986,8.986,2.014-1.936h0l7.05-7.05A1.743,1.743,0,0,0,43.016,61Z" transform="translate(-25.721 -61)" fill="#acacac"/>
        </g>
      </g>
      <g id="Group_36" data-name="Group 36" transform="translate(13.255 62.008)">
        <g id="Group_35" data-name="Group 35" transform="translate(0 0)">
          <path id="Path_32" data-name="Path 32" d="M344.848,86.728l-6.635,6.634L344.847,100a1.744,1.744,0,0,0,.177-.756V87.483A1.743,1.743,0,0,0,344.848,86.728Z" transform="translate(-338.213 -86.728)" fill="#acacac"/>
        </g>
      </g>
      <g id="Group_38" data-name="Group 38" transform="translate(0 62.008)">
        <g id="Group_37" data-name="Group 37" transform="translate(0 0)">
          <path id="Path_33" data-name="Path 33" d="M.177,86.721A1.743,1.743,0,0,0,0,87.477V99.234a1.744,1.744,0,0,0,.177.755l6.635-6.634Z" transform="translate(0 -86.721)" fill="#acacac"/>
        </g>
      </g>
      <g id="Group_40" data-name="Group 40" transform="translate(1.008 69.474)">
        <g id="Group_39" data-name="Group 39">
          <path id="Path_34" data-name="Path 34" d="M37.13,277.211l-2.014,1.936a.588.588,0,0,1-.831,0l-1.936-1.936-6.635,6.634a1.743,1.743,0,0,0,.756.177H43.009a1.744,1.744,0,0,0,.756-.177Z" transform="translate(-25.714 -277.211)" fill="#acacac"/>
        </g>
      </g>
    </g>
  </g>
</svg>
