<svg xmlns="http://www.w3.org/2000/svg" width="36" height="36" viewBox="0 0 36 36">
  <g id="google" transform="translate(0 0)">
    <path id="Path_34" data-name="Path 34" d="M63.421,306.227A17.8,17.8,0,0,1,36.4,301.649l1.169-5.387,5.18-.962a9.559,9.559,0,0,0,9.091,6.729,9.356,9.356,0,0,0,5.569-1.814l4.978.759Z" transform="translate(-33.841 -274.537)" fill="#59c36a"/>
    <path id="Path_35" data-name="Path 35" d="M267.58,371.212l-1.034-5.252-4.978-.759A9.356,9.356,0,0,1,256,367.014v8.508A17.972,17.972,0,0,0,267.58,371.212Z" transform="translate(-238 -339.522)" fill="#00a66c"/>
    <g id="Connected_Home_1_" transform="translate(0 8.887)">
      <g id="Group_220" data-name="Group 220">
        <g id="Group_219" data-name="Group 219">
          <g id="Group_218" data-name="Group 218">
            <path id="Path_36" data-name="Path 36" d="M8.508,135.512a9.83,9.83,0,0,0,.4,2.763l-6.349,6.349a17.5,17.5,0,0,1,0-18.225l5.1.877,1.253,5.472A9.829,9.829,0,0,0,8.508,135.512Z" transform="translate(0 -126.4)" fill="#ffda2d"/>
          </g>
        </g>
      </g>
    </g>
    <path id="Path_37" data-name="Path 37" d="M260.055,200.219a17.972,17.972,0,0,1-6.42,13.69l-6.012-6.012a9.333,9.333,0,0,0,2.932-3.459h-8.5A1.044,1.044,0,0,1,241,203.383v-6.328A1.044,1.044,0,0,1,242.055,196H258.7a1.042,1.042,0,0,1,1.034.865A17.886,17.886,0,0,1,260.055,200.219Z" transform="translate(-224.055 -182.219)" fill="#4086f4"/>
    <path id="Path_38" data-name="Path 38" d="M264.5,204.438a9.334,9.334,0,0,1-2.932,3.459l6.012,6.012a17.827,17.827,0,0,0,6.1-17.044A1.042,1.042,0,0,0,272.65,196H256v8.438Z" transform="translate(-238 -182.219)" fill="#4175df"/>
    <path id="Path_39" data-name="Path 39" d="M63.716,5.027a1.064,1.064,0,0,1-.3.78L58.907,10.3a1.033,1.033,0,0,1-1.371.105,9.435,9.435,0,0,0-5.7-1.9,9.559,9.559,0,0,0-9.091,6.729L36.4,8.887A17.789,17.789,0,0,1,63.337,4.247a1.109,1.109,0,0,1,.38.78Z" transform="translate(-33.841)" fill="#ff641a"/>
    <path id="Path_40" data-name="Path 40" d="M261.7,10.406a1.033,1.033,0,0,0,1.371-.105l4.514-4.493a1.064,1.064,0,0,0,.3-.78,1.109,1.109,0,0,0-.38-.78A17.946,17.946,0,0,0,256,0V8.508A9.435,9.435,0,0,1,261.7,10.406Z" transform="translate(-238 0)" fill="#f03800"/>
  </g>
</svg>
