<svg width="18" height="18" viewBox="0 0 18 18" fill="none" xmlns="http://www.w3.org/2000/svg">
<rect x="8" y="10" width="2" height="6" fill="#59D6D6"/>
<path d="M15.0813 7.68556L9.51293 1.9944C9.37732 1.85767 9.19272 1.78076 9.00014 1.78076C8.80757 1.78076 8.62297 1.85767 8.48736 1.9944L2.91898 7.69278C2.64681 7.96715 2.49593 8.33913 2.50008 8.72557V14.7778C2.49892 15.5456 3.09853 16.1801 3.8651 16.2223H6.11123V9.72225C6.11123 9.32337 6.43458 9.00002 6.83346 9.00002H11.1668C11.5657 9.00002 11.8891 9.32337 11.8891 9.72225V16.2223H14.1352C14.9018 16.1801 15.5014 15.5456 15.5002 14.7778V8.72557C15.5008 8.33769 15.3506 7.96476 15.0813 7.68556V7.68556Z" fill="#59D6D6"/>
</svg>
