<svg xmlns="http://www.w3.org/2000/svg" width="211.62" height="44.281" viewBox="0 0 211.62 44.281">
  <g id="Camada_x0020_1" transform="translate(-746.557 -841.781)">
    <g id="_1852876643136" transform="translate(746.557 841.781)">
      <path id="Path_215" data-name="Path 215" d="M738.065,856.573l-.649-.811c-.125-.169-.235-.328-.356-.5-.229-.328-.451-.653-.666-1-1.033-1.666-.259-4.085-.16-6.069a42.412,42.412,0,0,0-.425-6.746c-.41-2.629-.956-5.095-2.726-7l-.65-.6c-.079-.063-.138-.114-.224-.176a11.481,11.481,0,0,0-1.514-.947l-.565-.277c-1.942-.976-3.066-.483-3.929-1.393a9.878,9.878,0,0,1-1.207-1.875,9.181,9.181,0,0,1-.86-1.936c-.043-.186-.078-.4-.118-.6a16.482,16.482,0,0,0-.907-2.977c-.041-.1-.07-.143-.115-.24l-.241-.469c-.086-.167-.173-.3-.258-.451s-.183-.292-.266-.442a30.04,30.04,0,0,0-1.847-2.7l-.627-.756c-.061-.065-.107-.12-.169-.182s-.11-.09-.182-.169a2.675,2.675,0,0,0-.583-.468c-.214-.076-.291.134-.357.3-.133.343-.237.708-.346,1.059l-.169.546-.2.517c-.537-.013-.73-.848-1.106-1.255a.609.609,0,0,0-.539-.253c0,.267,0,.53-.02.759l-.126,1.061a5.976,5.976,0,0,1-.136,1.05c-.078.2-.23.256-.391.36a6.856,6.856,0,0,0-.9.645,2.522,2.522,0,0,0-.667.869c-.269.719-.027,1.575-.193,1.769a6.5,6.5,0,0,0-1,.931c-.248.37-.078.785.115,1.216-.121.03-1.3.286-1.427.286.12.176.409.059.586.032a4.616,4.616,0,0,1,.72.02l-.387.234c-.135.072-.248.147-.4.226a6.822,6.822,0,0,0-.79.477c.4.1.932-.494,1.742-.494-.067.307-.447.474-.581.6a4.8,4.8,0,0,0,.581-.208c.3.218.369.689,1.037.914a3.094,3.094,0,0,0,.546.09,3.722,3.722,0,0,1,1.088.183c.174.062.3.111.46.181l.445.193c.313.159.017,6.1.136,7.036.032.256.058.456.093.706a22.491,22.491,0,0,0,1.4,4.992c.842,2.1.743,1.28.743,4.09,0,.561.024,1.039.024,1.586v1.638c0,.3-.025.5-.024.78,0,.636.007.993-.024,1.612-.007.132.01.282,0,.412-.01.1-.037.268-.045.368-.162.015-.336.134-.606.155-1.187.093-1.143,1.73-.6,2.2a10.922,10.922,0,0,0,2.945.188c1.753-.092,1.631-1.86,1.959-3.692.1-.674.361-1.852.429-2.451.021-.187.015-.37.041-.554s.04-.837.076-1.115a3.973,3.973,0,0,1,1.5-2.777,6.426,6.426,0,0,1,1.382-1.011,1.808,1.808,0,0,1,1.44-.242.762.762,0,0,1,.329.245,11.934,11.934,0,0,1-1.556.85c-.123.065-.2.118-.314.182a3.838,3.838,0,0,0-1.864,2.079,3.3,3.3,0,0,0-.161.868c0,.187-.025.271-.024.468a5.059,5.059,0,0,0,.954,3.058l1.206,1.278a2.719,2.719,0,0,1,.453.553c-.828.074-3.3-.506-3.415.724-.046.48,0,.96,0,1.461,2.753.689,8.477-.522,11.605.007.226.038.2.056.307.242a22.327,22.327,0,0,0,1.731,2.637c.038.061.064.077.111.141l.878.955a1.723,1.723,0,0,1,.13.12,8.266,8.266,0,0,0,1.332.986c.126.067.21.133.331.19a9.635,9.635,0,0,0,3.121.962,6.386,6.386,0,0,0,2.7-.291,17.962,17.962,0,0,0,2.7-1.451l-.065-.046a16.977,16.977,0,0,0-2.171-1.307c-.192.01-1.066.3-1.325.371C741.915,859.958,739.561,858.495,738.065,856.573Z" transform="translate(-711.1 -817.773)" fill="#59d6d6" fill-rule="evenodd"/>
      <path id="Path_216" data-name="Path 216" d="M1915.249,1104.712c.145-.205.664-.59,1-1.055.06-.083.114-.145.176-.227a3.764,3.764,0,0,0,.82-1.667,5.223,5.223,0,0,0,.049-1.565,3.056,3.056,0,0,0-1.964-2.517,4.76,4.76,0,0,1-1.292-.769.644.644,0,0,1,.556-.286,3.694,3.694,0,0,1,1.825.924,3.964,3.964,0,0,1,1.507,2.281c.057.361.167,1.4.176,1.761a16.827,16.827,0,0,0,.377,2.532c.149.637.417,2.7,1.122,2.694.681,0,2.063.029,2.687-.024.227-.019.2,0,.331-.138a1.132,1.132,0,0,0,.294-1.085.8.8,0,0,0-.344-.618,6.019,6.019,0,0,0-.881-.25c-.146-.068-.124-.458-.127-.617l-.031-.928c-.052-.4.007-2.358.007-2.893a19.987,19.987,0,0,1,.111-3.286c.039-.121.108-.25.131-.354a22.827,22.827,0,0,0,.934-2.454c1.1-3.537.711-5.79.711-9.273,1.5-.856,1.822-.41,2.54-.754a.831.831,0,0,0,.508-.624c.359,0,.4.178.726.26-.066-.306-.2-.3-.422-.456a.2.2,0,0,1-.11-.194l.746.264a2.759,2.759,0,0,0,.754.256c-.28-.45-.857-.54-1.3-.739a1.067,1.067,0,0,0-.2-.093c.059-.087.151-.078.265-.079.378,0,.632.053,1.017.053-.2-.316-1.153-.245-1.258-.416a.939.939,0,0,1,.12-.208c.237-.441-.078-.813-.379-1.074l-.365-.31c-.3-.3-.178-.706-.23-1.131a2.065,2.065,0,0,0-.123-.544l-.248-.436a3.176,3.176,0,0,0-1.091-.881c-.173-.092-.307-.114-.323-.355a11.269,11.269,0,0,0-.338-2.392c-.614.154-.591,1.133-1.258,1.3-.372-.6-.387-1.47-.75-2.054a.6.6,0,0,0-.465.228,21.735,21.735,0,0,0-2.365,2.971c-.048.073-.092.136-.141.213a8.772,8.772,0,0,0-1.357,2.961,8.965,8.965,0,0,1-.856,2.771,5.575,5.575,0,0,1-1.79,2.5,3.619,3.619,0,0,1-1.075.327,7.4,7.4,0,0,0-2.111.7,6.622,6.622,0,0,0-1.651,1.164l-.351.351a9.355,9.355,0,0,0-1.327,1.876l-.556,1.248a12.363,12.363,0,0,0-.5,1.668,21.475,21.475,0,0,0-.474,3.183c-.013.453-.073.932-.073,1.4,0,.243,0,.485,0,.729,0,.128-.025.25-.018.33.008.1.018.224.018.371a23.937,23.937,0,0,0,.437,4.679c.013.1.017.212.033.329.025.184-.036.211.013.349-.024.019-1.255,1.967-1.437,2.225l-.819.992c-1.342,1.442-2.921,2.482-4.934,1.936a11.949,11.949,0,0,1-1.18-.369c-.029-.012-.049-.019-.088-.036-.253-.132-.667-.155-1.063-.367l-.608-.359c-.091-.055-.173-.067-.159-.148l-.951-.635a19.2,19.2,0,0,1-1.563-1.231l-1.439-1.366c-.07-.062-.129-.136-.195-.206l-1.015-1.2c-.039-.05-.043-.064-.086-.115a16.237,16.237,0,0,1-1.135-1.692c-.845-1.408-1.6-3.49-1.105-5.15a3.72,3.72,0,0,1,.522-1.1,3.563,3.563,0,0,1,2.478-1.5,2.992,2.992,0,0,1,.734,0,3.44,3.44,0,0,1,2.279,1.2,7.482,7.482,0,0,1,.947,1.712,1.425,1.425,0,0,0,.176.383l.187.159,0-3.51c.066.011.018.007.038-.026l-1.2-1.032a5.088,5.088,0,0,0-5.842.2,5.777,5.777,0,0,0-.869.807l-.258.321a6.065,6.065,0,0,0-1.08,4.511,13.064,13.064,0,0,0,2.556,5.678c.043.06.071.108.114.163l.749.938a20.306,20.306,0,0,0,1.671,1.714c.051.046.094.081.148.127a34.379,34.379,0,0,0,4.459,3.215,2.323,2.323,0,0,0,.352.169l.856.432a6.41,6.41,0,0,0,1.232.5,4.465,4.465,0,0,0,1.9.12,8.41,8.41,0,0,0,2.35-.673,5.847,5.847,0,0,0,1.08-.659c.172-.125.323-.251.483-.391.078-.068.156-.125.229-.2l1.162-1.246c.041-.052.062-.065.1-.123.228-.314.333-.428.552-.785a8.271,8.271,0,0,0,.567-1.133c.128-.217,1.36-.149,1.6-.127.492.044,1.179,0,1.692,0,2.255,0,4.475.026,6.749.026,0-.412.09-1.448-.152-1.709s-1.24-.163-1.59-.163H1915.1A.492.492,0,0,1,1915.249,1104.712Z" transform="translate(-1860.433 -1068.417)" fill="#d75b84" fill-rule="evenodd"/>
      <path id="Path_217" data-name="Path 217" d="M2292.488,1865.8c-.02.033.028.037-.038.026l0,3.51c.052.033,0,.026.1.026.03-.12.095-.075.232-.27.2-.292.414-1.028.856-1.706.028-.043.069-.1.1-.148a3.489,3.489,0,0,1,5.774.3,4.671,4.671,0,0,1,.163,4.205l-.3.747a3.91,3.91,0,0,1-.244.517c-.037.074-.051.117-.091.189-.3.547-.419.759-.763,1.285l-1,1.322a16.151,16.151,0,0,1-1.085,1.2c-.1.084-.163.174-.26.266-.056.053-.076.057-.134.117l-.253.248c-.06.062-.086.07-.145.13a21.028,21.028,0,0,1-2.256,1.813,2.56,2.56,0,0,0-.539.494c-.014.082.068.093.159.148l.608.359a2.454,2.454,0,0,0,.94.39c.17,0,.207-.086.428-.222a10.771,10.771,0,0,0,1.241-.954l.571-.531c.245-.21.709-.73.84-.839s.367-.411.536-.594c.339-.364.642-.766.9-1.04a17.247,17.247,0,0,0,1.716-2.5l.1-.179a9.723,9.723,0,0,0,1.187-3.665,6.781,6.781,0,0,0-.93-4.141,5.3,5.3,0,0,0-1.35-1.435,4.255,4.255,0,0,0-.7-.415,5.237,5.237,0,0,0-5.162.332,4.846,4.846,0,0,0-.905.743A1.276,1.276,0,0,1,2292.488,1865.8Z" transform="translate(-2256.245 -1839.979)" fill="#5bd5d6" fill-rule="evenodd"/>
      <path id="Path_218" data-name="Path 218" d="M759.6,1296.89l-.052.015Z" transform="translate(-758.441 -1285.921)" fill="#58d5d5" fill-rule="evenodd"/>
    </g>
    <g id="Group_163" data-name="Group 163" transform="translate(16.544 7.428)">
      <text id="_248" data-name="248" transform="translate(935.632 860.138)" fill="#2b2b2b" font-size="3" font-family="Arial"><tspan x="0" y="0">248</tspan></text>
      <g id="_1852876643280" transform="translate(809.746 852.633)">
        <g id="Group_161" data-name="Group 161" transform="translate(0 0)">
          <text id="JAMES" transform="translate(0 21)" fill="#2b2b2b" font-size="23" font-family="Arial" font-weight="700"><tspan x="0" y="0">JAMES</tspan></text>
        </g>
        <g id="Group_162" data-name="Group 162" transform="translate(83.824 4.956)">
          <text id="CLUB" transform="translate(0 14)" fill="#2b2b2b" font-size="15" font-family="Arial"><tspan x="0" y="0">CLUB</tspan></text>
        </g>
      </g>
    </g>
  </g>
</svg>
