<svg xmlns="http://www.w3.org/2000/svg" width="24" height="24.002" viewBox="0 0 24 24.002">
  <g id="Looking_for" data-name="Looking for" transform="translate(-58 -1069)">
    <path id="Subtraction_1" data-name="Subtraction 1" d="M22552-1115h-7a1,1,0,0,1-1-1,7.008,7.008,0,0,1,7-7,7,7,0,0,1,3.6,1h-.6a2,2,0,0,0-2,2v5Z" transform="translate(-22481 2205)" fill="#a5a5a5"/>
    <g id="Group_205" data-name="Group 205" transform="translate(58 1069)">
      <g id="Layer_2" data-name="Layer 2">
        <g id="person">
          <rect id="Rectangle_11" data-name="Rectangle 11" width="24" height="24" fill="#a5a5a5" opacity="0"/>
          <path id="Path_31" data-name="Path 31" d="M12,11A4,4,0,1,0,8,7,4,4,0,0,0,12,11Z" fill="#a5a5a5"/>
        </g>
      </g>
    </g>
    <path id="Path_39" data-name="Path 39" d="M10.871,10.24,9.36,8.733a3.52,3.52,0,0,0,.751-2.178,3.556,3.556,0,1,0-3.556,3.556A3.52,3.52,0,0,0,8.733,9.36l1.507,1.511a.446.446,0,1,0,.631-.631ZM3.889,6.556A2.667,2.667,0,1,1,6.556,9.222,2.667,2.667,0,0,1,3.889,6.556Z" transform="translate(70 1082)" fill="#a5a5a5"/>
  </g>
</svg>
