<svg width="18" height="18" viewBox="0 0 18 18" fill="none" xmlns="http://www.w3.org/2000/svg">
<circle cx="9" cy="7.09521" r="1" fill="#59D6D6"/>
<path d="M9.00033 1.33325C5.52679 1.33325 2.70155 4.04219 2.66699 7.40556C2.667 11.6066 8.24825 16.2832 8.48575 16.4826C8.78201 16.728 9.21865 16.728 9.51491 16.4826C9.792 16.2832 15.3337 11.6066 15.3337 7.40525C15.2989 4.04188 12.4735 1.33308 9.00033 1.33325H9.00033ZM9.00033 9.76658C7.47004 9.76658 6.2295 8.56521 6.2295 7.08325C6.2295 5.60129 7.47004 4.39992 9.00033 4.39992C10.5306 4.39992 11.7712 5.60129 11.7712 7.08325C11.7712 8.56521 10.5306 9.76658 9.00033 9.76658H9.00033Z" fill="#59D6D6"/>
</svg>
