<svg width="20" height="20" viewBox="0 0 20 20" fill="none" xmlns="http://www.w3.org/2000/svg">
<path d="M18.6631 16.9535H18.4745L11.191 1.18351C10.9764 0.718847 10.5113 0.421387 9.99949 0.421387C9.48771 0.421387 9.02259 0.718847 8.80801 1.18351L1.52446 16.9535H1.33586C0.611009 16.9535 0.0234375 17.5411 0.0234375 18.2659C0.0234375 18.9908 0.611009 19.5784 1.33586 19.5784H4.35443C5.07928 19.5784 5.66685 18.9908 5.66685 18.2659C5.66685 17.5613 5.11118 16.9881 4.41434 16.9565L9.99942 4.86387L15.5845 16.9565C14.8877 16.9881 14.332 17.5613 14.332 18.2659C14.332 18.9908 14.9196 19.5784 15.6444 19.5784H18.663C19.3878 19.5784 19.9754 18.9908 19.9754 18.2659C19.9754 17.5411 19.3879 16.9535 18.6631 16.9535Z" fill="#A5A5A5"/>
</svg>
