<svg xmlns="http://www.w3.org/2000/svg" width="24" height="24" viewBox="0 0 24 24">
  <g id="Password" transform="translate(20416.861 23101)">
    <rect id="Rectangle_553" data-name="Rectangle 553" width="24" height="24" transform="translate(-20416.861 -23101)" fill="none"/>
    <path id="Path_2457" data-name="Path 2457" d="M159.8,35.5h-.611V33.516a5.517,5.517,0,0,0-11.035,0V35.5h-.611a1.143,1.143,0,0,0-1.143,1.143v8.21A1.143,1.143,0,0,0,147.541,46H159.8a1.143,1.143,0,0,0,1.143-1.143v-8.21A1.143,1.143,0,0,0,159.8,35.5Zm-9.587-1.986a3.459,3.459,0,1,1,6.919,0V35.5H150.21Zm4.227,7.237v1.89a.114.114,0,0,1-.114.114h-1.307a.114.114,0,0,1-.114-.114v-1.89a1.715,1.715,0,1,1,1.535,0Z" transform="translate(-20558.531 -23125.998)" fill="#a5a5a5"/>
  </g>
</svg>
