<svg xmlns="http://www.w3.org/2000/svg" width="24" height="24" viewBox="0 0 24 24">
  <g id="Phone" transform="translate(20574 23150)">
    <rect id="Rectangle_554" data-name="Rectangle 554" width="24" height="24" transform="translate(-20574 -23150)" fill="none"/>
    <path id="Icon_material-call" data-name="Icon material-call" d="M8.12,12.29a15.149,15.149,0,0,0,6.59,6.59l2.2-2.2a.994.994,0,0,1,1.02-.24,11.407,11.407,0,0,0,3.57.57,1,1,0,0,1,1,1V21.5a1,1,0,0,1-1,1,17,17,0,0,1-17-17,1,1,0,0,1,1-1H9a1,1,0,0,1,1,1,11.36,11.36,0,0,0,.57,3.57,1,1,0,0,1-.25,1.02Z" transform="translate(-20575.5 -23151.5)" fill="#a5a5a5"/>
  </g>
</svg>
