<svg width="20" height="16" viewBox="0 0 20 16" fill="none" xmlns="http://www.w3.org/2000/svg">
<path d="M10.3767 10.9769C11.2379 9.94897 11.6566 9.00705 11.6566 8.09741C11.6566 6.43811 10.3067 5.08813 8.64735 5.08813C7.78073 5.08813 6.95548 5.46301 6.38312 6.11664L5.95331 6.60748L5.52351 6.11664C4.95119 5.46301 4.12589 5.08813 3.25928 5.08813C1.59997 5.08813 0.25 6.43811 0.25 8.09741C0.25 9.00708 0.668683 9.94897 1.52993 10.9769C2.47466 12.1045 3.96189 13.3201 5.95331 14.5929C7.94473 13.3202 9.43196 12.1046 10.3767 10.9769Z" fill="#A5A5A5"/>
<path d="M14.9082 0.730957C13.4554 0.730957 12.153 1.3718 11.2656 2.38516C10.3783 1.3718 9.07587 0.730957 7.62303 0.730957C5.51814 0.730957 3.72745 2.07438 3.06055 3.95044C4.09418 3.90149 5.16512 4.26731 5.95302 4.93954C6.69994 4.30228 7.65376 3.94557 8.64705 3.94557C10.9364 3.94557 12.7989 5.80807 12.7989 8.09743C12.7989 9.27011 12.2785 10.4858 11.2522 11.7108C10.6784 12.3956 9.95044 13.0885 9.05464 13.8003C9.72844 14.2777 10.464 14.767 11.2656 15.2689C17.4817 11.3769 19.7496 8.24079 19.7496 5.57227C19.7496 2.89854 17.5821 0.730957 14.9082 0.730957Z" fill="#A5A5A5"/>
</svg>
