<svg width="20" height="20" viewBox="0 0 20 20" fill="none" xmlns="http://www.w3.org/2000/svg">
<path d="M17.3535 7.20614L17.5216 7.32672H17.6783V7.02506L18.1724 6.97716L18.6417 7.32672H19.413L19.4672 7.27714C19.3899 7.01707 19.303 6.76163 19.2055 6.51122L18.7022 6.51963L18.4497 6.24234L18.4009 5.79657L18.1421 5.93773L18.0035 6.48266L17.63 6.0852L17.6148 5.7096L17.2544 5.39911L17.1216 5.26677H16.7036L16.8351 5.63943L17.3384 5.92009L17.4258 6.01294L17.3165 6.06756L17.3216 6.36292L17.0762 6.46543L16.867 6.41963L16.7359 6.23435L17.0766 6.25242L17.1686 6.12848L16.4145 5.61969L16.3565 5.4029L16.0502 5.68019L15.7398 5.61633L15.2671 6.23099L15.1738 6.47173L14.8713 6.49904L14.4239 6.50198L14.1562 6.37678L14.0773 5.8453L14.1735 5.59196L14.6289 5.49239L15.1255 5.59196L15.1864 5.31719L14.9755 5.26719L15.0474 4.83907L15.5473 4.76092L15.8969 4.26726L16.2578 4.20676L16.5834 4.25507H16.7036L16.6372 3.79124L16.2414 3.95089L16.1019 3.60428L15.8721 3.57235L15.8288 3.33497L16.0162 3.13078L16.462 2.956L16.5767 2.75097C14.873 1.25023 12.64 0.336426 10.1964 0.336426C8.07598 0.336426 6.11434 1.02462 4.51907 2.18714L5.00643 2.18336L5.22365 2.30352L5.63286 2.39175L5.66479 2.55266L6.31559 2.57661L6.22736 2.3678L5.64925 2.35142L5.78537 2.22327L5.7379 2.07034H5.21524L5.78538 1.64474H6.33156L6.58826 1.9985L7.01428 2.02245L7.27099 1.77331L7.46383 1.86952L7.11008 2.21487C7.11008 2.21487 6.62061 2.2237 6.64456 2.2237C6.66851 2.2237 6.68489 2.56065 6.68489 2.56065L7.27855 2.54426L7.34283 2.38419L7.75205 2.35982L7.80037 2.11908L7.55963 2.07833L7.63987 1.86153L7.82431 1.80566L8.46671 1.83759L8.11253 2.15899L8.16967 2.40772L8.53897 2.46402L8.51502 2.01447L8.86836 1.8296L9.49479 1.75734L10.4019 2.15899V2.50435L10.6909 2.57661L10.546 2.8497H10.1363L10.0149 3.16271L9.08011 2.94213L9.81578 2.55014L9.53555 2.31192L8.90113 2.39217L8.84567 2.44973L8.84357 2.44889L8.83391 2.46233L8.65115 2.65224L8.34907 2.67703L8.37302 2.82744L8.47847 2.87113L8.47427 2.92071L8.22849 2.95558L8.21042 3.09801L7.97556 3.11019L7.93313 2.82702L7.51173 2.95516L6.65044 3.45933L6.74708 3.81435L6.98782 3.97148L7.4693 4.03786V4.5853L7.69197 4.54959L7.897 4.12189L8.40915 3.95971V3.30303L8.69401 3.08792L9.38261 3.25052L9.3343 3.68452H9.51916L10.0254 3.4358L10.0498 4.00551L10.4183 4.23028L10.4027 4.56808L10.0498 4.68824L10.0737 4.79999L10.4993 4.99368L10.4905 5.22644L10.3674 5.23694C10.367 5.23316 10.3662 5.23064 10.3662 5.23064L9.82922 5.0651L9.80654 4.89284H9.80612L9.96325 4.78487V4.62774L9.79435 4.5853L9.75234 4.73025L9.45614 4.77605L9.42673 4.76638V4.78109L9.32422 4.79663L9.24061 4.62774L9.14398 4.5853H8.93307L8.83727 4.66429V4.83907L9.01752 4.89915L9.19565 4.92436L9.15574 4.942L8.99315 5.12224L8.92172 5.03233L8.76459 4.99074L8.33647 5.39323L8.39235 5.43903L7.76045 5.789L7.16596 6.40745L7.1252 6.68264L6.52944 7.07421L6.23409 7.37125L6.26686 7.96533L5.85722 7.77459L5.86016 7.42713L4.72032 7.42755L4.13002 7.72627L3.87374 8.19893L3.77207 8.57369L3.93802 8.93711L4.40312 8.99383L5.14214 8.49975L5.20684 8.74469L4.98123 9.17071L5.5438 9.26692L5.60009 10.1358L6.37105 10.2669L6.86094 9.70051L7.45543 9.82151L7.66424 10.1118L8.23437 10.0782L8.25034 9.90974L8.56376 10.0618L8.9171 10.6156L9.52715 10.624L9.75234 11.0181L9.78427 11.4995L10.459 11.7563L11.3102 11.7651L11.5594 12.1739L11.9366 12.2949L11.8644 12.6331L11.451 13.1583L11.3304 14.3216L10.9569 14.6166L10.4031 14.6002L10.2187 14.9212L10.3557 15.5245L9.75276 16.295L9.56034 16.6488L8.98601 16.9244L8.6083 16.982L8.59275 17.142L8.85786 17.2181L8.82593 17.3908L8.58855 17.6193L8.73266 17.8012L9.01836 17.8092L9.00239 18.0294L8.92635 18.2466L8.90198 18.423L9.32464 18.7789L9.26834 18.9638L8.69317 18.9528L8.12094 18.4537L7.67517 17.6701L7.73735 16.9139L7.39998 16.4639L7.53652 15.7014L7.33612 15.6455V13.991C7.33612 13.991 6.77397 13.565 6.74162 13.565C6.70927 13.565 6.44416 13.4927 6.44416 13.4927L6.38786 13.1801L5.65724 12.2642L5.7295 11.9352L5.75345 11.397L6.2593 11.0433L6.18703 10.4408L5.44843 10.3853L4.87031 9.72655L4.46067 9.61312L4.19598 9.56438L4.22792 9.32364L3.89054 9.27575V9.41229L3.0469 9.2018L2.70743 8.68251L2.84565 8.43085L2.31166 7.65149L2.22007 7.08136H2.00327L2.07512 7.6351L2.44442 8.20523L2.40409 8.43043L2.09108 8.38211L1.70581 7.72543V6.96119L1.30416 6.76835V6.21839C0.808395 7.38049 0.533203 8.65856 0.533203 10.0001C0.533203 15.3287 4.86821 19.6637 10.1968 19.6637C13.2177 19.6637 15.9183 18.2697 17.6917 16.0917H17.3728V15.4493L17.004 14.9527V14.18L16.7225 13.8994L16.6977 13.578L17.0556 12.8953L16.3779 11.6983L16.4574 10.8861L15.8473 10.8231L15.6225 10.5983H15.2125L15.0041 10.7908H14.281L14.2567 10.8551H13.8546L12.932 9.80344L12.9395 8.98417L13.092 8.92829L13.1488 8.61487H12.932L12.8433 8.2859L13.9109 7.51536V6.96918L14.4335 6.67886L14.6453 6.69987H15.0751L15.4116 6.51921L16.496 6.43476V6.98892L17.3535 7.20614ZM14.6428 3.76057L14.731 3.62444L15.0486 3.56016L15.128 3.94585L15.2969 4.21852L15.4091 4.3475L15.6137 4.42733L15.4209 4.65673L15.0474 4.69244H14.7667L14.7982 4.35927L15.0318 4.31095L15.0121 4.15424L14.7944 4.01769L14.6423 3.9135L14.6428 3.76057V3.76057ZM14.1214 4.36305L14.3142 4.05383L14.5743 3.99332L14.7591 4.07357L14.7423 4.28238L14.3449 4.56345H14.1205V4.36305H14.1214ZM8.87088 5.55162L8.66964 5.56843L8.68056 5.42852L8.77047 5.31635L8.89147 5.4113L8.87088 5.55162ZM9.5763 5.30458L9.43891 5.31635L9.41118 5.44911L9.30531 5.51507L9.13557 5.52936C9.12969 5.48944 9.12633 5.45919 9.12633 5.45919H9.06037V5.31635H9.33724L9.39438 5.16888L9.50446 5.16678L9.63008 5.19282L9.5763 5.30458Z" fill="#A5A5A5"/>
</svg>
