<svg width="16" height="20" viewBox="0 0 16 20" fill="none" xmlns="http://www.w3.org/2000/svg">
<path d="M4.86532 15.532V16.9258H3.4715C3.27907 16.9258 3.12305 17.0818 3.12305 17.2742C3.12305 17.4666 3.27907 17.6227 3.4715 17.6227H4.86532V19.365C4.86532 19.5574 5.02134 19.7134 5.21378 19.7134C5.40621 19.7134 5.56223 19.5574 5.56223 19.365V17.6227H6.95605C7.14848 17.6227 7.3045 17.4666 7.3045 17.2742C7.3045 17.0818 7.14848 16.9258 6.95605 16.9258H5.56223V15.532H4.86532Z" fill="#A5A5A5"/>
<path d="M5.21287 14.835C7.61411 14.8375 9.59952 12.965 9.73734 10.5678C9.87515 8.17044 8.1174 6.0826 5.73164 5.81006C5.65524 6.0304 5.60403 6.25873 5.57902 6.49063C7.47817 6.67268 8.95434 8.22389 9.04196 10.1299C9.12976 12.0356 7.80246 13.7158 5.92798 14.0718C4.05367 14.4277 2.20285 13.3508 1.58591 11.5455C0.968964 9.74005 1.77375 7.75583 3.474 6.8903C3.474 6.86682 3.47059 6.84386 3.47059 6.82054C3.47247 6.57996 3.49067 6.33972 3.52521 6.10168C1.51172 6.91055 0.354576 9.03395 0.766327 11.1645C1.17791 13.2952 3.04285 14.8345 5.21287 14.835H5.21287Z" fill="#A5A5A5"/>
<path d="M8.32475 9.93234C8.1512 8.4977 7.02059 7.36708 5.58594 7.19336C5.75965 8.62801 6.89027 9.75862 8.32475 9.93234Z" fill="#A5A5A5"/>
<path d="M8.69696 2.98761C10.4687 2.98863 12.0088 4.20363 12.4221 5.92651C12.8354 7.64922 12.0141 9.43081 10.4356 10.2354C10.4356 10.2589 10.4392 10.2819 10.4392 10.3052C10.4374 10.5437 10.4191 10.7819 10.3848 11.0181C12.5065 10.165 13.6606 7.86514 13.0765 5.65413C12.4925 3.44328 10.3531 2.01339 8.08698 2.31948C5.82066 2.6254 4.13708 4.57134 4.1604 6.85789C4.18353 9.14463 5.90607 11.056 8.178 11.316C8.25441 11.0955 8.30561 10.8672 8.33062 10.6351C6.2986 10.435 4.78006 8.67692 4.87773 6.63723C4.97539 4.59771 6.65488 2.99274 8.69695 2.98763L8.69696 2.98761Z" fill="#A5A5A5"/>
<path d="M3.54028 7.65137C2.44863 8.33723 1.88783 9.62129 2.12672 10.8882C2.3656 12.1551 3.3555 13.1467 4.62205 13.3878C5.88844 13.6289 7.17353 13.0705 7.86126 11.98C5.63713 11.6217 3.89452 9.87601 3.54028 7.65137Z" fill="#A5A5A5"/>
<path d="M11.834 0.548406C11.834 0.74084 11.99 0.896862 12.1824 0.896862H13.2877C13.4286 0.896862 13.5557 0.981764 13.6096 1.11192C13.6635 1.24208 13.6338 1.39198 13.5341 1.49169L12.1646 2.86084L12.6577 3.35341L14.0268 1.98476C14.1265 1.88506 14.2762 1.85528 14.4064 1.90922C14.5367 1.96316 14.6216 2.09025 14.6216 2.23113V3.33605C14.6216 3.52848 14.7776 3.68451 14.9701 3.68451C15.1625 3.68451 15.3185 3.52848 15.3185 3.33605V0.548407C15.3185 0.355973 15.1625 0.199951 14.9701 0.199951H12.1824C11.99 0.199951 11.834 0.355973 11.834 0.548407V0.548406Z" fill="#A5A5A5"/>
<path d="M10.3666 9.46895C11.4582 8.78396 12.0192 7.50039 11.7801 6.234C11.5411 4.96761 10.551 3.97669 9.2848 3.73679C8.01859 3.49689 6.7345 4.05683 6.04883 5.14812C8.26478 5.51531 10.0009 7.25265 10.3666 9.46895H10.3666Z" fill="#A5A5A5"/>
</svg>
