<svg width="12" height="12" viewBox="0 0 12 12" fill="none" xmlns="http://www.w3.org/2000/svg">
<path d="M9.32259 11.5853C9.23026 11.5857 9.13918 11.5639 9.05699 11.5218L6.1123 9.9802L3.16761 11.5218C2.97252 11.6244 2.73606 11.607 2.55813 11.4769C2.3802 11.3468 2.29184 11.1268 2.33039 10.9098L2.90778 7.65909L0.528929 5.34953C0.377685 5.1986 0.322156 4.97648 0.384581 4.77214C0.452854 4.56279 0.634258 4.4105 0.852268 4.37951L4.1434 3.90028L5.59265 0.938261C5.68912 0.739066 5.89097 0.612549 6.1123 0.612549C6.33363 0.612549 6.53548 0.739066 6.63195 0.938261L8.09852 3.8945L11.3897 4.37374C11.6077 4.40472 11.7891 4.55701 11.8573 4.76636C11.9198 4.97071 11.8642 5.19282 11.713 5.34375L9.33414 7.65332L9.91153 10.904C9.95362 11.1251 9.86348 11.3504 9.68057 11.4814C9.57602 11.5547 9.45013 11.5912 9.32259 11.5853H9.32259Z" fill="black"/>
</svg>
