<svg width="16" height="20" viewBox="0 0 16 20" fill="none" xmlns="http://www.w3.org/2000/svg">
<path d="M4.86337 15.5322V16.9261H3.46955C3.27711 16.9261 3.12109 17.082 3.12109 17.2745C3.12109 17.4669 3.27711 17.623 3.46955 17.623H4.86337V19.3652C4.86337 19.5576 5.01939 19.7137 5.21182 19.7137C5.40425 19.7137 5.56028 19.5576 5.56028 19.3652V17.623H6.9541C7.14653 17.623 7.30255 17.4669 7.30255 17.2745C7.30255 17.082 7.14653 16.9261 6.9541 16.9261H5.56028V15.5322H4.86337Z" fill="#A5A5A5"/>
<path d="M5.21189 14.8355C7.61313 14.838 9.59855 12.9654 9.73636 10.5683C9.87418 8.17093 8.11642 6.08308 5.73066 5.81055C5.65427 6.03088 5.60305 6.25922 5.57804 6.49112C7.47719 6.67317 8.95336 8.22438 9.04098 10.1303C9.12878 12.0361 7.80148 13.7163 5.92701 14.0723C4.0527 14.4282 2.20187 13.3513 1.58493 11.5459C0.967987 9.74054 1.77277 7.75632 3.47302 6.89079C3.47302 6.86731 3.46962 6.84435 3.46962 6.82103C3.47149 6.58044 3.4897 6.34021 3.52423 6.10217C1.51075 6.91104 0.353599 9.03444 0.765351 11.165C1.17693 13.2957 3.04188 14.835 5.2119 14.8355H5.21189Z" fill="#A5A5A5"/>
<path d="M8.32279 9.93283C8.14925 8.49818 7.01864 7.36757 5.58398 7.19385C5.7577 8.62849 6.88831 9.75911 8.32279 9.93283Z" fill="#A5A5A5"/>
<path d="M8.69696 2.98761C10.4687 2.98863 12.0088 4.20363 12.4221 5.92651C12.8354 7.64922 12.0141 9.43081 10.4356 10.2354C10.4356 10.2589 10.4392 10.2819 10.4392 10.3052C10.4374 10.5437 10.4191 10.7819 10.3848 11.0181C12.5065 10.165 13.6606 7.86514 13.0765 5.65413C12.4925 3.44328 10.3531 2.01339 8.08698 2.31948C5.82066 2.6254 4.13708 4.57134 4.1604 6.85789C4.18353 9.14463 5.90607 11.056 8.178 11.316C8.25441 11.0955 8.30561 10.8672 8.33062 10.6351C6.2986 10.435 4.78006 8.67692 4.87773 6.63723C4.97539 4.59771 6.65488 2.99274 8.69695 2.98763L8.69696 2.98761Z" fill="#A5A5A5"/>
<path d="M3.5393 7.65137C2.44765 8.33723 1.88686 9.62129 2.12574 10.8882C2.36462 12.1551 3.35452 13.1467 4.62108 13.3878C5.88746 13.6289 7.17255 13.0705 7.86028 11.98C5.63616 11.6217 3.89354 9.87601 3.5393 7.65137Z" fill="#A5A5A5"/>
<path d="M11.832 0.54865C11.832 0.741084 11.9881 0.897106 12.1805 0.897106H13.2857C13.4266 0.897106 13.5537 0.982008 13.6076 1.11217C13.6616 1.24233 13.6318 1.39223 13.5321 1.49193L12.1626 2.86108L12.6557 3.35365L14.0249 1.98501C14.1245 1.8853 14.2743 1.85553 14.4044 1.90946C14.5348 1.9634 14.6197 2.0905 14.6197 2.23138V3.33629C14.6197 3.52873 14.7757 3.68475 14.9681 3.68475C15.1606 3.68475 15.3166 3.52873 15.3166 3.33629V0.548651C15.3166 0.356218 15.1606 0.200195 14.9681 0.200195H12.1805C11.9881 0.200195 11.832 0.356218 11.832 0.548651V0.54865Z" fill="#A5A5A5"/>
<path d="M10.3666 9.4692C11.4582 8.7842 12.0192 7.50063 11.7801 6.23424C11.5411 4.96786 10.551 3.97693 9.2848 3.73704C8.01859 3.49714 6.7345 4.05707 6.04883 5.14837C8.26478 5.51555 10.0009 7.25289 10.3666 9.4692H10.3666Z" fill="#A5A5A5"/>
</svg>
