<svg width="23" height="24" viewBox="0 0 23 24" fill="none" xmlns="http://www.w3.org/2000/svg">
<path d="M18.8203 20.6784H0.34375C0.214327 20.6784 0.109375 20.5734 0.109375 20.444V19.6021C0.109375 15.7188 3.25736 12.5708 7.14062 12.5708H12.0234C15.9067 12.5708 19.0547 15.7188 19.0547 19.6021V20.444C19.0547 20.5734 18.9497 20.6784 18.8203 20.6784Z" fill="#5E54AC"/>
<path d="M12.0237 12.5708H7.14088C7.09836 12.5708 7.05598 12.5716 7.01367 12.5724C10.8382 12.6403 13.9176 15.7613 13.9176 19.6021V20.444C13.9176 20.5734 13.8127 20.6784 13.6833 20.6784H18.8206C18.95 20.6784 19.0549 20.5734 19.0549 20.444V19.6021C19.0549 15.7188 15.907 12.5708 12.0237 12.5708H12.0237Z" fill="#524798"/>
<path d="M5.13477 4.21866V4.74412L5.32227 5.28736H13.841L14.0285 4.74412V4.21866C14.0285 1.88878 12.1397 0 9.80984 0H9.35342C7.0235 0 5.13477 1.88878 5.13477 4.21866Z" fill="#784033"/>
<path d="M9.81096 0H8.94336C10.5093 0 11.7788 1.26947 11.7788 2.83542V5.28731H13.8421L14.0296 4.74408V4.21861C14.0296 1.88878 12.1409 0 9.81096 0Z" fill="#61362B"/>
<path d="M13.7454 6.34133C13.2897 7.30892 13.2505 8.5954 13.8226 8.86479C14.3946 9.13423 15.3614 8.28457 15.8171 7.31698C16.2728 6.34938 15.9784 5.77146 15.4063 5.50203C14.8342 5.23263 14.2011 5.37373 13.7454 6.34133Z" fill="#FFCBBE"/>
<path d="M10.103 15.4219H9.06215C7.62662 15.4219 6.46289 14.2582 6.46289 12.8226V9.89478H12.7022V12.8226C12.7022 14.2581 11.5385 15.4219 10.103 15.4219Z" fill="#EAAC9D"/>
<path d="M10.7506 9.89478V12.8226C10.7506 14.1028 9.82483 15.1661 8.60645 15.3813C8.75435 15.4075 8.90627 15.4219 9.06161 15.4219H10.1024C11.538 15.4219 12.7017 14.2582 12.7017 12.8226V9.89478H10.7506Z" fill="#DF9380"/>
<path d="M13.2208 3.93652H5.94243C5.49635 3.93652 5.13477 4.29812 5.13477 4.74418V7.61949C5.13477 9.18442 5.91379 10.6467 7.21259 11.5197L8.50493 12.3883C8.63634 12.4766 8.77591 12.5471 8.92035 12.5998L9.83109 12.6388L10.7502 12.3266L11.9507 11.5197C13.2495 10.6467 14.0285 9.18442 14.0285 7.61949V4.74418C14.0285 4.29816 13.6669 3.93652 13.2208 3.93652Z" fill="#FFCBBE"/>
<path d="M12.7071 3.93652V7.6195C12.7071 9.18442 11.9281 10.6467 10.6292 11.5197L9.33691 12.3883C9.20547 12.4767 9.06532 12.5471 8.9209 12.5998C9.49202 12.8081 10.1392 12.7376 10.6589 12.3883L11.9513 11.5197C13.2501 10.6467 14.0291 9.18442 14.0291 7.6195V4.74419C14.0291 4.29812 13.6675 3.93652 13.2215 3.93652H12.7071Z" fill="#EAAC9D"/>
<path d="M5.41798 6.34133C5.87369 7.30892 5.91294 8.5954 5.34083 8.86479C4.76877 9.13423 3.80202 8.28457 3.34629 7.31698C2.89057 6.34938 3.18504 5.77146 3.75711 5.50203C4.32921 5.23263 4.96226 5.37373 5.41798 6.34133Z" fill="#FFCBBE"/>
<circle cx="7.48487" cy="6.72047" r="0.537609" fill="#61362B"/>
<circle cx="11.6792" cy="6.72047" r="0.537609" fill="#61362B"/>
<path d="M10.4313 10.0111H8.73201C8.53804 10.0111 8.38086 9.85391 8.38086 9.65999C8.38086 9.46606 8.53809 9.30884 8.73201 9.30884H10.4313C10.6253 9.30884 10.7825 9.46606 10.7825 9.65999C10.7825 9.85391 10.6253 10.0111 10.4313 10.0111Z" fill="#DD636E"/>
<path d="M13.7454 6.34133C13.2897 7.30892 13.2505 8.5954 13.8226 8.86479C14.3946 9.13423 15.3614 8.28457 15.8171 7.31698C16.2728 6.34938 15.9784 5.77146 15.4063 5.50203C14.8342 5.23263 14.2011 5.37373 13.7454 6.34133Z" fill="#EAAC9D"/>
<circle cx="16.8835" cy="18.7957" r="4.38745" fill="#ECF4FF"/>
<path d="M19.9865 15.6932C19.2933 15.0001 18.426 14.5874 17.5253 14.4551C17.6035 14.523 17.6801 14.5939 17.7544 14.6683C19.4678 16.3817 19.4678 19.1598 17.7544 20.8731C16.7341 21.8934 15.3364 22.306 14.0107 22.1112C15.7344 23.6079 18.3474 23.537 19.9865 21.898C21.6999 20.1846 21.6999 17.4066 19.9865 15.6932Z" fill="#DDEAFB"/>
<path d="M20.5659 15.1139C18.5357 13.0838 15.2324 13.0838 13.2023 15.1139C11.1722 17.1441 11.1721 20.4473 13.2023 22.4775C14.2174 23.4926 15.5507 24.0001 16.8841 24.0001C18.2174 24.0001 19.5508 23.4926 20.5659 22.4775C22.596 20.4473 22.596 17.1441 20.5659 15.1139ZM14.361 16.2727C15.035 15.5987 15.931 15.2276 16.8841 15.2276C17.5576 15.2276 18.2023 15.4138 18.7606 15.7604L13.8487 20.6722C13.5021 20.1139 13.316 19.4693 13.316 18.7957C13.316 17.8426 13.6871 16.9466 14.361 16.2727ZM19.4071 21.3187C18.7332 21.9926 17.8372 22.3638 16.884 22.3638C16.2105 22.3638 15.5658 22.1776 15.0075 21.831L19.9185 16.92C20.7687 18.2953 20.5988 20.1269 19.4071 21.3187Z" fill="#DD636E"/>
<path d="M20.5666 15.114C20.4858 15.0332 20.4028 14.956 20.3182 14.8816C22.1123 16.9243 22.0352 20.0474 20.0859 21.9967C19.0707 23.0118 17.7374 23.5193 16.4041 23.5193C15.1768 23.5193 13.9498 23.089 12.9707 22.2291C13.045 22.3137 13.1223 22.3967 13.203 22.4775C14.2181 23.4926 15.5515 24.0001 16.8849 24.0001C18.2182 24.0001 19.5516 23.4926 20.5667 22.4775C22.5967 20.4473 22.5967 17.1441 20.5666 15.114Z" fill="#D82E3D"/>
</svg>
