<svg xmlns="http://www.w3.org/2000/svg" width="100" height="100" viewBox="0 0 100 100">
  <g id="Group_6547" data-name="Group 6547" transform="translate(-149 -145)">
    <circle id="Ellipse_3" data-name="Ellipse 3" cx="50" cy="50" r="50" transform="translate(149 145)" fill="#59d6d6"/>
    <g id="Icon_ionic-ios-camera" data-name="Icon ionic-ios-camera" transform="translate(172.5 170.625)">
      <path id="Path_28" data-name="Path 28" d="M27.134,21.882a6.589,6.589,0,1,1-6.589-6.589A6.589,6.589,0,0,1,27.134,21.882Z" transform="translate(5.954 4.671)" fill="#fff"/>
      <path id="Path_29" data-name="Path 29" d="M45.005,13.375H38.76a1.86,1.86,0,0,1-1.375-.619c-3.254-3.644-4.48-4.881-5.809-4.881h-9.8c-1.341,0-2.658,1.237-5.924,4.893a1.824,1.824,0,0,1-1.364.607h-.47v-.917a.919.919,0,0,0-.917-.917H10.126a.919.919,0,0,0-.917.917v.917H8.35A3.716,3.716,0,0,0,4.5,16.893V37.059a3.967,3.967,0,0,0,3.839,3.816H45.005A3.673,3.673,0,0,0,48.5,37.059V16.893A3.415,3.415,0,0,0,45.005,13.375ZM26.958,36.338a9.8,9.8,0,1,1,9.327-9.327A9.806,9.806,0,0,1,26.958,36.338ZM37.5,20.021a1.49,1.49,0,1,1,1.49-1.49A1.487,1.487,0,0,1,37.5,20.021Z" transform="translate(0 0)" fill="#fff"/>
    </g>
  </g>
</svg>
