<svg width="25" height="26" viewBox="0 0 25 26" fill="none" xmlns="http://www.w3.org/2000/svg">
<path d="M21.5637 4.74852L18.5739 1.75879L15.0859 5.24683L17.5774 11.7246L21.5637 4.74852Z" fill="#FF3E3A"/>
<path d="M21.5631 4.74854L16.082 10.2297L21.0649 11.2263L24.5529 7.73827L21.5631 4.74854Z" fill="#CC3245"/>
<path d="M2.10743 20.856L0.5 25.8121L5.77497 22.5304L2.10743 20.856Z" fill="#373E9F"/>
<path d="M0.5 25.812L5.45613 24.2046L4.77832 21.5337L0.5 25.812Z" fill="#340D66"/>
<path d="M9.34959 18.9555L3.37017 16.9624L2.10742 20.8558L3.7818 22.5302L9.34959 18.9555Z" fill="#FFE7B5"/>
<path d="M3.78125 22.5302L5.45567 24.2045L9.349 22.9418L8.35243 17.959L3.78125 22.5302Z" fill="#FFD06A"/>
<path d="M6.35938 19.952L9.34904 22.9417L21.0648 11.226L18.075 8.23633L10.2686 12.0565L6.35938 19.952Z" fill="#FF9A27"/>
<path d="M7.29102 11.7231L19.0067 0.00747668L21.9964 2.99719L10.2807 14.7129L7.29102 11.7231Z" fill="#FFB820"/>
</svg>
