<svg xmlns="http://www.w3.org/2000/svg" width="16.543" height="19.609" viewBox="0 0 16.543 19.609">
  <g id="businessman_1_" data-name="businessman(1)" transform="translate(-37.758 0)">
    <g id="Group_249" data-name="Group 249" transform="translate(37.758 0)">
      <path id="Path_1175" data-name="Path 1175" d="M134.635,8.314a4.147,4.147,0,0,0,2.55,3.159,2.794,2.794,0,0,0,1.872,0,4.224,4.224,0,0,0,2.558-3.155c.195-.016.451-.288.727-1.267.378-1.336-.024-1.535-.365-1.5A3.538,3.538,0,0,0,142.122,5c.577-3.463-1.129-3.581-1.129-3.581a2.63,2.63,0,0,0-1.027-.954,3.469,3.469,0,0,0-2.107-.447,3.146,3.146,0,0,0-.84.158h0a3.693,3.693,0,0,0-.926.475,4.852,4.852,0,0,0-.95.788,3.856,3.856,0,0,0-1.027,1.8A3.914,3.914,0,0,0,134.123,5h0a3.421,3.421,0,0,0,.146.548c-.341-.032-.743.166-.365,1.5C134.184,8.026,134.44,8.3,134.635,8.314Z" transform="translate(-129.854 0)" fill="#a5a5a5"/>
      <path id="Path_1176" data-name="Path 1176" d="M52.725,276.187a12.877,12.877,0,0,1-3.76-1.713l-1.315,4.162-.248.784,0-.012-.215.666-.694-1.969c1.705-2.379-.345-2.355-.459-2.351s-2.164-.028-.459,2.351l-.694,1.969-.215-.666,0,.012-.248-.784-1.32-4.162a12.877,12.877,0,0,1-3.76,1.713c-1.547.394-1.62,2.18-1.559,3.061,0,0,.089,1.2.179,1.726a15.868,15.868,0,0,0,8.08,1.965,15.82,15.82,0,0,0,8.08-1.965c.089-.528.179-1.726.179-1.726C54.345,278.368,54.272,276.581,52.725,276.187Z" transform="translate(-37.758 -263.33)" fill="#a5a5a5"/>
    </g>
  </g>
</svg>
