<svg xmlns="http://www.w3.org/2000/svg" width="24" height="24" viewBox="0 0 24 24">
  <g id="Group_31" data-name="Group 31" transform="translate(-1946 -774)">
    <rect id="Rectangle_17" data-name="Rectangle 17" width="24" height="24" transform="translate(1946 774)" fill="none"/>
    <path id="Icon_awesome-calendar-alt" data-name="Icon awesome-calendar-alt" d="M0,16.779a1.736,1.736,0,0,0,1.736,1.736H14.464A1.736,1.736,0,0,0,16.2,16.779V6.943H0ZM11.571,9.691a.435.435,0,0,1,.434-.434h1.446a.435.435,0,0,1,.434.434v1.446a.435.435,0,0,1-.434.434H12.005a.435.435,0,0,1-.434-.434Zm0,4.629a.435.435,0,0,1,.434-.434h1.446a.435.435,0,0,1,.434.434v1.446a.435.435,0,0,1-.434.434H12.005a.435.435,0,0,1-.434-.434ZM6.943,9.691a.435.435,0,0,1,.434-.434H8.823a.435.435,0,0,1,.434.434v1.446a.435.435,0,0,1-.434.434H7.377a.435.435,0,0,1-.434-.434Zm0,4.629a.435.435,0,0,1,.434-.434H8.823a.435.435,0,0,1,.434.434v1.446a.435.435,0,0,1-.434.434H7.377a.435.435,0,0,1-.434-.434ZM2.314,9.691a.435.435,0,0,1,.434-.434H4.195a.435.435,0,0,1,.434.434v1.446a.435.435,0,0,1-.434.434H2.748a.435.435,0,0,1-.434-.434Zm0,4.629a.435.435,0,0,1,.434-.434H4.195a.435.435,0,0,1,.434.434v1.446a.435.435,0,0,1-.434.434H2.748a.435.435,0,0,1-.434-.434ZM14.464,2.314H12.729V.579A.58.58,0,0,0,12.15,0H10.993a.58.58,0,0,0-.579.579V2.314H5.786V.579A.58.58,0,0,0,5.207,0H4.05a.58.58,0,0,0-.579.579V2.314H1.736A1.736,1.736,0,0,0,0,4.05V5.786H16.2V4.05A1.736,1.736,0,0,0,14.464,2.314Z" transform="translate(1949.9 776.743)" fill="#a5a5a5"/>
  </g>
</svg>
