<svg width="24" height="25" viewBox="0 0 24 25" fill="none" xmlns="http://www.w3.org/2000/svg">
<path d="M17.1669 24.4526H3.04082L1.77051 23.9649V0.940465L3.04082 0.452637H17.1669C18.2894 0.452637 19.1994 1.32625 19.1994 2.40386V22.5014C19.1994 23.579 18.2894 24.4526 17.1669 24.4526V24.4526Z" fill="#E28086"/>
<path d="M1.00815 0.452637C0.727539 0.452637 0.5 0.671027 0.5 0.940465V23.9649C0.5 24.2342 0.727491 24.4526 1.00815 24.4526H3.04068V0.452637H1.00815Z" fill="#9DC6FB"/>
<path d="M17.1667 0.452637H16.0488C17.1714 0.452637 18.0814 1.32625 18.0814 2.40386V22.5014C18.0814 23.579 17.1714 24.4526 16.0488 24.4526H17.1667C18.2892 24.4526 19.1992 23.579 19.1992 22.5014V2.40386C19.1992 1.32625 18.2892 0.452637 17.1667 0.452637V0.452637Z" fill="#DD636E"/>
<path d="M5.68359 9.19762V4.10606C5.68359 3.82822 5.90878 3.60303 6.18661 3.60303H15.3432C15.621 3.60303 15.8462 3.82822 15.8462 4.10606V9.19758C15.8462 9.47541 15.621 9.7006 15.3432 9.7006H6.18661C5.90878 9.7006 5.68359 9.47541 5.68359 9.19762Z" fill="#F9F6F9"/>
<path d="M23.0446 23.1166L22.5302 24.0979C22.456 24.2393 22.2444 24.2393 22.1703 24.0979L21.6559 23.1166C21.4442 22.7129 21.334 22.2677 21.334 21.8163V3.60303H23.3665V21.8163C23.3665 22.2677 23.2563 22.7129 23.0446 23.1166Z" fill="#818181"/>
<path d="M22.5531 3.60303V21.8163C22.5531 22.2677 22.4429 22.7129 22.2313 23.1166L21.9434 23.6657L22.1699 24.0978C22.2441 24.2392 22.4557 24.2392 22.5298 24.0978L23.0443 23.1166C23.2559 22.7129 23.3661 22.2677 23.3661 21.8162V3.60303H22.5531Z" fill="#595959"/>
<path d="M21.837 0.452637H22.8635C23.1413 0.452637 23.3665 0.677833 23.3665 0.955665V3.60304H21.334V0.955665C21.334 0.677833 21.5593 0.452637 21.837 0.452637V0.452637Z" fill="#9DC6FB"/>
<path d="M22.5527 0.452637V3.60304H23.3657V0.955665C23.3657 0.677833 23.1405 0.452637 22.8627 0.452637L22.5527 0.452637Z" fill="#80B4FB"/>
<path d="M14.2195 5.66855H7.3089C7.10054 5.66855 6.93164 5.49966 6.93164 5.29131C6.93164 5.08296 7.10054 4.91406 7.3089 4.91406H14.2195C14.4279 4.91406 14.5967 5.08296 14.5967 5.29131C14.5967 5.49961 14.4279 5.66855 14.2195 5.66855Z" fill="#818181"/>
<path d="M14.2195 7.90927H7.3089C7.10054 7.90927 6.93164 7.74039 6.93164 7.53203C6.93164 7.32367 7.10054 7.15479 7.3089 7.15479H14.2195C14.4279 7.15479 14.5967 7.32367 14.5967 7.53203C14.5967 7.74039 14.4279 7.90927 14.2195 7.90927Z" fill="#818181"/>
<path d="M13.3043 20.235H8.22295C8.0146 20.235 7.8457 20.0661 7.8457 19.8577C7.8457 19.6494 8.0146 19.4805 8.22295 19.4805H13.3043C13.5126 19.4805 13.6815 19.6494 13.6815 19.8577C13.6815 20.0661 13.5126 20.235 13.3043 20.235Z" fill="#9DC6FB"/>
<path d="M13.3043 21.6793H8.22295C8.0146 21.6793 7.8457 21.5104 7.8457 21.3021C7.8457 21.0937 8.0146 20.9248 8.22295 20.9248H13.3043C13.5126 20.9248 13.6815 21.0937 13.6815 21.3021C13.6815 21.5104 13.5126 21.6793 13.3043 21.6793Z" fill="#9DC6FB"/>
</svg>
