<svg width="18" height="17" viewBox="0 0 18 17" fill="none" xmlns="http://www.w3.org/2000/svg">
<path d="M7.60606 0.246098C7.17754 0.246098 6.8087 0.565182 6.74658 0.988895L5.62077 9.81405C5.60362 9.94846 5.53528 10.071 5.42998 10.1563L4.31836 11.0564L6.26886 13.0379L8.23668 11.0701C8.39018 10.9165 8.47472 10.7125 8.47472 10.4954V1.11472C8.47472 0.635777 8.08504 0.246094 7.60606 0.246094V0.246098Z" fill="#A5A5A5"/>
<path d="M6.16428 14.4317L2.76991 10.9834L0.204846 12.9613C-0.040339 13.1504 -0.0700467 13.5092 0.140755 13.736L3.01829 16.8321C3.22195 17.0512 3.56716 17.0567 3.77758 16.844L6.16428 14.4317Z" fill="#A5A5A5"/>
<path d="M13.6818 11.0564L12.5701 10.1564C12.4648 10.0711 12.3965 9.94849 12.3793 9.81409L11.2535 0.988888C11.1914 0.565212 10.8226 0.246094 10.394 0.246094C9.91504 0.246094 9.52539 0.635773 9.52539 1.11475V10.4954C9.52539 10.7125 9.60992 10.9165 9.76343 11.0701L11.7313 13.0379L13.6818 11.0564Z" fill="#A5A5A5"/>
<path d="M15.2303 10.9834L11.8359 14.4317L14.2227 16.844C14.4331 17.0566 14.7783 17.0512 14.9819 16.8321L17.8595 13.736C18.0702 13.5092 18.0406 13.1504 17.7954 12.9613L15.2303 10.9834Z" fill="#A5A5A5"/>
</svg>
