<svg width="16" height="22" viewBox="0 0 16 22" fill="none" xmlns="http://www.w3.org/2000/svg">
<path d="M7.5863 11.0895C7.5863 10.2345 7.3753 9.40751 6.9703 8.69751L6.8743 8.52951H0.864297L0.770297 8.69751C0.366297 9.40651 0.154297 10.2345 0.154297 11.0895C0.154297 13.2705 1.5423 15.0775 3.3433 15.3765V20.4695C2.3043 20.5115 1.5303 20.6695 1.5303 20.8565C1.5303 21.0785 2.5853 21.2565 3.8873 21.2565C5.1903 21.2565 6.2473 21.0785 6.2473 20.8565C6.2473 20.6695 5.4733 20.5115 4.4343 20.4695V15.3725C6.2173 15.0545 7.5863 13.2545 7.5863 11.0895ZM3.8693 14.7555C2.1873 14.7555 0.817297 13.1115 0.817297 11.0875C0.817297 10.4135 0.968297 9.76251 1.2573 9.19151H6.4823C6.7703 9.76251 6.9233 10.4145 6.9233 11.0875C6.9243 13.1125 5.5523 14.7555 3.8693 14.7555ZM13.9493 2.91651H11.3063V0.624512H13.9493V2.91651ZM13.9493 5.75651V3.62151H11.3063V5.75751C10.1903 6.26051 9.4103 7.38251 9.4103 8.68851V10.7815V17.4545V21.3755H15.8443V17.4545V10.7815V8.68851C15.8453 7.38251 15.0673 6.26051 13.9493 5.75651ZM15.2763 18.1405H10.0353V11.8525H15.2763V18.1405ZM6.6463 11.1585C6.6463 11.1585 6.5073 14.4835 3.9143 14.4835C1.3213 14.4835 0.971297 11.1585 0.971297 11.1585H6.6463Z" fill="#A5A5A5"/>
</svg>
