<svg width="25" height="25" viewBox="0 0 25 25" fill="none" xmlns="http://www.w3.org/2000/svg">
<path d="M22.1337 12.8049C22.1337 12.452 22.1115 12.104 22.0687 11.7618C22.0136 11.3218 22.201 10.8855 22.5591 10.5933L24.033 9.39054C24.5332 8.98231 24.6456 8.29871 24.2995 7.77003L22.7231 5.36274C22.3769 4.83407 21.6723 4.61335 21.0528 4.83952L19.2155 5.51028C18.7708 5.67263 18.2709 5.61577 17.8748 5.36749C17.4491 5.10078 16.9993 4.86487 16.5291 4.66316C16.0964 4.47752 15.7857 4.11035 15.7036 3.67376L15.364 1.86673C15.2493 1.25693 14.6801 0.812012 14.0146 0.812012H10.9843C10.3188 0.812012 9.74957 1.25693 9.63499 1.86668L9.29536 3.67371C9.2133 4.1103 8.90259 4.47752 8.46987 4.66311C7.99963 4.86483 7.54982 5.10073 7.12418 5.36745C6.72797 5.61568 6.22815 5.67254 5.7835 5.51023L3.94608 4.83948C3.32658 4.61335 2.62198 4.83407 2.27582 5.3627L0.699468 7.76998C0.353313 8.29866 0.465715 8.98226 0.965985 9.39049L2.4399 10.5933C2.79794 10.8854 2.98538 11.3217 2.93026 11.7618C2.88739 12.104 2.86524 12.452 2.86524 12.8049C2.86524 13.1578 2.88744 13.5059 2.93026 13.8481C2.98538 14.2881 2.79794 14.7244 2.4399 15.0165L0.965985 16.2193C0.465715 16.6275 0.353313 17.3111 0.699468 17.8398L2.27582 20.2471C2.62198 20.7758 3.32663 20.9965 3.94608 20.7703L5.78344 20.0996C6.22815 19.9372 6.72797 19.9941 7.12413 20.2424C7.54977 20.5091 7.99958 20.745 8.46981 20.9467C8.90253 21.1323 9.21325 21.4995 9.29531 21.9361L9.63494 23.7431C9.74957 24.353 10.3188 24.6098 10.9843 24.6098H14.0146C14.6801 24.6098 15.2493 24.353 15.3639 23.7432L15.7035 21.9362C15.7856 21.4996 16.0963 21.1324 16.529 20.9468C16.9993 20.7451 17.4491 20.5092 17.8747 20.2425C18.2709 19.9942 18.7708 19.9374 19.2154 20.0997L21.0528 20.7704C21.6723 20.9966 22.3769 20.7758 22.723 20.2472L24.2994 17.8399C24.6455 17.3112 24.5331 16.6276 24.0329 16.2194L22.5589 15.0166C22.2009 14.7245 22.0135 14.2882 22.0686 13.8481C22.1116 13.5059 22.1337 13.1579 22.1337 12.8049L22.1337 12.8049Z" fill="url(#paint0_linear_3_39206)"/>
<ellipse cx="12.4998" cy="12.812" rx="7.87527" ry="6.98166" fill="url(#paint1_linear_3_39206)"/>
<path d="M14.0142 24.8121C14.6798 24.8121 15.2489 24.3338 15.3635 23.6782L15.7032 21.7355C15.7852 21.2661 16.0959 20.8713 16.5286 20.6718C16.9989 20.4549 17.4487 20.2013 17.8743 19.9146C18.2705 19.6477 18.7704 19.5865 19.215 19.761L21.0524 20.4822C21.6719 20.7253 22.3765 20.488 22.7226 19.9196L24.299 17.3316C24.6452 16.7632 24.5327 16.0283 24.0325 15.5894L22.5586 14.2963C22.2005 13.9822 22.0131 13.5131 22.0682 13.04C22.0939 12.8195 22.1112 12.5964 22.1217 12.3715L17.2677 7.51756C16.9657 7.19052 16.6306 6.89447 16.2675 6.63509C15.9743 6.42562 15.5666 6.63782 15.5666 6.99819V11.2815C15.5666 11.7242 15.3654 12.1377 15.0284 12.412C14.9648 12.3509 9.37709 6.77287 9.33052 6.71655C9.19078 6.54756 8.93144 6.59256 8.72705 6.73874C7.07869 7.91802 6.10698 9.74861 6.11085 11.9305C6.11419 13.8089 6.81172 15.497 8.08651 16.6789L9.48207 18.0794L9.53262 21.338C9.53262 22.1225 9.4994 22.9056 9.6345 23.6784C9.74919 24.3338 10.3184 24.8121 10.9839 24.8121H14.0142Z" fill="url(#paint2_linear_3_39206)"/>
<path d="M24.2984 17.3312L22.7224 19.9195C22.376 20.4879 21.6712 20.725 21.0518 20.4823L19.2143 19.7608C18.7699 19.5863 18.2698 19.6475 17.8739 19.9145C17.4482 20.2012 16.9981 20.455 16.5279 20.6719C16.0956 20.8711 15.7846 21.266 15.7027 21.7353L15.3629 23.6784C15.2481 24.3337 14.6793 24.6603 14.0139 24.6603H10.9831C10.6504 24.6603 10.342 24.541 10.1023 24.3393C9.97997 24.2366 9.87581 24.2644 9.79541 24.1244C9.99716 24.2407 10.2308 24.3064 10.4775 24.3064H13.5083C14.1737 24.3064 14.7425 23.8281 14.8573 23.1728C14.9245 22.7865 14.9756 22.3971 15.0095 22.0068C15.0434 21.6164 15.0606 21.2241 15.0606 20.8322V17.1325C17.0972 16.0378 18.4822 13.8868 18.4822 11.4128C18.4822 9.75179 17.8582 8.2364 16.8313 7.08862C16.9835 7.22414 17.1286 7.36722 17.2671 7.5174L22.1212 12.3715C22.1106 12.5965 22.0934 12.8194 22.0676 13.0399C22.0125 13.5132 22.2001 13.9819 22.5581 14.2964L24.032 15.5893C24.5321 16.0282 24.6448 16.7629 24.2984 17.3312Z" fill="url(#paint3_linear_3_39206)"/>
<path d="M15.3631 23.6781C15.4982 22.9053 15.5661 22.1223 15.5661 21.3377V15.9802H9.43115V21.3377C9.43115 22.1223 9.49905 22.9053 9.63416 23.6781C9.74878 24.3336 10.318 24.812 10.9835 24.812H14.0139C14.6794 24.812 15.2486 24.3336 15.3631 23.6781Z" fill="url(#paint4_linear_3_39206)"/>
<path d="M9.43115 17.64L15.378 23.5869C15.5028 22.8437 15.5661 22.0914 15.5661 21.3377V15.9802H9.43115V17.64Z" fill="url(#paint5_linear_3_39206)"/>
<path d="M18.9878 12.7401C18.9878 16.324 16.0825 19.2293 12.4986 19.2294C8.9147 19.2294 6.01565 16.3358 6.00929 12.7519C6.0054 10.5701 7.07824 8.63835 8.7266 7.45907C9.02117 7.24832 9.43084 7.45764 9.43084 7.81984V12.1031C9.43084 12.6239 9.70874 13.1053 10.1599 13.3658L11.7694 14.2952C12.2206 14.5557 12.7765 14.5557 13.2276 14.2952L14.8372 13.3658C15.2883 13.1054 15.5662 12.624 15.5662 12.1031V7.8197C15.5662 7.45938 15.9739 7.24716 16.2671 7.4566C17.9144 8.63354 18.9878 10.5616 18.9878 12.7401Z" fill="url(#paint6_linear_3_39206)"/>
<path d="M7.69682 13.4185C7.69682 14.234 8.13188 14.9875 8.83809 15.3953L11.3578 16.8501C12.0641 17.2579 12.9343 17.2579 13.6405 16.8501L16.1602 15.3953C16.8665 14.9875 17.3015 14.234 17.3015 13.4185V8.5083C16.9907 8.16655 16.6444 7.85767 16.2677 7.58846C15.9745 7.37898 15.5668 7.59119 15.5668 7.95156V12.2349C15.5668 12.7558 15.2889 13.2372 14.8378 13.4977L13.2282 14.427C12.7771 14.6875 12.2212 14.6875 11.7701 14.427L10.1605 13.4977C9.70935 13.2372 9.43146 12.7559 9.43146 12.2349V7.95171C9.43146 7.58946 9.02179 7.38019 8.7272 7.59094C8.35178 7.85953 8.00658 8.16756 7.69678 8.50826V13.4185H7.69682Z" fill="url(#paint7_linear_3_39206)"/>
<defs>
<linearGradient id="paint0_linear_3_39206" x1="19.6039" y1="19.4131" x2="5.99713" y2="19.4131" gradientUnits="userSpaceOnUse">
<stop stop-color="#7FAEF4"/>
<stop offset="1" stop-color="#4C8DF1"/>
</linearGradient>
<linearGradient id="paint1_linear_3_39206" x1="2.89945" y1="4.301" x2="21.3885" y2="4.301" gradientUnits="userSpaceOnUse">
<stop stop-color="#7FAEF4"/>
<stop offset="1" stop-color="#4C8DF1"/>
</linearGradient>
<linearGradient id="paint2_linear_3_39206" x1="4.71783" y1="11.3716" x2="13.6359" y2="11.3716" gradientUnits="userSpaceOnUse">
<stop stop-color="#4C8DF1" stop-opacity="0"/>
<stop offset="0.5631" stop-color="#466CC8" stop-opacity="0.564706"/>
<stop offset="1" stop-color="#4256AC"/>
</linearGradient>
<linearGradient id="paint3_linear_3_39206" x1="13.6462" y1="15.8242" x2="20.7756" y2="15.8242" gradientUnits="userSpaceOnUse">
<stop stop-color="#4C8DF1" stop-opacity="0"/>
<stop offset="0.5631" stop-color="#466CC8" stop-opacity="0.564706"/>
<stop offset="1" stop-color="#4256AC"/>
</linearGradient>
<linearGradient id="paint4_linear_3_39206" x1="16.1426" y1="23.5476" x2="12.273" y2="23.5476" gradientUnits="userSpaceOnUse">
<stop stop-color="#E3E5E4"/>
<stop offset="1" stop-color="#CBD0E4"/>
</linearGradient>
<linearGradient id="paint5_linear_3_39206" x1="11.8205" y1="15.2753" x2="14.3824" y2="15.2753" gradientUnits="userSpaceOnUse">
<stop stop-color="#CBD0E4" stop-opacity="0"/>
<stop offset="1" stop-color="#6A7D83"/>
</linearGradient>
<linearGradient id="paint6_linear_3_39206" x1="18.5949" y1="18.8382" x2="10.1212" y2="18.8382" gradientUnits="userSpaceOnUse">
<stop stop-color="#E3E5E4"/>
<stop offset="1" stop-color="#CBD0E4"/>
</linearGradient>
<linearGradient id="paint7_linear_3_39206" x1="6.49464" y1="5.42638" x2="16.1018" y2="5.42638" gradientUnits="userSpaceOnUse">
<stop stop-color="#E3E5E4"/>
<stop offset="1" stop-color="#CBD0E4"/>
</linearGradient>
</defs>
</svg>
