<svg width="25" height="26" viewBox="0 0 25 26" fill="none" xmlns="http://www.w3.org/2000/svg">
<path d="M22.3094 25.3825H3.1881C2.6872 25.3825 2.28125 24.9765 2.28125 24.4756V9.854H23.2164V24.4756C23.2164 24.9765 22.8103 25.3825 22.3094 25.3825H22.3094Z" fill="#FFC73B"/>
<path d="M2.28125 9.854H23.2164V12.8966H2.28125V9.854Z" fill="#EFB025"/>
<path d="M24.9977 6.68186V10.4513C24.9977 10.8539 24.671 11.1801 24.2684 11.1801H1.22874C0.826147 11.1801 0.5 10.8539 0.5 10.4513V6.68186C0.5 6.27927 0.826146 5.95312 1.22874 5.95312H24.2684C24.671 5.95312 24.9977 6.27927 24.9977 6.68186Z" fill="#FFC73B"/>
<path d="M11.9159 7.68622C11.7569 7.87143 11.6008 8.05927 11.4485 8.24916C10.8809 8.95546 10.3613 9.6956 9.89158 10.4638C9.74711 10.7 9.60767 10.9387 9.47236 11.1802H4.50391C4.79417 10.5215 5.11246 9.87503 5.4573 9.24312C6.08268 8.09665 6.79627 6.99654 7.5936 5.95325C7.78406 5.7041 7.979 5.45795 8.17879 5.21555C8.29842 5.06938 8.42009 4.92528 8.54344 4.78174C8.99687 5.17236 9.44992 5.56262 9.90353 5.95325C9.97381 6.01343 10.0441 6.07436 10.1142 6.13474C10.6495 6.59564 11.1848 7.05635 11.7199 7.51782C11.7855 7.57352 11.8505 7.63014 11.9159 7.68622H11.9159Z" fill="#EFB025"/>
<path d="M19.3292 11.1802H14.3603C14.2256 10.9387 14.0856 10.7 13.9411 10.4638C13.4714 9.69562 12.9513 8.95547 12.3842 8.24918C12.2313 8.05928 12.0752 7.87143 11.916 7.68622C11.9816 7.63014 12.0466 7.57388 12.1122 7.51782C12.6479 7.05635 13.1832 6.59508 13.7183 6.13474C13.7886 6.07437 13.8589 6.01343 13.9291 5.95325C14.3826 5.56262 14.8362 5.17236 15.2892 4.78174C15.4126 4.92491 15.5343 5.06938 15.6539 5.21516C15.854 5.45795 16.0492 5.7041 16.2391 5.95325C17.0364 6.99654 17.75 8.09666 18.3757 9.24312C18.7206 9.87503 19.0389 10.5215 19.3291 11.1802L19.3292 11.1802Z" fill="#EFB025"/>
<path d="M12.7483 7.68639C12.589 7.87142 12.4329 8.05927 12.2806 8.24915C11.7132 8.95546 11.1934 9.69559 10.7237 10.464C9.23261 12.9014 8.24221 15.6242 7.82447 18.4741C7.19667 17.6414 6.61727 16.7405 6.096 15.7772C5.17905 16.3753 4.28286 17.0594 3.41992 17.829C3.86307 14.8061 4.83945 11.9005 6.28963 9.24311C7.06415 7.82302 7.97438 6.47377 9.01094 5.21554C9.13056 5.06937 9.25223 4.92547 9.37559 4.78174C9.89929 5.23273 10.4226 5.68373 10.9465 6.13472C11.4816 6.59563 12.0169 7.05634 12.5522 7.51781C12.6176 7.5735 12.6827 7.63013 12.7482 7.68639L12.7483 7.68639Z" fill="#FF4440"/>
<path d="M22.0768 17.8291C21.2138 17.0594 20.3176 16.3753 19.4007 15.7772C18.8794 16.7405 18.3 17.6414 17.6722 18.4741C17.2545 15.6242 16.2643 12.9013 14.773 10.464C14.3033 9.6956 13.7831 8.95547 13.216 8.24916C13.0631 8.05927 12.9071 7.87143 12.748 7.6864C12.8134 7.63014 12.8785 7.57388 12.9441 7.51781C13.4798 7.05635 14.015 6.59507 14.5503 6.13473C15.0741 5.68317 15.5979 5.23273 16.1211 4.78174C16.2444 4.9249 16.3661 5.06938 16.4857 5.21516C17.5225 6.4734 18.4327 7.82265 19.2076 9.24312C20.6574 11.9005 21.6336 14.8061 22.0768 17.829V17.8291Z" fill="#FF4440"/>
<path d="M10.7979 7.68652H14.6987V11.1801H10.7979V7.68652Z" fill="#FF4440"/>
<path d="M19.2076 9.24329L14.7729 10.4641C14.3033 9.69578 13.7831 8.95564 13.2161 8.24933L12.9441 7.51797L12.748 6.99054L14.5504 6.1349L16.4857 5.21533C17.5225 6.47356 18.4327 7.82281 19.2076 9.24328V9.24329Z" fill="#EA2F2F"/>
<path d="M12.7477 6.99065L12.5516 7.51809L12.2801 8.24944C11.7126 8.95575 11.1928 9.69589 10.7232 10.4642L6.28906 9.2434C7.06359 7.82331 7.97381 6.47406 9.01038 5.21582L10.9459 6.13502L12.7477 6.99065Z" fill="#EA2F2F"/>
<path d="M19.8255 1.07036L12.748 4.43144L14.1076 8.08782L21.6618 6.00853C22.6498 5.73659 23.1926 4.67628 22.8354 3.71579L22.2119 2.03927C21.8549 1.07877 20.7512 0.630766 19.8255 1.07036V1.07036Z" fill="#FF4440"/>
<path d="M5.67065 1.07036L12.7481 4.43144L11.3886 8.08782L3.83452 6.00853C2.84654 5.73659 2.30378 4.67628 2.66095 3.71579L3.28427 2.03927C3.64144 1.07877 4.74492 0.630766 5.67065 1.07036L5.67065 1.07036Z" fill="#FF4440"/>
<path d="M14.4384 5.90073C14.3098 5.90073 14.1836 5.83718 14.1094 5.72074C13.9933 5.53926 14.0462 5.29815 14.2277 5.18209C14.2813 5.14788 15.556 4.33672 17.0195 3.7448C19.1292 2.8914 20.5381 2.93719 21.2065 3.88087C21.3311 4.05674 21.2895 4.30027 21.1136 4.42475C20.9377 4.54923 20.6944 4.50774 20.5699 4.33187C19.6638 3.0527 15.8964 5.04172 14.648 5.83942C14.583 5.88091 14.5103 5.90073 14.4383 5.90073L14.4384 5.90073Z" fill="#EA2F2F"/>
<path d="M11.0197 5.90073C10.9478 5.90073 10.875 5.88092 10.81 5.83942C9.56169 5.04172 5.79428 3.0527 4.88816 4.33186C4.76349 4.50774 4.52014 4.54923 4.34426 4.42476C4.16858 4.30009 4.1269 4.05675 4.25156 3.88087C4.91993 2.9372 6.32862 2.8914 8.43856 3.7448C9.90201 4.33654 11.1767 5.14788 11.2303 5.18209C11.4118 5.29816 11.4647 5.53926 11.3488 5.72074C11.2743 5.83718 11.1483 5.90073 11.0197 5.90073H11.0197Z" fill="#EA2F2F"/>
<path d="M13.8586 3.1748H11.639C11.0315 3.1748 10.5391 3.66729 10.5391 4.27492V7.49955C10.5391 8.10717 11.0315 8.59967 11.639 8.59967H13.8586C14.4661 8.59967 14.9586 8.10717 14.9586 7.49955V4.27492C14.9586 3.66729 14.4661 3.1748 13.8586 3.1748Z" fill="#EA2F2F"/>
<path d="M10.7988 11.1802H14.6997V25.3824H10.7988V11.1802Z" fill="#FF4440"/>
<path d="M10.7988 11.1802H14.6997V12.8965H10.7988V11.1802Z" fill="#EA2F2F"/>
</svg>
