<svg id="Layer_2" data-name="Layer 2" xmlns="http://www.w3.org/2000/svg" width="24" height="24" viewBox="0 0 24 24">
  <g id="alert-circle">
    <rect id="Rectangle_19" data-name="Rectangle 19" width="24" height="24" fill="#a5a5a5" opacity="0"/>
    <path id="Path_43" data-name="Path 43" d="M12,2A10,10,0,1,0,22,12,10,10,0,0,0,12,2Zm0,18a8,8,0,1,1,8-8A8,8,0,0,1,12,20Z" fill="#a5a5a5"/>
    <circle id="Ellipse_6" data-name="Ellipse 6" cx="1" cy="1" r="1" transform="translate(11 15)" fill="#a5a5a5"/>
    <path id="Path_44" data-name="Path 44" d="M12,7a1,1,0,0,0-1,1v5a1,1,0,0,0,2,0V8A1,1,0,0,0,12,7Z" fill="#a5a5a5"/>
  </g>
</svg>
