<svg width="23" height="23" viewBox="0 0 23 23" fill="none" xmlns="http://www.w3.org/2000/svg">
<path d="M3.61006 22.1581C3.76002 22.3076 3.76002 22.55 3.61006 22.7C3.46029 22.8498 3.21738 22.8492 3.06819 22.7C2.72161 22.3534 0.430524 20.0623 0.112111 19.7439C-0.0373702 19.5944 -0.0373702 19.3515 0.112111 19.2021C0.262071 19.0526 0.504498 19.0526 0.654458 19.2021L1.06074 19.6083L3.27722 17.3919C3.4269 17.2422 3.66961 17.2422 3.81928 17.3919L5.6052 19.1778C5.75487 19.3274 5.75487 19.5702 5.6052 19.7198L3.38871 21.9363L3.61006 22.1581ZM22.8849 0.112111C22.735 -0.0373703 22.4926 -0.0373703 22.3426 0.112111L16.2335 6.22166L16.0936 6.08176C15.5925 5.58062 14.7804 5.58062 14.2793 6.08176L14.2131 6.14788C14.0632 6.29784 14.0632 6.54075 14.2136 6.69023C14.7215 7.19568 15.8014 8.27607 16.3063 8.78296C16.4558 8.9334 16.6987 8.93388 16.8487 8.78392L16.9153 8.71732C17.4121 8.22145 17.4207 7.40936 16.9153 6.90343L16.7754 6.76353L22.8849 0.653978C23.0344 0.504497 23.0344 0.26207 22.8849 0.11211L22.8849 0.112111ZM15.9453 9.50516L13.4748 7.0347C13.0264 6.58626 12.2967 6.58626 11.8488 7.0347L3.73942 15.144L3.27133 14.676C3.12185 14.526 2.87895 14.526 2.72946 14.676C2.5795 14.8254 2.5795 15.0683 2.72946 15.2178L7.77923 20.2676C7.92967 20.418 8.17253 20.4162 8.3211 20.2676C8.47058 20.1176 8.47058 19.8752 8.3211 19.7257L7.85302 19.2576L9.96132 17.1493C10.111 16.9997 10.111 16.757 9.96132 16.6073L9.08753 15.7335C8.93781 15.5838 8.93781 15.3411 9.08753 15.1915C9.23725 15.0418 9.47991 15.0418 9.62954 15.1915L10.5033 16.0653C10.653 16.2149 10.8957 16.2149 11.0454 16.0653L13.1282 13.9825C13.2779 13.8328 13.2779 13.5901 13.1282 13.4404L11.7753 12.0875C11.6229 11.935 11.6257 11.6861 11.7837 11.5372C11.9365 11.3934 12.1803 11.4084 12.3287 11.5568L13.6702 12.8983C13.8199 13.048 14.0626 13.048 14.2123 12.8983L15.9623 11.1483C16.4055 10.7051 16.423 9.98288 15.9453 9.50516L15.9453 9.50516ZM22.5831 7.09986L21.4366 5.68267C21.283 5.49265 20.9935 5.49347 20.8406 5.68267L19.6941 7.09986C18.705 8.32196 19.5896 10.1268 21.1386 10.1268C22.6896 10.1268 23.5705 8.31995 22.5831 7.09986Z" fill="#A5A5A5"/>
</svg>
