<svg width="25" height="19" viewBox="0 0 25 19" fill="none" xmlns="http://www.w3.org/2000/svg">
<path d="M4.76562 14.4219V18.6406H20.2343V14.4219H4.76562Z" fill="#FF9F00"/>
<path d="M12.5 14.4219H20.2343V18.6406H12.5V14.4219Z" fill="#FF7816"/>
<path d="M20.3046 8.29057L19.1655 10.5123H5.8344L4.69531 8.29057C6.36869 5.97027 9.27969 4.57812 12.4999 4.57812C15.7202 4.57812 18.6312 5.97027 20.3046 8.29057H20.3046Z" fill="#FF4B00"/>
<path d="M20.3046 8.29057L19.1655 10.5124H12.5V4.57812C15.7202 4.57812 18.6313 5.97027 20.3046 8.29056V8.29057Z" fill="#CC1E0D"/>
<path d="M22.8639 6.88422L20.2341 15.828H4.76548L2.13574 6.88422L3.90765 6.2093C4.70927 7.74206 6.24204 8.64203 7.49355 8.79675H8.22487C9.84204 8.54369 11.0513 6.06868 11.5436 3.70605H13.4562C13.9483 6.06866 15.1578 8.54367 16.7747 8.79675H17.5061C18.7576 8.64203 20.2903 7.74206 21.092 6.2093L22.8639 6.88422Z" fill="#FDBF00"/>
<path d="M22.864 6.8842L20.2343 15.8279H12.5V3.70605H13.4561C13.9485 6.06864 15.1577 8.54365 16.7749 8.79673H17.5062C18.7578 8.64201 20.2905 7.74206 21.0922 6.20929L22.864 6.8842Z" fill="#FF9F00"/>
<path d="M2.65623 7.3906C1.49316 7.3906 0.5 6.44431 0.5 5.28123C0.5 4.11816 1.49316 3.17188 2.65623 3.17188C3.81931 3.17188 4.76559 4.11816 4.76559 5.28123C4.76559 6.44431 3.81931 7.3906 2.65623 7.3906Z" fill="#FF9F00"/>
<path d="M22.3438 7.3906C21.1807 7.3906 20.2344 6.44431 20.2344 5.28123C20.2344 4.11816 21.1807 3.17188 22.3438 3.17188C23.5068 3.17188 24.5 4.11816 24.5 5.28123C24.5 6.44431 23.5068 7.3906 22.3438 7.3906Z" fill="#FF7816"/>
<path d="M12.5 0.359375C11.3327 0.359375 10.3906 1.30145 10.3906 2.46873C10.3906 3.63584 11.3327 4.57809 12.5 4.57809C13.6673 4.57809 14.6093 3.63584 14.6093 2.46873C14.6093 1.30145 13.6673 0.359375 12.5 0.359375Z" fill="#FF9F00"/>
<path d="M12.5004 8.50146L10.0957 10.9062L12.5004 13.3109L14.9051 10.9062L12.5004 8.50146Z" fill="#FF4B00"/>
<path d="M16.7188 11.3179L17.7131 12.3121L16.7188 13.3064L15.7246 12.3121L16.7188 11.3179Z" fill="#CC1E0D"/>
<path d="M8.28136 11.3179L9.27562 12.3121L8.28136 13.3064L7.28711 12.3121L8.28136 11.3179Z" fill="#FF4B00"/>
<path d="M12.5 4.57809V0.359375C13.6673 0.359375 14.6093 1.30145 14.6093 2.46873C14.6093 3.63584 13.6673 4.57809 12.5 4.57809Z" fill="#FF7816"/>
<path d="M14.9047 10.9062L12.5 13.3109V8.50146L14.9047 10.9062Z" fill="#CC1E0D"/>
</svg>
