<svg xmlns="http://www.w3.org/2000/svg" width="251.557" height="187.44" viewBox="0 0 251.557 187.44">
  <g id="Forgot_password-rafiki" data-name="Forgot password-rafiki" transform="translate(0 -55)">
    <g id="freepik--background-complete--inject-1" transform="translate(0 55)">
      <rect id="Rectangle_187" data-name="Rectangle 187" width="251.557" height="0.126" transform="translate(0 164.719)" fill="#ebebeb"/>
      <rect id="Rectangle_188" data-name="Rectangle 188" width="12.809" height="0.126" transform="translate(146.009 168.146)" fill="#ebebeb"/>
      <rect id="Rectangle_189" data-name="Rectangle 189" width="30.353" height="0.126" transform="translate(198.785 170.867)" fill="#ebebeb"/>
      <rect id="Rectangle_190" data-name="Rectangle 190" width="31.359" height="0.126" transform="translate(111.923 168.206)" fill="#ebebeb"/>
      <rect id="Rectangle_191" data-name="Rectangle 191" width="6.561" height="0.126" transform="translate(85.026 171.969)" fill="#ebebeb"/>
      <rect id="Rectangle_192" data-name="Rectangle 192" width="29.875" height="0.126" transform="translate(97.961 171.969)" fill="#ebebeb"/>
      <rect id="Rectangle_193" data-name="Rectangle 193" width="19.345" height="0.126" transform="translate(26.393 169.846)" fill="#ebebeb"/>
      <path id="Path_945" data-name="Path 945" d="M138.224,197.281H41.078a2.873,2.873,0,0,1-2.868-2.873V57.848A2.873,2.873,0,0,1,41.078,55h97.146a2.873,2.873,0,0,1,2.873,2.873V194.408A2.873,2.873,0,0,1,138.224,197.281ZM41.078,55.1a2.747,2.747,0,0,0-2.742,2.747v136.56a2.747,2.747,0,0,0,2.742,2.747h97.146a2.752,2.752,0,0,0,2.747-2.747V57.848a2.752,2.752,0,0,0-2.747-2.747Z" transform="translate(-18.986 -55)" fill="#ebebeb"/>
      <path id="Path_946" data-name="Path 946" d="M354.524,197.281H257.373a2.878,2.878,0,0,1-2.873-2.873V57.848A2.878,2.878,0,0,1,257.373,55h97.151a2.873,2.873,0,0,1,2.863,2.848v136.56A2.873,2.873,0,0,1,354.524,197.281ZM257.373,55.1a2.752,2.752,0,0,0-2.747,2.747v136.56a2.752,2.752,0,0,0,2.747,2.747h97.151a2.752,2.752,0,0,0,2.747-2.747V57.848a2.752,2.752,0,0,0-2.747-2.747Z" transform="translate(-126.458 -55)" fill="#ebebeb"/>
      <path id="Path_947" data-name="Path 947" d="M160.964,272.565H127.558L125.53,249.17h33.407Z" transform="translate(-62.374 -151.48)" fill="#e6e6e6"/>
      <path id="Path_948" data-name="Path 948" d="M164.4,272.565H131L128.97,249.17h33.407Z" transform="translate(-64.083 -151.48)" fill="#f0f0f0"/>
      <path id="Path_949" data-name="Path 949" d="M140.977,272.5,139.86,259.15h23.36l1.117,13.348Z" transform="translate(-69.495 -156.439)" fill="#fff"/>
      <rect id="Rectangle_194" data-name="Rectangle 194" width="3.919" height="43.635" transform="translate(102.182 121.084)" fill="#e6e6e6"/>
      <rect id="Rectangle_195" data-name="Rectangle 195" width="2.722" height="43.635" transform="translate(104.617 121.084)" fill="#f0f0f0"/>
      <rect id="Rectangle_196" data-name="Rectangle 196" width="37.94" height="4.815" transform="translate(107.339 125.899) rotate(180)" fill="#f0f0f0"/>
      <rect id="Rectangle_197" data-name="Rectangle 197" width="3.919" height="38.82" transform="translate(66.819 125.899)" fill="#e6e6e6"/>
      <rect id="Rectangle_198" data-name="Rectangle 198" width="2.722" height="38.82" transform="translate(69.254 125.899)" fill="#f0f0f0"/>
      <rect id="Rectangle_199" data-name="Rectangle 199" width="3.919" height="38.82" transform="translate(38.921 125.899)" fill="#e6e6e6"/>
      <rect id="Rectangle_200" data-name="Rectangle 200" width="2.722" height="38.82" transform="translate(41.356 125.899)" fill="#f0f0f0"/>
      <rect id="Rectangle_201" data-name="Rectangle 201" width="3.919" height="38.82" transform="translate(77.379 125.899)" fill="#e6e6e6"/>
      <rect id="Rectangle_202" data-name="Rectangle 202" width="2.722" height="38.82" transform="translate(79.809 125.899)" fill="#f0f0f0"/>
      <rect id="Rectangle_203" data-name="Rectangle 203" width="30.479" height="4.815" transform="translate(38.921 121.084)" fill="#e6e6e6"/>
      <rect id="Rectangle_204" data-name="Rectangle 204" width="117.895" height="65.636" transform="translate(65.158 12.281)" fill="#e0e0e0"/>
      <rect id="Rectangle_205" data-name="Rectangle 205" width="123.776" height="65.636" transform="translate(65.752 12.281)" fill="#f5f5f5"/>
      <rect id="Rectangle_206" data-name="Rectangle 206" width="61.591" height="119.731" transform="translate(187.505 14.304) rotate(90)" fill="#fff"/>
      <path id="Path_950" data-name="Path 950" d="M194.226,145.021l22.6-61.591H179.525l-22.6,61.591Z" transform="translate(-77.971 -69.126)" fill="#f5f5f5"/>
      <path id="Path_951" data-name="Path 951" d="M274.644,145.021l22.6-61.591H269.1l-22.6,61.591Z" transform="translate(-122.482 -69.126)" fill="#f5f5f5"/>
      <rect id="Rectangle_207" data-name="Rectangle 207" width="10.022" height="62.688" transform="translate(210.397 102.031)" fill="#e6e6e6"/>
      <path id="Path_952" data-name="Path 952" d="M430.142,377.635h2.636V372.81h-5.4Z" transform="translate(-212.359 -212.915)" fill="#fafafa"/>
      <rect id="Rectangle_208" data-name="Rectangle 208" width="10.022" height="62.688" transform="translate(117.995 102.031)" fill="#e6e6e6"/>
      <rect id="Rectangle_209" data-name="Rectangle 209" width="94.701" height="61.385" transform="translate(125.718 102.031)" fill="#fafafa"/>
      <path id="Path_953" data-name="Path 953" d="M344.564,280.047H253.45V262.71h91.114Zm-90.611-.5h90.108V263.213H253.953Z" transform="translate(-125.936 -158.208)" fill="#e6e6e6"/>
      <path id="Path_954" data-name="Path 954" d="M338.984,273.274H281.715c-2.656,0-5.217-2.143-7.044-5.886l-.171-.357h71.694l-.171.357C344.181,271.13,341.666,273.274,338.984,273.274Zm-63.659-5.756c1.7,3.336,4.025,5.237,6.39,5.237h57.269c2.375,0,4.689-1.9,6.39-5.237Z" transform="translate(-136.395 -160.355)" fill="#e6e6e6"/>
      <path id="Path_955" data-name="Path 955" d="M252.516,377.635H249.88V372.81h5.4Z" transform="translate(-124.162 -212.915)" fill="#fafafa"/>
      <path id="Path_956" data-name="Path 956" d="M344.564,318.9H253.45V301.58h91.114Zm-90.611-.5h90.108V302.083H253.953Z" transform="translate(-125.936 -177.522)" fill="#e6e6e6"/>
      <path id="Path_957" data-name="Path 957" d="M338.984,312.139H281.715c-2.656,0-5.217-2.148-7.044-5.886l-.171-.362h71.694l-.171.362C344.181,309.97,341.666,312.139,338.984,312.139Zm-63.659-5.746c1.7,3.336,4.025,5.242,6.39,5.242h57.269c2.375,0,4.689-1.907,6.39-5.242Z" transform="translate(-136.395 -179.664)" fill="#e6e6e6"/>
      <path id="Path_958" data-name="Path 958" d="M344.564,357.777H253.45V340.44h91.114Zm-90.611-.5h90.108V340.943H253.953Z" transform="translate(-125.936 -196.831)" fill="#e6e6e6"/>
      <path id="Path_959" data-name="Path 959" d="M338.984,351H281.715c-2.656,0-5.217-2.143-7.044-5.881l-.171-.362h71.694l-.171.362C344.181,348.86,341.666,351,338.984,351Zm-63.659-5.741c1.7,3.336,4.025,5.237,6.39,5.237h57.269c2.375,0,4.689-1.9,6.39-5.237Z" transform="translate(-136.395 -198.978)" fill="#e6e6e6"/>
      <path id="Path_960" data-name="Path 960" d="M108.816,274.28V275.5h-.775l-.644,9.544H97.919L97.28,275.5H96.5V274.28Z" transform="translate(-47.95 -163.957)" fill="#e6e6e6"/>
      <path id="Path_961" data-name="Path 961" d="M84.743,216.358c-.775-5.685-8.447-7.305-18.183-7.517-9.262-.2-12.231-3.471-12.231-3.471s.03,13.267,13.378,18.077C80.381,228.005,85.523,222.053,84.743,216.358Z" transform="translate(-26.996 -129.717)" fill="#e6e6e6"/>
      <path id="Path_962" data-name="Path 962" d="M105.358,246.271c.161-2.334,3.894-6.631,12.875-4.679,6.49,1.414,8.905-1.952,8.905-1.952a14.391,14.391,0,0,1-10.364,12.351C107.5,254.7,105.071,250.387,105.358,246.271Z" transform="translate(-52.34 -146.745)" fill="#e6e6e6"/>
      <path id="Path_963" data-name="Path 963" d="M106.93,253.139a.347.347,0,0,0,.267-.121c.649-.77.116-2.611-.619-5.162-.946-3.27-2.123-7.345-1.127-10.3a41.427,41.427,0,0,1,1.932-4.568c1.409-2.978,2.626-5.534,1.61-8.241a.347.347,0,1,0-.649.247c.911,2.41-.191,4.744-1.59,7.7a43.061,43.061,0,0,0-1.962,4.639c-1.062,3.16.146,7.35,1.117,10.711.574,2.012,1.167,4.025.76,4.528a.342.342,0,0,0,.04.5A.332.332,0,0,0,106.93,253.139Z" transform="translate(-51.864 -139.235)" fill="#e6e6e6"/>
    </g>
    <g id="freepik--Shadow--inject-1" transform="translate(28.23 231.05)">
      <ellipse id="freepik--path--inject-1" cx="97.549" cy="5.695" rx="97.549" ry="5.695" fill="#f5f5f5"/>
    </g>
    <g id="freepik--Login--inject-1" transform="translate(50.407 90.515)">
      <path id="Path_964" data-name="Path 964" d="M175.541,247.576H104.1l-3.909-114.9h71.442Z" transform="translate(-100.19 -129.113)" fill="#59d6d6"/>
      <path id="Path_965" data-name="Path 965" d="M182.626,240.486H111.184l-3.914-114.9h71.442Z" transform="translate(-103.708 -125.59)" fill="#59d6d6"/>
      <path id="Path_966" data-name="Path 966" d="M182.626,240.486H111.184l-3.914-114.9h71.442Z" transform="translate(-103.708 -125.59)" fill="#fff" opacity="0.3"/>
      <ellipse id="Ellipse_113" data-name="Ellipse 113" cx="19.757" cy="20.442" rx="19.757" ry="20.442" transform="matrix(0.701, -0.713, 0.713, 0.701, 11.976, 32.708)" fill="#59d6d6"/>
      <path id="Path_967" data-name="Path 967" d="M180.7,174.692a16.1,16.1,0,0,1-1.736,7.9,15.893,15.893,0,0,1-14.288,8.684,17.237,17.237,0,0,1-14.872-8.684,16.849,16.849,0,0,1-2.274-7.9,15.918,15.918,0,0,1,16.019-16.6A17.287,17.287,0,0,1,180.7,174.692Z" transform="translate(-123.703 -141.738)" fill="#fff"/>
      <path id="Path_968" data-name="Path 968" d="M181.2,202.422a15.893,15.893,0,0,1-14.288,8.684,17.237,17.237,0,0,1-14.872-8.684A25.453,25.453,0,0,1,166.479,198a26.907,26.907,0,0,1,14.721,4.422Z" transform="translate(-125.954 -161.569)" fill="#59d6d6" opacity="0.6"/>
      <ellipse id="Ellipse_114" data-name="Ellipse 114" cx="7.265" cy="7.517" rx="7.265" ry="7.517" transform="matrix(0.701, -0.713, 0.713, 0.701, 29.759, 27.182)" fill="#59d6d6" opacity="0.6"/>
      <path id="Path_969" data-name="Path 969" d="M183.209,262.316H137.637l-.307-9.056H182.9Z" transform="translate(-118.644 -189.027)" fill="#fff"/>
      <path id="Path_970" data-name="Path 970" d="M184.3,294.486H138.727l-.307-9.056H184Z" transform="translate(-119.186 -205.012)" fill="#fff"/>
      <path id="Path_971" data-name="Path 971" d="M183.143,287.9l-10.983,1.509a.765.765,0,0,0-.664.906l1.444,7.361a.886.886,0,0,0,.976.689l10.983-1.509a.77.77,0,0,0,.659-.911l-1.439-7.361a.88.88,0,0,0-.976-.684Zm-3.155,7.456-2.012.267-.2-2.375a1.409,1.409,0,0,1-.82-1.006,1.253,1.253,0,0,1,1.087-1.509,1.439,1.439,0,0,1,1.59,1.122,1.233,1.233,0,0,1-.392,1.172Z" transform="translate(-135.614 -206.237)" fill="#59d6d6"/>
      <path id="Path_972" data-name="Path 972" d="M182.5,281.124h0a.785.785,0,0,1-.865-.609l-.141-.719a4.141,4.141,0,0,0-4.337-3.3,3.522,3.522,0,0,0-3.25,4.221l.161.83a.674.674,0,0,1-.589.8h0a.775.775,0,0,1-.865-.609l-.136-.7a4.956,4.956,0,0,1,4.025-5.912,5.635,5.635,0,0,1,6.44,4.362l.161.825a.674.674,0,0,1-.6.8Z" transform="translate(-136.054 -199.857)" fill="#59d6d6"/>
      <path id="Path_973" data-name="Path 973" d="M185.175,322.817H155.506l-.2-5.9h29.664Z" transform="translate(-127.578 -220.659)" fill="#59d6d6"/>
      <path id="Path_974" data-name="Path 974" d="M182.944,260.625a1.59,1.59,0,0,1-1.6,1.655,1.731,1.731,0,0,1-1.716-1.655,1.59,1.59,0,0,1,1.6-1.655A1.726,1.726,0,0,1,182.944,260.625Z" transform="translate(-139.661 -191.865)" fill="#263238"/>
      <path id="Path_975" data-name="Path 975" d="M168.729,260.625a1.585,1.585,0,0,1-1.6,1.655,1.726,1.726,0,0,1-1.711-1.655,1.59,1.59,0,0,1,1.6-1.655A1.721,1.721,0,0,1,168.729,260.625Z" transform="translate(-132.601 -191.865)" fill="#263238"/>
      <path id="Path_976" data-name="Path 976" d="M154.6,260.625a1.59,1.59,0,0,1-1.6,1.655,1.721,1.721,0,0,1-1.711-1.655,1.59,1.59,0,0,1,1.6-1.655A1.721,1.721,0,0,1,154.6,260.625Z" transform="translate(-125.58 -191.865)" fill="#263238"/>
      <path id="Path_977" data-name="Path 977" d="M197.12,260.64a1.59,1.59,0,0,1-1.6,1.655,1.721,1.721,0,0,1-1.711-1.655,1.585,1.585,0,0,1,1.6-1.64A1.721,1.721,0,0,1,197.12,260.64Z" transform="translate(-146.708 -191.879)" fill="#263238"/>
      <path id="Path_978" data-name="Path 978" d="M211.289,260.625a1.585,1.585,0,0,1-1.6,1.655,1.726,1.726,0,0,1-1.711-1.655,1.59,1.59,0,0,1,1.6-1.655A1.721,1.721,0,0,1,211.289,260.625Z" transform="translate(-153.748 -191.865)" fill="#263238"/>
    </g>
    <g id="freepik--Character--inject-1" transform="translate(139.021 91.501)">
      <path id="Path_979" data-name="Path 979" d="M329.373,174.28c.669,1.077,1.228,2.1,1.8,3.175s1.092,2.148,1.6,3.25a46.464,46.464,0,0,1,2.566,6.908c.091.3.156.614.231.921l.111.468.055.231.065.382a6.883,6.883,0,0,1-.156,2.6,14.711,14.711,0,0,1-1.57,3.748,29.8,29.8,0,0,1-4.468,5.851l-2.118-1.6a56.047,56.047,0,0,0,2.833-6.037,12.509,12.509,0,0,0,.77-2.833,2.243,2.243,0,0,0-.04-.891l-.2-.614c-.081-.252-.156-.5-.252-.76A57.05,57.05,0,0,0,327.95,183c-1.006-2.012-2.088-4.025-3.17-5.947Z" transform="translate(-300.4 -150.77)" fill="#ff8b7b"/>
      <path id="Path_980" data-name="Path 980" d="M328.954,224.43l-2.314,1.223,2.656,3.109a4.122,4.122,0,0,0,1.736-2.833Z" transform="translate(-301.324 -175.688)" fill="#ff8b7b"/>
      <path id="Path_981" data-name="Path 981" d="M320.47,228.777l2.843,2.259,2.918-1.067-2.656-3.109Z" transform="translate(-298.258 -176.896)" fill="#ff8b7b"/>
      <path id="Path_982" data-name="Path 982" d="M300.48,140.984c-.055.282-.252.478-.433.443s-.287-.3-.231-.574.252-.5.438-.443S300.535,140.7,300.48,140.984Z" transform="translate(-287.988 -133.935)" fill="#263238"/>
      <path id="Path_983" data-name="Path 983" d="M298.9,142.52a10.194,10.194,0,0,1-1.821,2.123,1.655,1.655,0,0,0,1.288.5Z" transform="translate(-286.636 -134.988)" fill="#ff5652"/>
      <path id="Path_984" data-name="Path 984" d="M298.9,158.88v-3.3l4.367.5s-.07,2.838-2.516,3.673Z" transform="translate(-287.54 -141.478)" fill="#ff8b7b"/>
      <path id="Path_985" data-name="Path 985" d="M300.178,150.86l3.074.885.055,2.017-4.367-.528Z" transform="translate(-287.56 -139.132)" fill="#ff8b7b"/>
      <path id="Path_986" data-name="Path 986" d="M303.883,151.745l-3.074-.885-.6,1.147a4.9,4.9,0,0,0,2.838,4.266,4.81,4.81,0,0,0,.891-2.516Z" transform="translate(-288.191 -139.132)" opacity="0.2"/>
      <path id="Path_987" data-name="Path 987" d="M302.387,138.056a.171.171,0,0,0,.126-.282,1.67,1.67,0,0,0-1.429-.553.166.166,0,0,0-.136.191.171.171,0,0,0,.191.141h0a1.323,1.323,0,0,1,1.127.448.171.171,0,0,0,.121.055Z" transform="translate(-288.556 -132.35)" fill="#263238"/>
      <path id="Path_988" data-name="Path 988" d="M308.9,151.68c-.5,2.591-.815,6.178,1.006,7.9,0,0-.7,2.626-5.534,2.626-5.288,0-2.541-2.3-2.541-2.3,2.2-.684,2.178-3.185,1.675-5.2Z" transform="translate(-288.644 -139.54)" fill="#ff8b7b"/>
      <path id="Path_989" data-name="Path 989" d="M311.069,167.268c.473-.664.453-2.772-.05-3.144-.81-.6-4.286-.74-8.96.337a3.289,3.289,0,0,1-.579,3.109Z" transform="translate(-288.822 -145.494)" fill="#59d6d6"/>
      <path id="Path_990" data-name="Path 990" d="M350.818,407.5a1.152,1.152,0,0,1-.885-.05.342.342,0,0,1-.081-.387.387.387,0,0,1,.216-.247c.478-.231,1.575.216,1.625.236a.08.08,0,0,1,.05.075.1.1,0,0,1-.045.08A4.95,4.95,0,0,1,350.818,407.5Zm-.579-.569a.423.423,0,0,0-.1.035.211.211,0,0,0-.131.141c-.045.151,0,.2.03.216.191.161.9,0,1.394-.186A2.762,2.762,0,0,0,350.239,406.93Z" transform="translate(-312.843 -266.28)" fill="#59d6d6"/>
      <path id="Path_991" data-name="Path 991" d="M352.218,406.267h-.04c-.4-.116-1.258-.724-1.268-1.122a.277.277,0,0,1,.216-.272.433.433,0,0,1,.367.03c.473.241.775,1.218.785,1.263a.08.08,0,0,1,0,.081A.071.071,0,0,1,352.218,406.267Zm-1.006-1.253h-.04c-.1.035-.1.086-.1.111,0,.236.574.714,1.006.906a2.1,2.1,0,0,0-.644-1.006.292.292,0,0,0-.216-.01Z" transform="translate(-313.383 -265.334)" fill="#59d6d6"/>
      <path id="Path_992" data-name="Path 992" d="M298.779,408.577c-.453,0-.891-.065-1.036-.267a.317.317,0,0,1,0-.367.417.417,0,0,1,.267-.2c.589-.161,1.826.543,1.877.574a.075.075,0,0,1,.04.086.08.08,0,0,1-.065.07A6.142,6.142,0,0,1,298.779,408.577Zm-.558-.689a.5.5,0,0,0-.161,0,.257.257,0,0,0-.166.116c-.06.106-.035.156,0,.186.166.231,1.057.236,1.716.141a3.829,3.829,0,0,0-1.389-.443Z" transform="translate(-286.936 -266.764)" fill="#59d6d6"/>
      <path id="Path_993" data-name="Path 993" d="M300.769,407.646h-.035c-.428-.191-1.273-.956-1.207-1.358,0-.1.08-.211.312-.231a.6.6,0,0,1,.463.141,2.4,2.4,0,0,1,.553,1.363.1.1,0,0,1-.035.075.1.1,0,0,1-.05.01Zm-.865-1.434h-.05c-.151,0-.161.07-.161.091-.04.241.533.845.971,1.107a1.947,1.947,0,0,0-.468-1.092.443.443,0,0,0-.3-.106Z" transform="translate(-287.85 -265.934)" fill="#59d6d6"/>
      <path id="Path_994" data-name="Path 994" d="M305.879,400.966h-3.537l-.352-8.2h3.537Z" transform="translate(-289.075 -259.334)" fill="#ff8b7b"/>
      <path id="Path_995" data-name="Path 995" d="M354.5,398.262l-3.456.75-3.477-7.632,3.461-.75Z" transform="translate(-311.724 -258.271)" fill="#ff8b7b"/>
      <path id="Path_996" data-name="Path 996" d="M348.843,405.764l3.889-.84a.307.307,0,0,1,.342.171l1.348,2.928a.5.5,0,0,1-.372.724c-1.358.267-2.038.332-3.743.7-1.052.231-3.426.81-4.88,1.122s-1.952-1.082-1.384-1.338a9.85,9.85,0,0,0,4.287-3.134A.86.86,0,0,1,348.843,405.764Z" transform="translate(-309.857 -265.37)" fill="#263238"/>
      <path id="Path_997" data-name="Path 997" d="M294.306,408.24h3.864a.312.312,0,0,1,.3.242l.7,3.144a.5.5,0,0,1-.5.634c-1.394-.025-3.406-.106-5.157-.106-2.053,0-3.819.111-6.224.111-1.454,0-1.856-1.469-1.248-1.6,2.767-.6,5.031-.669,7.421-2.143A1.645,1.645,0,0,1,294.306,408.24Z" transform="translate(-281.014 -267.021)" fill="#263238"/>
      <path id="Path_998" data-name="Path 998" d="M326.767,168.9c3.316.76,6.037,9.227,6.037,9.227l-6.626,5.066a14.554,14.554,0,0,1-3.522-6.54C321.484,172.22,323.376,168.119,326.767,168.9Z" transform="translate(-299.171 -148.05)" fill="#59d6d6"/>
      <path id="Path_999" data-name="Path 999" d="M326.767,168.9c3.316.76,6.037,9.227,6.037,9.227l-6.626,5.066a14.554,14.554,0,0,1-3.522-6.54C321.484,172.22,323.376,168.119,326.767,168.9Z" transform="translate(-299.171 -148.05)" opacity="0.4"/>
      <path id="Path_1000" data-name="Path 1000" d="M286.473,174.2c-.825.891-1.65,1.685-2.516,2.516-.428.4-.86.8-1.3,1.192l-.669.589-.166.146-.287.231a4.026,4.026,0,0,1-.971.574,3.165,3.165,0,0,1-1.228.252,3.018,3.018,0,0,1-1.057-.186,2.974,2.974,0,0,1-1.006-.639,3.019,3.019,0,0,1-.785-1.3,3.43,3.43,0,0,1-.146-.75,5.079,5.079,0,0,1,0-.9c.025-.241.055-.453.1-.649a12.461,12.461,0,0,1,.584-2.012,18.016,18.016,0,0,1,.78-1.821c.322-.639.629-1.107.936-1.64a41.081,41.081,0,0,1,4.251-5.766,38.956,38.956,0,0,1,5.157-4.89l1.851,1.907c-1.3,1.741-2.576,3.607-3.758,5.444a58.991,58.991,0,0,0-3.22,5.66c-.216.473-.5,1.006-.639,1.389a13.509,13.509,0,0,0-.468,1.358,8.78,8.78,0,0,0-.287,1.268,1.985,1.985,0,0,0,0,.2v-.045a1.4,1.4,0,0,0-.065-.332,2.158,2.158,0,0,0-.579-.936,2.465,2.465,0,0,0-.83-.5,2.4,2.4,0,0,0-.845-.156,2.053,2.053,0,0,0-.81.156,1.853,1.853,0,0,0-.252.126l.191-.176.609-.553,1.2-1.127c.795-.75,1.595-1.55,2.35-2.294Z" transform="translate(-276.321 -143.252)" fill="#ff8b7b"/>
      <path id="Path_1001" data-name="Path 1001" d="M324.069,181.36c1.8,1.781,2.39,5.031,2.516,7.849l-.292.226a14.555,14.555,0,0,1-3.522-6.54c-.065-.262-.126-.5-.171-.79Z" transform="translate(-299.316 -154.287)" opacity="0.2"/>
      <path id="Path_1002" data-name="Path 1002" d="M288.912,171.593c-.724,3.824-1.177,11.677.921,27.223H308.78c.131-2.9-1.7-17.081,1.107-30.77a49.807,49.807,0,0,0-6.339-.8,70.3,70.3,0,0,0-8.05,0c-.885.08-1.761.211-2.516.347A5.031,5.031,0,0,0,288.912,171.593Z" transform="translate(-282.276 -147.217)" fill="#59d6d6"/>
      <path id="Path_1003" data-name="Path 1003" d="M288.912,171.593c-.724,3.824-1.177,11.677.921,27.223H308.78c.131-2.9-1.7-17.081,1.107-30.77a49.807,49.807,0,0,0-6.339-.8,70.3,70.3,0,0,0-8.05,0c-.885.08-1.761.211-2.516.347A5.031,5.031,0,0,0,288.912,171.593Z" transform="translate(-282.276 -147.217)" opacity="0.4"/>
      <path id="Path_1004" data-name="Path 1004" d="M291.813,186.46l-3.421-.82c-.106,2.073-.116,4.639.035,7.813C290,191.662,292.015,188.865,291.813,186.46Z" transform="translate(-282.28 -156.414)" opacity="0.2"/>
      <path id="Path_1005" data-name="Path 1005" d="M301.99,392.77l.181,4.226h3.542l-.181-4.226Z" transform="translate(-289.075 -259.334)" opacity="0.2"/>
      <path id="Path_1006" data-name="Path 1006" d="M351.031,390.63l-3.461.75,1.791,3.934,3.461-.75Z" transform="translate(-311.724 -258.271)" opacity="0.2"/>
      <path id="Path_1007" data-name="Path 1007" d="M309.525,138.166c-.906,3.391-1.268,5.424-3.361,6.832a4.638,4.638,0,0,1-7.169-3.894c-.111-3.235,1.394-8.241,5.031-8.925a4.79,4.79,0,0,1,5.5,5.987Z" transform="translate(-287.584 -129.809)" fill="#ff8b7b"/>
      <path id="Path_1008" data-name="Path 1008" d="M303.63,139.18c-.171-.453-.951-3.96-.216-4.87s9.111-.252,10.349.966c2.058,2.012.629,3.824-1.62,6.153-1.69,1.751-1.756,3.723-2.611,4.025-1.509.5-3.814.03-4.276-1.565S303.63,139.18,303.63,139.18Z" transform="translate(-289.629 -130.698)" fill="#263238"/>
      <path id="Path_1009" data-name="Path 1009" d="M310.9,128.139c-2.958-1.258-8.508.136-11.506-.589a4.619,4.619,0,0,0,3.829,4.709,39.572,39.572,0,0,0,7.547.7C314.063,132.808,313.419,129.21,310.9,128.139Z" transform="translate(-287.786 -127.55)" fill="#263238"/>
      <path id="Path_1010" data-name="Path 1010" d="M323.19,136.269a5.64,5.64,0,0,0,3.134-.6C326.878,137.008,323.834,137.376,323.19,136.269Z" transform="translate(-299.609 -131.585)" fill="#263238"/>
      <path id="Path_1011" data-name="Path 1011" d="M304.634,143.239a3.98,3.98,0,0,1-1.006,2.35c-.775.85-1.58.317-1.716-.714-.121-.936.131-2.516,1.077-2.968S304.7,142.187,304.634,143.239Z" transform="translate(-289.023 -134.615)" fill="#ff8b7b"/>
      <path id="Path_1012" data-name="Path 1012" d="M304.69,230.13s4.025,27.042,6.224,37.175c2.41,11.094,15.36,47.8,15.36,47.8l6.334-1.374s-9.056-29.915-11.069-45.426c-1.56-11.914-4.624-38.181-4.624-38.181Z" transform="translate(-290.417 -178.516)" fill="#59d6d6"/>
      <path id="Path_1013" data-name="Path 1013" d="M344.57,393.464c-.025,0,1.182,2.294,1.182,2.294l7.124-1.545-.6-2.143Z" transform="translate(-310.232 -258.986)" fill="#263238"/>
      <path id="Path_1014" data-name="Path 1014" d="M308.706,249.252c4.644.911,4.151,18.228,3.592,27.138-1.338-6.3-3.3-18.414-4.639-27.012A1.585,1.585,0,0,1,308.706,249.252Z" transform="translate(-291.893 -188.003)" opacity="0.3"/>
      <path id="Path_1015" data-name="Path 1015" d="M291.086,230.12s-.5,26.459-.1,37.23c.4,11.224,4.322,47.977,4.322,47.977h6s.216-36.1.5-47.122c.292-12.014,1.741-38.106,1.741-38.106Z" transform="translate(-283.53 -178.506)" fill="#59d6d6"/>
      <path id="Path_1016" data-name="Path 1016" d="M297.438,394.8c-.03,0,.337,2.485.337,2.485h7.29l.2-2.219Z" transform="translate(-286.813 -260.343)" fill="#263238"/>
      <path id="Path_1017" data-name="Path 1017" d="M291.818,173.267c1.7,4.573-8.271,9.962-8.271,9.962l-4.317-5.534s2.9-5.746,6.425-8.332C290.007,166.173,290.525,169.785,291.818,173.267Z" transform="translate(-277.766 -147.714)" fill="#59d6d6"/>
      <path id="Path_1018" data-name="Path 1018" d="M291.818,173.267c1.7,4.573-8.271,9.962-8.271,9.962l-4.317-5.534s2.9-5.746,6.425-8.332C290.007,166.173,290.525,169.785,291.818,173.267Z" transform="translate(-277.766 -147.714)" opacity="0.4"/>
    </g>
    <g id="freepik--Thinking--inject-1" transform="translate(165.404 59.191)">
      <ellipse id="Ellipse_115" data-name="Ellipse 115" cx="18.157" cy="11.572" rx="18.157" ry="11.572" transform="translate(8.563)" fill="#59d6d6"/>
      <path id="Path_1019" data-name="Path 1019" d="M363.854,87.846a5.086,5.086,0,0,1-5-4.221,5.142,5.142,0,0,1,3.879-5.8h0a5.061,5.061,0,0,1,5.444,2.274l11.657-2.4a1.821,1.821,0,0,1,2.133,1.253,1.756,1.756,0,0,1-1.343,2.168l-.3.06a.3.3,0,0,0-.211.156.317.317,0,0,0,0,.262l.206.533a.8.8,0,0,1-.312.971.956.956,0,0,0-.448.709.79.79,0,0,1-.609.7l-.236.05a.785.785,0,0,1-.835-.4.981.981,0,0,0-1.816.377.78.78,0,0,1-.6.694l-.236.05a.79.79,0,0,1-.835-.4,1.006,1.006,0,0,0-.7-.473.8.8,0,0,1-.7-.79v-.574a.312.312,0,0,0-.372-.292l-3.718.765a5.066,5.066,0,0,1-4,4.226,5.212,5.212,0,0,1-1.041.106Zm-1.006-9.559a4.634,4.634,0,0,0-3.522,5.242,4.583,4.583,0,0,0,9.056-.262v-.181l4.1-.83a.815.815,0,0,1,1.006.765v.574a.3.3,0,0,0,.242.287,1.464,1.464,0,0,1,1.062.719.292.292,0,0,0,.3.161l.231-.05a.282.282,0,0,0,.211-.262,1.484,1.484,0,0,1,2.767-.584.287.287,0,0,0,.292.161l.241-.05a.282.282,0,0,0,.206-.262,1.459,1.459,0,0,1,.689-1.082.307.307,0,0,0,.106-.362l-.206-.533a.81.81,0,0,1,.594-1.087l.307-.065a1.263,1.263,0,0,0,.961-1.545,1.313,1.313,0,0,0-1.55-.891l-11.984,2.49-.091-.156a4.528,4.528,0,0,0-4.991-2.189Zm1.006,7.688a3.093,3.093,0,1,1,.654-.04h0a3.206,3.206,0,0,1-.649.05Zm0-5.942a3.02,3.02,0,0,0-.558.055,2.729,2.729,0,0,0,1.137,5.338h0a2.722,2.722,0,0,0,.946-4.936,2.676,2.676,0,0,0-1.5-.448Z" transform="translate(-343.684 -70.448)" fill="#fff"/>
      <ellipse id="Ellipse_116" data-name="Ellipse 116" cx="5.967" cy="3.804" rx="5.967" ry="3.804" transform="translate(5.977 22.323)" fill="#59d6d6" opacity="0.6"/>
      <ellipse id="Ellipse_117" data-name="Ellipse 117" cx="2.45" cy="1.56" rx="2.45" ry="1.56" transform="translate(0 28.371)" fill="#59d6d6" opacity="0.3"/>
    </g>
  </g>
</svg>
