<svg width="24" height="24" viewBox="0 0 24 24" fill="none" xmlns="http://www.w3.org/2000/svg">
<path d="M1.57839 1.78816e-07C0.706429 1.78816e-07 0 0.706429 0 1.57839V4.34423H3.15659V1.57839C3.15659 0.706429 2.4498 0 1.57838 0L1.57839 1.78816e-07Z" fill="#EDD4C2"/>
<path d="M19.2121 0H1.57812C2.45008 0 3.15651 0.706612 3.15651 1.57839V24.0003H20.7905V1.57839C20.7905 0.706612 20.0834 1.78816e-07 19.2121 1.78816e-07V0Z" fill="#FFEFE4"/>
<path d="M3.15625 23.0627H20.7903V24.0002H3.15625V23.0627Z" fill="#EDD4C2"/>
<path d="M19.2121 0H1.57812C2.22175 0 2.77492 0.385258 3.02064 0.937511H19.2121C20.0833 0.937511 20.7905 1.64412 20.7905 2.5159V1.57839C20.7905 0.706612 20.0833 0 19.2121 0H19.2121Z" fill="#FFF7F2"/>
<path d="M24.0001 21.3277H21.8779V6.60596H24.0001V21.3277Z" fill="#FF8354"/>
<path d="M24.0001 21.8746H21.8779V21.3279H24.0001V21.8746Z" fill="#FFEFE4"/>
<path d="M21.8779 21.8745H24.0001V22.9393C24.0001 23.5254 23.5251 24.0004 22.939 24.0004C22.3531 24.0004 21.8779 23.5254 21.8779 22.9393V21.8745Z" fill="#6770E6"/>
<path d="M22.9391 23.0628C22.3531 23.0628 21.8779 22.5879 21.8779 22.0017V22.9392C21.8779 23.5254 22.3531 24.0003 22.9391 24.0003C23.5252 24.0003 24.0002 23.5254 24.0002 22.9392V22.0017C24.0002 22.5879 23.5252 23.0628 22.9391 23.0628Z" fill="#5861C7"/>
<path d="M21.8779 6.60517L22.8607 3.86331C22.887 3.7897 22.991 3.7897 23.0174 3.86331L24.0001 6.60517H21.8779Z" fill="#EDD4C2"/>
<path d="M22.4082 5.12493H23.4693L23.0172 3.86331C22.9908 3.78971 22.8867 3.78971 22.8603 3.86331L22.4082 5.12493Z" fill="#5861C7"/>
<path d="M22.4082 5.12493H23.4693L23.0172 3.86331C22.9908 3.78971 22.8867 3.78971 22.8603 3.86331L22.4082 5.12493Z" fill="#5861C7"/>
<path d="M22.8227 4.33207C22.8619 4.25846 23.0161 4.25846 23.055 4.33207L23.4562 5.08776L23.0173 3.86331C22.9909 3.7897 22.887 3.7897 22.8606 3.86331L22.4219 5.08739L22.8227 4.33207Z" fill="#8F95E6"/>
<path d="M17.5706 9.53339H8.25154C8.01349 9.53339 7.82031 9.34039 7.82031 9.10236C7.82031 8.86414 8.01349 8.67114 8.25154 8.67114H17.5704C17.8087 8.67114 18.0016 8.86414 18.0016 9.10236C18.0018 9.34039 17.8087 9.53339 17.5706 9.53339Z" fill="#6770E6"/>
<path d="M17.5706 11.7929H8.25154C8.01349 11.7929 7.82031 11.5999 7.82031 11.3617C7.82031 11.1237 8.01349 10.9307 8.25154 10.9307H17.5704C17.8087 10.9307 18.0016 11.1237 18.0016 11.3617C18.0018 11.5999 17.8087 11.7929 17.5706 11.7929Z" fill="#6770E6"/>
<path d="M17.5706 14.0524H8.25154C8.01349 14.0524 7.82031 13.8594 7.82031 13.6212C7.82031 13.3831 8.01349 13.1899 8.25154 13.1899H17.5704C17.8087 13.1899 18.0016 13.3831 18.0016 13.6212C18.0018 13.8594 17.8087 14.0524 17.5706 14.0524Z" fill="#6770E6"/>
<path d="M17.5706 16.3117H8.25154C8.01349 16.3117 7.82031 16.1187 7.82031 15.8807C7.82031 15.6425 8.01349 15.4495 8.25154 15.4495H17.5704C17.8087 15.4495 18.0016 15.6425 18.0016 15.8807C18.0018 16.1187 17.8087 16.3117 17.5706 16.3117Z" fill="#6770E6"/>
<path d="M6.80794 9.10213C6.80794 9.34035 6.61475 9.53334 6.37672 9.53334C6.13849 9.53334 5.94531 9.34035 5.94531 9.10213C5.94531 8.86391 6.13849 8.6709 6.37672 8.6709C6.61475 8.6709 6.80794 8.86391 6.80794 9.10213Z" fill="#6770E6"/>
<path d="M6.80794 11.3616C6.80794 11.5999 6.61475 11.793 6.37672 11.793C6.13849 11.793 5.94531 11.5999 5.94531 11.3616C5.94531 11.1236 6.13849 10.9304 6.37672 10.9304C6.61475 10.9304 6.80794 11.1236 6.80794 11.3616Z" fill="#6770E6"/>
<path d="M6.80794 13.6212C6.80794 13.8594 6.61475 14.0524 6.37672 14.0524C6.13849 14.0524 5.94531 13.8594 5.94531 13.6212C5.94531 13.383 6.13849 13.1899 6.37672 13.1899C6.61475 13.1899 6.80794 13.383 6.80794 13.6212Z" fill="#6770E6"/>
<path d="M6.80794 15.8807C6.80794 16.1187 6.61475 16.3119 6.37672 16.3119C6.13849 16.3119 5.94531 16.1187 5.94531 15.8807C5.94531 15.6425 6.13849 15.4495 6.37672 15.4495C6.61475 15.4495 6.80794 15.6425 6.80794 15.8807Z" fill="#6770E6"/>
<path d="M7.74403 6.00041V3.04871H6.97774C6.77869 3.04871 6.61719 2.88739 6.61719 2.68818C6.61719 2.48914 6.77869 2.32764 6.97774 2.32764H9.27042C9.46964 2.32764 9.63095 2.48914 9.63095 2.68818C9.63095 2.88739 9.46964 3.04871 9.27042 3.04871H8.50412V6.00041C8.50412 6.19963 8.34261 6.36095 8.14357 6.36095H8.10457C7.90553 6.36095 7.74403 6.19963 7.74403 6.00041Z" fill="#6770E6"/>
<path d="M12.9682 5.533L13.1667 5.77104C13.289 5.91789 13.2647 6.13689 13.1131 6.25316C12.9693 6.36376 12.7641 6.34032 12.6487 6.20042L12.5625 6.09587C12.2957 6.333 11.9749 6.45128 11.5993 6.45128C11.3889 6.45128 11.1928 6.41631 11.0106 6.34673C10.8283 6.27752 10.6697 6.17992 10.5347 6.05376C10.3996 5.92815 10.2932 5.77873 10.2161 5.60587C10.139 5.43339 10.1006 5.24369 10.1006 5.03696C10.1006 4.81174 10.1561 4.59768 10.267 4.39462C10.3774 4.1921 10.5325 4.01907 10.7319 3.87661C10.6604 3.77883 10.6021 3.67757 10.5573 3.5721C10.5119 3.46718 10.4893 3.35622 10.4893 3.23976C10.4893 3.10078 10.515 2.97078 10.5655 2.84828C10.6164 2.72633 10.6884 2.62049 10.7823 2.53003C10.8762 2.44031 10.9872 2.36872 11.1146 2.31598C11.2425 2.26379 11.3834 2.23706 11.5374 2.23706C11.8079 2.23706 12.0247 2.29987 12.1878 2.42603C12.2329 2.46064 12.2743 2.49762 12.3122 2.53718C12.4667 2.69813 12.4272 2.96144 12.2299 3.06562L12.1946 3.0843C12.0732 3.14857 11.9298 3.11287 11.8353 3.01326C11.7418 2.91492 11.6185 2.8849 11.5482 2.8849C11.4397 2.8849 11.353 2.91694 11.2891 2.98066C11.2254 3.04493 11.1934 3.1255 11.1934 3.22328C11.1934 3.28334 11.2067 3.33827 11.2329 3.38918C11.2591 3.44007 11.2948 3.49318 11.34 3.54958L12.5513 5.02579L12.7172 4.75571C12.8087 4.60666 13.0047 4.56124 13.1524 4.65463C13.2995 4.74747 13.343 4.94174 13.25 5.08842L12.9682 5.533ZM11.6332 5.78642C11.8432 5.78642 12.0161 5.72416 12.1514 5.60038L11.1319 4.3666C11.0267 4.44552 10.9462 4.5422 10.8898 4.65683C10.8334 4.77145 10.8048 4.88882 10.8048 5.00895C10.8048 5.12925 10.8277 5.23728 10.8728 5.33268C10.9176 5.42844 10.9788 5.51048 11.0557 5.57786C11.1328 5.64524 11.2212 5.69706 11.3206 5.73277C11.4201 5.76866 11.5242 5.78642 11.6332 5.78642Z" fill="#6770E6"/>
<path d="M17.2133 5.45006C17.3784 5.60662 17.3642 5.87157 17.1868 6.01384C17.0635 6.11272 16.9302 6.19567 16.7869 6.26232C16.5164 6.38793 16.2141 6.45111 15.8801 6.45111C15.5793 6.45111 15.3006 6.39654 15.0435 6.28741C14.7862 6.17883 14.5634 6.03032 14.3759 5.84282C14.188 5.65477 14.0399 5.43248 13.9307 5.17485C13.8216 4.91758 13.7676 4.64072 13.7676 4.34408C13.7676 4.04745 13.8216 3.77059 13.9307 3.51295C14.0399 3.25569 14.188 3.03339 14.3759 2.84534C14.5634 2.65784 14.7862 2.50935 15.0435 2.40076C15.3006 2.29163 15.5793 2.23706 15.8801 2.23706C16.2028 2.23706 16.4875 2.29346 16.7332 2.40625C16.8636 2.46595 16.9861 2.53974 17.1011 2.62763C17.2682 2.75562 17.2763 3.00593 17.1252 3.15223L17.093 3.18336C16.9665 3.30586 16.7716 3.31099 16.6314 3.20442C16.571 3.15846 16.5072 3.11763 16.4402 3.08192C16.2844 2.99934 16.0996 2.95814 15.8856 2.95814C15.6976 2.95814 15.5211 2.9911 15.356 3.05665C15.1905 3.12275 15.0471 3.2154 14.925 3.33534C14.8031 3.45601 14.7064 3.6014 14.635 3.77224C14.5634 3.94326 14.5282 4.13351 14.5282 4.34408C14.5282 4.55447 14.5636 4.74472 14.635 4.91574C14.7064 5.08677 14.8032 5.23197 14.925 5.35209C15.0471 5.47276 15.1905 5.56523 15.356 5.63132C15.521 5.69688 15.6975 5.72984 15.8856 5.72984C16.1106 5.72984 16.3109 5.68406 16.4857 5.59177C16.5677 5.54856 16.6453 5.49693 16.7184 5.43669C16.8647 5.31656 17.076 5.31986 17.2133 5.45005V5.45006Z" fill="#6770E6"/>
<path d="M8.57785 21.3277H6.32343C6.11469 21.3277 5.94531 21.1584 5.94531 20.9496V18.695C5.94531 18.4861 6.11469 18.3169 6.32343 18.3169H8.57803C8.78696 18.3169 8.95616 18.4861 8.95616 18.695V20.9496C8.95616 21.1584 8.78677 21.3277 8.57785 21.3277Z" fill="#EDD4C2"/>
<path d="M7.27795 20.6734C7.19957 20.6734 7.12047 20.6477 7.05437 20.5955L6.60959 20.2438C6.4534 20.1202 6.42687 19.8933 6.55046 19.7369C6.67387 19.5807 6.90094 19.5542 7.05711 19.6778L7.22301 19.8089L7.90875 18.9673C8.03455 18.8129 8.26196 18.7897 8.41632 18.9155C8.57086 19.0415 8.59412 19.2687 8.46816 19.4233L7.55792 20.5404C7.4867 20.6278 7.38286 20.6734 7.27794 20.6734H7.27795Z" fill="#6770E6"/>
<path d="M17.5703 20.2534H10.7935C10.5555 20.2534 10.3623 20.0604 10.3623 19.8221C10.3623 19.5841 10.5555 19.3911 10.7935 19.3911H17.5703C17.8084 19.3911 18.0015 19.5841 18.0015 19.8221C18.0015 20.0604 17.8084 20.2534 17.5703 20.2534Z" fill="#6770E6"/>
</svg>
