<svg width="24" height="24" viewBox="0 0 24 24" fill="none" xmlns="http://www.w3.org/2000/svg">
<path d="M19.0605 24H0V6H24V19.0605L19.0605 24Z" fill="#E4EDFB"/>
<path d="M0 6H24V9H0V6Z" fill="#D7E1F2"/>
<path d="M4.5 3H3V0.75C3 0.335815 3.33582 0 3.75 0C4.16418 0 4.5 0.335815 4.5 0.75V3Z" fill="#BFC9D1"/>
<path d="M21 3H19.5V0.75C19.5 0.335815 19.8358 0 20.25 0C20.6642 0 21 0.335815 21 0.75V3Z" fill="#BFC9D1"/>
<path d="M19.0605 19.0605V24L24 19.0605H19.0605Z" fill="#C8D5E8"/>
<path d="M24 7.5H0V3.75C0 2.92163 0.67163 2.25 1.5 2.25H22.5C23.3284 2.25 24 2.92163 24 3.75V7.5Z" fill="#FF7761"/>
<path d="M15.7822 20.4736L12 18.5565L8.21778 20.4736L8.93995 16.4085L5.84473 13.5008L10.1197 12.9022L12 9.22949L13.8803 12.9022L18.1553 13.5008L15.0601 16.4085L15.7822 20.4736Z" fill="#FFDA6B"/>
<path d="M15.7822 20.4738L12 18.5566L8.21777 20.4738L8.93996 16.4086L13.8804 12.9023L18.1553 13.5009L15.0601 16.4086L15.7822 20.4738Z" fill="#F5CD00"/>
</svg>
