<svg xmlns="http://www.w3.org/2000/svg" width="24" height="24" viewBox="0 0 24 24">
  <g id="Group_262" data-name="Group 262" transform="translate(-1816 -4422)">
    <rect id="Rectangle_246" data-name="Rectangle 246" width="24" height="24" transform="translate(1816 4422)" fill="none"/>
    <g id="esoteric" transform="translate(1817 4423)">
      <g id="Group_255" data-name="Group 255" transform="translate(0 0)">
        <g id="Group_254" data-name="Group 254">
          <path id="Path_1186" data-name="Path 1186" d="M18.3,3.141A10.723,10.723,0,0,0,3,18.165a.32.32,0,1,0,.461-.445A10.082,10.082,0,0,1,17.852,3.594,10.083,10.083,0,0,1,5.5,19.349c-.24-.146-.478-.3-.706-.47a.32.32,0,1,0-.377.518c.242.176.495.344.75.5A10.724,10.724,0,0,0,18.3,3.141Z" transform="translate(0 0)" fill="#a5a5a5"/>
        </g>
      </g>
      <g id="Group_257" data-name="Group 257" transform="translate(1.944 1.944)">
        <g id="Group_256" data-name="Group 256">
          <path id="Path_1187" data-name="Path 1187" d="M57.137,46.609a8.885,8.885,0,0,0-4.1.088.32.32,0,1,0,.162.62A8.188,8.188,0,0,1,54.4,47.1l-2.236,3.68H48.395a8.241,8.241,0,0,1,3.25-2.883.32.32,0,0,0-.284-.575A8.861,8.861,0,0,0,46.97,58.344c.089.239.209.466.3.7a3.085,3.085,0,0,0,.316.605,11.9,11.9,0,0,0,.7,1.046,8.855,8.855,0,1,0,8.853-14.09ZM62.5,51.456a.068.068,0,0,1,0,.072L60.623,54.6,58.688,51.42h3.745A.068.068,0,0,1,62.5,51.456Zm-.341-.677H58.3l-2.242-3.69A8.224,8.224,0,0,1,62.154,50.779Zm-6.982-3.711a.075.075,0,0,1,.012-.015h.1a.074.074,0,0,1,.013.016l2.255,3.711H52.917ZM52.527,51.42h5.411l2.309,3.8-2.339,3.863h-5.34L50.218,55.22Zm-4.513,0a.075.075,0,0,1,.018,0h3.745L49.843,54.6l-1.871-3.075a.073.073,0,0,1-.006-.014Zm-.954,3.846a8.212,8.212,0,0,1,.584-3.046l1.824,3-1.845,3.037A8.174,8.174,0,0,1,47.06,55.269ZM48,59.084l-.06-.116,1.9-3.13,1.976,3.247Zm.375.641h3.833l2.264,3.721A8.225,8.225,0,0,1,48.376,59.725Zm7.611,3.729,1.626-2.672a.32.32,0,0,0-.547-.333l-1.772,2.913a.071.071,0,0,1-.122,0l-2.213-3.637h9.217A8.223,8.223,0,0,1,55.988,63.454Zm6.543-4.406a.068.068,0,0,1-.062.036H58.647l1.976-3.247,1.907,3.138A.068.068,0,0,1,62.531,59.047ZM61,55.221l1.875-3.081a8.21,8.21,0,0,1,.022,6.2Z" transform="translate(-46.419 -46.411)" fill="#a5a5a5"/>
        </g>
      </g>
      <g id="Group_259" data-name="Group 259" transform="translate(7.577 7.577)">
        <g id="Group_258" data-name="Group 258">
          <path id="Path_1188" data-name="Path 1188" d="M186.978,183.532l-2.423-2.423a.724.724,0,0,0-1.023,0l-2.423,2.423a.724.724,0,0,0,0,1.023l2.423,2.423a.724.724,0,0,0,1.023,0l2.423-2.423A.724.724,0,0,0,186.978,183.532Zm-.453.57-2.423,2.423a.082.082,0,0,1-.117,0l-2.423-2.423a.083.083,0,0,1,0-.117l2.423-2.423a.082.082,0,0,1,.117,0l2.423,2.423A.083.083,0,0,1,186.525,184.1Z" transform="translate(-180.898 -180.898)" fill="#a5a5a5"/>
        </g>
      </g>
      <g id="Group_261" data-name="Group 261" transform="translate(9.586 9.586)">
        <g id="Group_260" data-name="Group 260">
          <path id="Path_1189" data-name="Path 1189" d="M230.007,228.87a1.136,1.136,0,1,0,1.136,1.136A1.138,1.138,0,0,0,230.007,228.87Zm0,1.632a.5.5,0,1,1,.5-.5A.5.5,0,0,1,230.007,230.5Z" transform="translate(-228.871 -228.87)" fill="#a5a5a5"/>
        </g>
      </g>
    </g>
  </g>
</svg>
