<svg id="Layer_2" data-name="Layer 2" xmlns="http://www.w3.org/2000/svg" width="24" height="24" viewBox="0 0 24 24">
  <g id="pin">
    <rect id="Rectangle_322" data-name="Rectangle 322" width="24" height="24" fill="#a5a5a5" opacity="0"/>
    <circle id="Ellipse_143" data-name="Ellipse 143" cx="1.5" cy="1.5" r="1.5" transform="translate(10.5 8)" fill="#a5a5a5"/>
    <path id="Path_1357" data-name="Path 1357" d="M12,2A8,8,0,0,0,4,9.92c0,5.48,7.05,11.58,7.35,11.84a1,1,0,0,0,1.3,0C13,21.5,20,15.4,20,9.92A8,8,0,0,0,12,2Zm0,11a3.5,3.5,0,1,1,3.5-3.5A3.5,3.5,0,0,1,12,13Z" fill="#a5a5a5"/>
  </g>
</svg>
