<svg width="25" height="26" viewBox="0 0 25 26" fill="none" xmlns="http://www.w3.org/2000/svg">
<path d="M14.5143 14.1432C12.7996 14.1432 11.4041 12.7477 11.4041 11.033C11.4041 9.31824 12.7996 7.9228 14.5143 7.9228H16.5876V3.77595C16.5876 2.06121 15.1922 0.665771 13.4775 0.665771H2.3327C1.99158 0.665771 1.67228 0.833581 1.47847 1.11453C1.2856 1.39548 1.24213 1.75331 1.36438 2.07147L8.88072 21.7694C9.03315 22.1717 9.41869 22.437 9.84903 22.437H13.4775C15.1922 22.437 16.5876 21.0416 16.5876 19.3269V14.1432L14.5143 14.1432Z" fill="#2196F3"/>
<path d="M19.301 16.1379C18.9143 15.9771 18.6613 15.5988 18.6613 15.1798V12.0696H14.5144C13.9421 12.0696 13.4775 11.6053 13.4775 11.0329C13.4775 10.4606 13.9421 9.99629 14.5144 9.99629H18.6613V6.88609C18.6613 6.46716 18.9143 6.08882 19.301 5.92802C19.6886 5.76742 20.1345 5.85666 20.4308 6.15317L24.5779 10.3C24.9831 10.7053 24.9831 11.3606 24.5779 11.7659L20.4308 15.9129C20.1346 16.2093 19.6886 16.2985 19.301 16.1379V16.1379Z" fill="#607D8B"/>
<path d="M8.96358 2.84481L2.73394 0.768249C1.32805 0.336005 0 1.37381 0 2.73907V21.4002C0 22.2867 0.563988 23.0777 1.4038 23.3679L7.63232 25.4445C7.86145 25.5149 8.07197 25.5472 8.29388 25.5472C9.43742 25.5472 10.3672 24.6172 10.3672 23.4737V4.81259C10.3672 3.92627 9.80322 3.13525 8.96361 2.8448L8.96358 2.84481Z" fill="#64B5F6"/>
</svg>
