<svg xmlns="http://www.w3.org/2000/svg" width="24" height="24" viewBox="0 0 24 24">
  <g id="Group_379" data-name="Group 379" transform="translate(-141 -2294)">
    <rect id="Rectangle_317" data-name="Rectangle 317" width="24" height="24" transform="translate(141 2294)" fill="none"/>
    <g id="income_1_" data-name="income(1)" transform="translate(139.452 2296)">
      <path id="Path_1349" data-name="Path 1349" d="M183.539,9.581a4.79,4.79,0,1,0-4.79-4.79A4.8,4.8,0,0,0,183.539,9.581Zm-.567-7.606v-.13a.567.567,0,0,1,1.135,0v.131a1.5,1.5,0,0,1,1.183,1.464.567.567,0,1,1-1.135,0,.364.364,0,0,0-.363-.363h-.509a.363.363,0,0,0-.216.655l.472.349,1.147.849a1.5,1.5,0,0,1,.607,1.194v.005A1.5,1.5,0,0,1,184.107,7.6v.133a.567.567,0,0,1-1.135,0V7.605A1.5,1.5,0,0,1,181.79,6.15a.567.567,0,0,1,.564-.571h0a.568.568,0,0,1,.567.564.362.362,0,0,0,.365.361l.508,0a.363.363,0,0,0,.361-.366V6.13a.365.365,0,0,0-.147-.289l-.472-.349-1.147-.849a1.5,1.5,0,0,1,.58-2.669Z" transform="translate(-168.575)" fill="#a5a5a5"/>
      <path id="Path_1350" data-name="Path 1350" d="M7.2,318.666a.529.529,0,0,0-.722-.194l-2.669,1.54a.529.529,0,0,0-.193.722l2.727,4.724a.529.529,0,0,0,.722.193l2.669-1.541a.528.528,0,0,0,.193-.722Z" transform="translate(0 -306.359)" fill="#a5a5a5"/>
      <path id="Path_1351" data-name="Path 1351" d="M150.194,273.028a.8.8,0,0,0-1.11-.18l-3.321,2.393a2,2,0,0,1-.239.175,2.058,2.058,0,0,1-1.1.315h-2.717a.567.567,0,1,1,0-1.135h2.906a.752.752,0,0,0,.751-.783.764.764,0,0,0-.769-.72h-2.212a3.68,3.68,0,0,0-.49-.433,3.629,3.629,0,0,0-2.161-.71,4,4,0,0,0-3.463,2.116l2.321,4.019h4.353a4.886,4.886,0,0,0,2.438-.645,9.751,9.751,0,0,0,.83-.539c1.249-.9,3.8-2.761,3.8-2.762A.8.8,0,0,0,150.194,273.028Z" transform="translate(-127.7 -261.665)" fill="#a5a5a5"/>
    </g>
  </g>
</svg>
