<svg xmlns="http://www.w3.org/2000/svg" width="42" height="42" viewBox="0 0 42 42">
  <g id="Group_10" data-name="Group 10" transform="translate(-186 -591)">
    <rect id="Rectangle_4" data-name="Rectangle 4" width="42" height="42" rx="5" transform="translate(186 591)" fill="#cbcbcb" opacity="0.3"/>
    <g id="apple_1_" data-name="apple(1)" transform="translate(159.664 599.803)">
      <g id="Group_3" data-name="Group 3" transform="translate(47.269)">
        <g id="Group_2" data-name="Group 2" transform="translate(0)">
          <path id="Path_1" data-name="Path 1" d="M252.458,0a5.678,5.678,0,0,0-3.676,1.99,4.932,4.932,0,0,0-1.2,3.832,4.792,4.792,0,0,0,3.71-1.895A5.324,5.324,0,0,0,252.458,0Z" transform="translate(-247.522)"/>
        </g>
      </g>
      <g id="Group_5" data-name="Group 5" transform="translate(37.336 5.664)">
        <g id="Group_4" data-name="Group 4" transform="translate(0)">
          <path id="Path_2" data-name="Path 2" d="M57.3,122.294a6.125,6.125,0,0,0-4.623-2.454c-2.17,0-3.088,1.039-4.6,1.039-1.555,0-2.736-1.036-4.612-1.036a6.276,6.276,0,0,0-5.051,3.053c-1.75,2.713-1.45,7.814,1.385,12.159,1.015,1.555,2.37,3.3,4.142,3.318,1.577.015,2.022-1.012,4.159-1.022s2.542,1.036,4.116,1.019c1.774-.014,3.2-1.951,4.218-3.505A17.434,17.434,0,0,0,58,131.931,5.335,5.335,0,0,1,57.3,122.294Z" transform="translate(-37.336 -119.84)"/>
        </g>
      </g>
    </g>
  </g>
</svg>
