<svg width="22" height="20" viewBox="0 0 22 20" fill="none" xmlns="http://www.w3.org/2000/svg">
<path d="M19.1956 14.0974L21.9238 11.3693L19.1956 8.64109L19.6352 8.20152C20.3957 7.44096 20.3957 6.20354 19.6353 5.44299C19.2668 5.07466 18.7769 4.87177 18.2559 4.87177C17.735 4.87177 17.2451 5.07467 16.8768 5.44299L16.4372 5.88255L13.709 3.1543L12.9039 3.95951V5.23207C14.328 5.57145 15.3903 6.85454 15.3903 8.381C15.3903 9.90762 14.328 11.1907 12.9039 11.5299V15.4759H10.5421L10.0713 15.9467L13.709 19.5842L16.4372 16.856L16.8161 17.235C17.5766 17.9956 18.8141 17.9956 19.5746 17.235C20.3352 16.4744 20.3352 15.237 19.5746 14.4765L19.1956 14.0974Z" fill="#A5A5A5"/>
<path d="M11.6177 14.1899V10.3316H12.1535C13.2292 10.3316 14.1041 9.45667 14.1041 8.38098C14.1041 7.30547 13.2292 6.4305 12.1535 6.4305H11.6177V2.5722H7.75943V1.95065C7.75943 0.874964 6.88446 0 5.80878 0C4.73327 0 3.8583 0.874964 3.8583 1.95065V2.5722H8.16653e-08V6.4305H0.535916C1.47963 6.4305 2.26878 7.10408 2.44809 7.99577C2.52587 8.10449 2.5722 8.2373 2.5722 8.38098C2.5722 8.52466 2.52587 8.65747 2.44809 8.76636C2.26878 9.65788 1.47963 10.3316 0.535916 10.3316H0V14.1899H3.8583V13.5682C3.8583 12.4927 4.73327 11.6177 5.80878 11.6177C6.88446 11.6177 7.75943 12.4927 7.75943 13.5682V14.1899H11.6177Z" fill="#A5A5A5"/>
</svg>
