<svg width="24" height="25" viewBox="0 0 24 25" fill="none" xmlns="http://www.w3.org/2000/svg">
<path d="M22.3698 9.84326C22.3698 8.16321 21.003 6.79639 19.323 6.79639H12L11.5 15.1245L12 22.1245H22.3698V9.84326Z" fill="#29376D"/>
<path d="M4.67773 6.79639C2.99769 6.79639 1.63086 8.16321 1.63086 9.84326V22.1245H12.0007V6.79639H4.67773Z" fill="#47568C"/>
<path d="M20.9636 9.84326C20.9636 8.93861 20.2276 8.20264 19.323 8.20264H12L11.5 15.6245L12 22.1245H20.9636V9.84326Z" fill="#EAF1FF"/>
<path d="M4.67773 8.20264C3.77309 8.20264 3.03711 8.93861 3.03711 9.84326V22.1245H12.0007V8.20264H4.67773Z" fill="#F9F9F9"/>
<path d="M17.703 21.5229L12 22.9878L11.5312 23.7495L12 24.4526H21.0704C22.6858 24.4526 24 23.1384 24 21.5229H17.703Z" fill="#47568C"/>
<path d="M12 21.5229L11.7773 22.2554L12 22.9878H17.7029V21.5229H12Z" fill="#29376D"/>
<path d="M0 21.5229C0 23.1384 1.31423 24.4526 2.92969 24.4526H12V22.9878L6.29709 21.5229H0Z" fill="#61729B"/>
<path d="M6.29688 21.5229H11.9998V22.9878H6.29688V21.5229Z" fill="#47568C"/>
<path d="M12.0004 0.452637L11.4082 7.18379L12.0004 16.8896C12.0004 16.8896 16.1528 12.2636 17.2051 10.8626C18.0563 9.72943 18.5063 8.37944 18.5063 6.95856C18.5063 3.37117 15.5877 0.452638 12.0004 0.452638V0.452637Z" fill="#FDAE02"/>
<path d="M5.49414 6.95851C5.49414 8.37939 5.94409 9.72939 6.7953 10.8625C7.8476 12.2635 12 16.8896 12 16.8896V0.452637C8.41267 0.452637 5.49414 3.37117 5.49414 6.95851Z" fill="#FDCB02"/>
<path d="M17.5143 15.9844H12L11.5 16.9526L12 17.3906H17.5143V15.9844Z" fill="#F7D586"/>
<path d="M6.48633 15.9844H12.0006V17.3906H6.48633V15.9844Z" fill="#F9E89C"/>
<path d="M12 11.1629H12.7049V6.76904H12L11.5 8.95267L12 11.1629Z" fill="#EAF1FF"/>
<path d="M12.8082 4.97956C12.8082 4.53321 12.4464 4.17139 12 4.17139L11.5 4.95265L12 5.78773C12.4464 5.78773 12.8082 5.4259 12.8082 4.97956Z" fill="#EAF1FF"/>
<path d="M11.2988 6.76904H12.0002V11.1629H11.2988V6.76904Z" fill="#F9F9F9"/>
<path d="M11.1914 4.97956C11.1914 5.4259 11.5532 5.78773 11.9996 5.78773V4.17139C11.5532 4.17139 11.1914 4.53321 11.1914 4.97956Z" fill="#F9F9F9"/>
</svg>
