<svg id="heart_1_" data-name="heart(1)" xmlns="http://www.w3.org/2000/svg" width="19.5" height="14.538" viewBox="0 0 19.5 14.538">
  <path id="Path_1177" data-name="Path 1177" d="M10.127,185.433a4.568,4.568,0,0,0,1.28-2.88,3.008,3.008,0,0,0-5.274-1.981l-.43.491-.43-.491A3.008,3.008,0,0,0,0,182.553a4.568,4.568,0,0,0,1.28,2.88A19.609,19.609,0,0,0,5.7,189.049,19.608,19.608,0,0,0,10.127,185.433Z" transform="translate(0 -175.187)" fill="#a5a5a5"/>
  <path id="Path_1178" data-name="Path 1178" d="M85.65,65.14a4.829,4.829,0,0,0-3.643,1.654A4.841,4.841,0,0,0,73.8,68.359a4.231,4.231,0,0,1,2.892.989,4.151,4.151,0,0,1,6.846,3.158,5.713,5.713,0,0,1-1.547,3.613,15.131,15.131,0,0,1-2.2,2.09q1.011.716,2.211,1.469c6.216-3.892,8.484-7.028,8.484-9.7A4.841,4.841,0,0,0,85.65,65.14Z" transform="translate(-70.991 -65.14)" fill="#a5a5a5"/>
</svg>
