<svg xmlns="http://www.w3.org/2000/svg" width="14" height="21.721" viewBox="0 0 14 21.721">
  <g id="height_1_" data-name="height(1)" transform="translate(-91)">
    <path id="Path_1172" data-name="Path 1172" d="M104.364,19.176h-1.909V17.818h.851a.636.636,0,0,0,0-1.273h-.851V15.273h1.7a.636.636,0,1,0,0-1.273h-1.7V12.727h.851a.636.636,0,0,0,0-1.273h-.851V10.182h1.7a.636.636,0,1,0,0-1.273h-1.7V7.636h.851a.636.636,0,0,0,0-1.273h-.851V5.091h1.7a.636.636,0,1,0,0-1.273h-1.7V2.545h.851a.636.636,0,0,0,0-1.273h-.851V.636a.636.636,0,0,0-1.273,0V19.176h-2.3l.27-4.327H94.3l.27,4.327H91.636a.636.636,0,0,0-.636.636v1.273a.636.636,0,0,0,1.273,0v-.636h11.455v.636a.636.636,0,1,0,1.273,0V19.812A.636.636,0,0,0,104.364,19.176Z" transform="translate(0)" fill="#a5a5a5"/>
    <circle id="Ellipse_125" data-name="Ellipse 125" cx="1.909" cy="1.909" r="1.909" transform="translate(94.822 2.121)" fill="#a5a5a5"/>
    <path id="Path_1173" data-name="Path 1173" d="M151.736,157.205h5.089a.636.636,0,0,0,.636-.636v-4.243a3.172,3.172,0,0,0-1.02-2.332,3.174,3.174,0,0,1-4.32,0,3.172,3.172,0,0,0-1.021,2.333v4.243A.636.636,0,0,0,151.736,157.205Z" transform="translate(-57.55 -143.63)" fill="#a5a5a5"/>
  </g>
</svg>
