<svg width="19" height="21" viewBox="0 0 19 21" fill="none" xmlns="http://www.w3.org/2000/svg">
<path d="M2.8623 12.5742H15.2617V14.6859H2.8623V12.5742Z" fill="#A5A5A5"/>
<path d="M5.67773 9.58984H12.446V11.7015H5.67773V9.58984Z" fill="#A5A5A5"/>
<path d="M0 20.6941H18.1243V15.0161H0V20.6941ZM14.903 17.1278H15.9649V18.5356H14.903V17.1278ZM12.779 17.1278H13.841V18.5356H12.779V17.1278ZM10.6551 17.1278H11.7171V18.5356H10.6551V17.1278ZM8.53116 17.1278H9.59313V18.5356H8.53116V17.1278ZM6.40722 17.1278H7.46919V18.5356H6.40722V17.1278ZM4.28328 17.1278H5.34525V18.5356H4.28328V17.1278ZM2.15934 17.1278H3.22131V18.5356H2.15934V17.1278Z" fill="#A5A5A5"/>
<path d="M13.2855 5.67801C13.2855 4.89918 13.0724 4.13894 12.6682 3.47907L11.6303 4.51632C11.3966 4.14743 10.8271 2.22705 9.06218 0C7.26598 2.25525 6.77165 4.07803 6.49408 4.51632L5.45613 3.47973C5.05194 4.13894 4.83887 4.89918 4.83887 5.67801C4.83887 8.00688 6.73329 9.90132 9.06218 9.90132C11.3911 9.90132 13.2855 8.00688 13.2855 5.67801Z" fill="#A5A5A5"/>
</svg>
