<svg xmlns="http://www.w3.org/2000/svg" width="16.654" height="20" viewBox="0 0 16.654 20">
  <g id="idea" transform="translate(-0.275)">
    <path id="Path_1164" data-name="Path 1164" d="M181.017,188.362a2.02,2.02,0,0,0-.685,1.655.771.771,0,0,1,.338.346,1.179,1.179,0,0,0,.433-.779.287.287,0,1,1,.566.088,1.865,1.865,0,0,1-.357.853.708.708,0,0,1,.3.384.635.635,0,0,1-.013.388.286.286,0,0,1-.541-.187.073.073,0,0,0,.006-.039c-.01-.035-.086-.1-.228-.135-.028.014-.081.028-.081.041v1.117a.275.275,0,0,1-.293.265h-1.856V193.4a2.314,2.314,0,0,1,.674-.385.287.287,0,1,1,.2.535c-.117.045-.707.291-.81.729a.618.618,0,0,0-.012.209.286.286,0,0,1-.057.2v2.079c.006.021.012.043.017.065a.286.286,0,0,1-.017.181v4.5a1.655,1.655,0,0,0,1.228.429c.494-.068.8-.7.859-.825a.286.286,0,0,1,.416-.123,1.653,1.653,0,0,0,.98.264,1.5,1.5,0,0,0,.418-.093l0,0a1.9,1.9,0,0,1-.64-1.033.287.287,0,1,1,.557-.136,1.314,1.314,0,0,0,.446.725,2.115,2.115,0,0,0,2.612-.063,1.25,1.25,0,0,0,.082-1.5.287.287,0,0,1,.122-.416c.933-.427,1.146-1.013,1.035-1.419a1.966,1.966,0,0,0-.933-1,.289.289,0,0,1-.118-.435,1.607,1.607,0,0,0,.294-1.317,2.105,2.105,0,0,0-1.037-1.367,2.574,2.574,0,0,0-3.258.6.287.287,0,0,1-.463-.338,2.914,2.914,0,0,1,1.842-1.115,3.241,3.241,0,0,1,1.563.088,1.17,1.17,0,0,0-.165-.763,1.549,1.549,0,0,0-.924-.579.287.287,0,0,1-.175-.46,1.521,1.521,0,0,0-.3-2.194A1.986,1.986,0,0,0,181.017,188.362Zm.105,10.573c-.423.146-.634.4-.618.572a.323.323,0,0,0,.088.174.287.287,0,1,1-.43.379.885.885,0,0,1-.229-.5c-.045-.477.358-.946,1-1.168a.287.287,0,0,1,.187.542Zm.326-2.057a1.341,1.341,0,0,0,.85.278,1.17,1.17,0,0,0,.457-.123.286.286,0,0,1,.081-.044,1.342,1.342,0,0,0,.625-.873.287.287,0,0,1,.561.118,1.911,1.911,0,0,1-.459.891.9.9,0,0,1,.415.486.857.857,0,0,1-.276.916.287.287,0,0,1-.38-.429.3.3,0,0,0,.112-.306.458.458,0,0,0-.424-.248,1.732,1.732,0,0,1-.68.184l-.095,0a1.91,1.91,0,0,1-1.133-.4.287.287,0,1,1,.346-.457Zm0,0" transform="translate(-169.812 -181.95)" fill="#a5a5a5"/>
    <path id="Path_1165" data-name="Path 1165" d="M166.571,145.568a.424.424,0,1,0-.424.424A.424.424,0,0,0,166.571,145.568Zm0,0" transform="translate(-157.544 -139.099)" fill="#a5a5a5"/>
    <path id="Path_1166" data-name="Path 1166" d="M141.14,237.975a.207.207,0,0,0-.2-.2h-3.133a.207.207,0,0,0-.2.2v1.088h3.535Zm0,0" transform="translate(-130.77 -227.899)" fill="#a5a5a5"/>
    <path id="Path_1167" data-name="Path 1167" d="M1.337,198.741a.287.287,0,0,1,.122.416,1.25,1.25,0,0,0,.082,1.5,2.115,2.115,0,0,0,2.612.063,1.315,1.315,0,0,0,.446-.726.287.287,0,0,1,.557.136,1.9,1.9,0,0,1-.64,1.033l-.007.006a1.438,1.438,0,0,0,.4.09A1.539,1.539,0,0,0,5.868,201a.286.286,0,0,1,.416.123c.283.628.6.8.817.825a1.448,1.448,0,0,0,1.12-.4v-4.673a1.37,1.37,0,0,0-.733-.629.287.287,0,1,1,.2-.536A2.311,2.311,0,0,1,8.22,196v-3.634H6.555a.275.275,0,0,1-.293-.265v-1.117c0-.012-.054-.026-.081-.041-.143.032-.216.1-.226.135a.071.071,0,0,0,0,.039.287.287,0,0,1-.542.187.637.637,0,0,1-.013-.388.709.709,0,0,1,.3-.384,1.865,1.865,0,0,1-.357-.853.287.287,0,1,1,.566-.088,1.18,1.18,0,0,0,.433.779.772.772,0,0,1,.295-.322,2.076,2.076,0,0,0-.67-1.693,1.983,1.983,0,0,0-1.993.094,1.521,1.521,0,0,0-.3,2.194.287.287,0,0,1-.176.461,1.55,1.55,0,0,0-.923.579,1.172,1.172,0,0,0-.165.763,3.237,3.237,0,0,1,1.563-.088,2.914,2.914,0,0,1,1.842,1.115.287.287,0,0,1-.463.338,2.574,2.574,0,0,0-3.258-.6,2.105,2.105,0,0,0-1.037,1.367,1.608,1.608,0,0,0,.294,1.317.287.287,0,0,1-.119.435,1.966,1.966,0,0,0-.932,1c-.112.406.1.992,1.035,1.419Zm5.746.738a1.057,1.057,0,0,1-.229.585.287.287,0,1,1-.43-.379.5.5,0,0,0,.088-.26c.015-.163-.221-.349-.618-.486a.287.287,0,0,1,.187-.542c.931.321,1.028.815,1,1.082ZM3.216,195.9a.287.287,0,0,1,.339.222,1.342,1.342,0,0,0,.625.873.281.281,0,0,1,.081.044,1.171,1.171,0,0,0,.457.123,1.343,1.343,0,0,0,.85-.278.287.287,0,0,1,.346.457,1.912,1.912,0,0,1-1.133.4l-.095,0a1.734,1.734,0,0,1-.68-.183.459.459,0,0,0-.424.248.3.3,0,0,0,.112.306.287.287,0,1,1-.38.429.857.857,0,0,1-.275-.916.9.9,0,0,1,.415-.486,1.909,1.909,0,0,1-.459-.891.287.287,0,0,1,.222-.34Zm0,0" transform="translate(0 -181.954)" fill="#a5a5a5"/>
    <path id="Path_1168" data-name="Path 1168" d="M110.195,79.091a2.983,2.983,0,0,0,.694,1.186,2.731,2.731,0,0,1,.871,2.013h1.095V79.817a1,1,0,1,1,.573,0v2.472h1.053a2.652,2.652,0,0,1,.885-2,3.08,3.08,0,0,0-2.277-5.2,3.09,3.09,0,0,0-2.922,3.9.28.28,0,0,1,.029.1Zm0,0" transform="translate(-104.538 -72.15)" fill="#a5a5a5"/>
    <path id="Path_1169" data-name="Path 1169" d="M166.892,1.966a.287.287,0,0,0,.287-.287V.287a.287.287,0,1,0-.573,0V1.68A.287.287,0,0,0,166.892,1.966Zm0,0" transform="translate(-158.385)" fill="#a5a5a5"/>
    <path id="Path_1170" data-name="Path 1170" d="M238.836,41.721a.286.286,0,0,0,.2-.078l1.024-.967a.287.287,0,0,0-.394-.417l-1.024.967a.287.287,0,0,0,.2.5Zm0,0" transform="translate(-226.892 -38.261)" fill="#a5a5a5"/>
    <path id="Path_1171" data-name="Path 1171" d="M78.25,38.343a.287.287,0,1,0,.408-.4l-.981-1a.287.287,0,1,0-.408.4Zm0,0" transform="translate(-73.236 -35.097)" fill="#a5a5a5"/>
  </g>
</svg>
