<svg xmlns="http://www.w3.org/2000/svg" width="42" height="42" viewBox="0 0 42 42">
  <g id="Group_9" data-name="Group 9" transform="translate(-246 -591)">
    <rect id="Rectangle_5" data-name="Rectangle 5" width="42" height="42" rx="5" transform="translate(246 591)" fill="#cbcbcb" opacity="0.3"/>
    <g id="google" transform="translate(255 600)">
      <path id="Path_3" data-name="Path 3" d="M54.414,302.584A11.867,11.867,0,0,1,36.4,299.533l.779-3.592,3.454-.641a6.373,6.373,0,0,0,6.061,4.486,6.237,6.237,0,0,0,3.712-1.209l3.319.506Z" transform="translate(-34.694 -281.458)" fill="#59c36a"/>
      <path id="Path_4" data-name="Path 4" d="M263.72,369.208l-.689-3.5-3.319-.506A6.237,6.237,0,0,1,256,366.409v5.672A11.982,11.982,0,0,0,263.72,369.208Z" transform="translate(-244 -348.081)" fill="#00a66c"/>
      <g id="Connected_Home_1_" transform="translate(0 5.925)">
        <g id="Group_8" data-name="Group 8">
          <g id="Group_7" data-name="Group 7">
            <g id="Group_6" data-name="Group 6">
              <path id="Path_5" data-name="Path 5" d="M5.672,132.475a6.553,6.553,0,0,0,.267,1.842L1.706,138.55a11.668,11.668,0,0,1,0-12.15l3.4.585.836,3.648a6.552,6.552,0,0,0-.267,1.842Z" transform="translate(0 -126.4)" fill="#ffda2d"/>
            </g>
          </g>
        </g>
      </g>
      <path id="Path_6" data-name="Path 6" d="M253.7,198.813a11.981,11.981,0,0,1-4.28,9.127l-4.008-4.008a6.223,6.223,0,0,0,1.955-2.306H241.7a.7.7,0,0,1-.7-.7V196.7a.7.7,0,0,1,.7-.7h11.1a.7.7,0,0,1,.689.577A11.924,11.924,0,0,1,253.7,198.813Z" transform="translate(-229.703 -186.813)" fill="#4086f4"/>
      <path id="Path_7" data-name="Path 7" d="M261.667,201.625a6.223,6.223,0,0,1-1.955,2.306l4.008,4.008a11.885,11.885,0,0,0,4.069-11.363A.7.7,0,0,0,267.1,196H256v5.625Z" transform="translate(-244 -186.813)" fill="#4175df"/>
      <path id="Path_8" data-name="Path 8" d="M54.611,3.351a.71.71,0,0,1-.2.52l-3.009,3a.689.689,0,0,1-.914.07,6.29,6.29,0,0,0-3.8-1.266,6.373,6.373,0,0,0-6.061,4.486L36.4,5.925A11.859,11.859,0,0,1,54.358,2.831a.739.739,0,0,1,.253.52Z" transform="translate(-34.694 0)" fill="#ff641a"/>
      <path id="Path_9" data-name="Path 9" d="M259.8,6.937a.688.688,0,0,0,.914-.07l3.009-3a.709.709,0,0,0,.2-.52.74.74,0,0,0-.253-.52A11.964,11.964,0,0,0,256,0V5.672A6.29,6.29,0,0,1,259.8,6.937Z" transform="translate(-244 0)" fill="#f03800"/>
    </g>
  </g>
</svg>
