<svg width="25" height="24" viewBox="0 0 25 24" fill="none" xmlns="http://www.w3.org/2000/svg">
<path d="M23.4665 12.3848C23.4665 18.334 18.6436 23.1569 12.694 23.1569C6.74433 23.1569 1.9209 18.3345 1.9209 12.3848C1.9209 6.43468 6.74376 1.61182 12.6934 1.61182C18.6431 1.61182 23.4665 6.43468 23.4665 12.3848Z" fill="#F2F2F2"/>
<path d="M10.384 11.1985C10.5492 10.9646 10.632 10.7389 10.632 10.5197C10.632 10.3025 10.5603 10.1202 10.4163 9.97325C10.2739 9.82726 10.0896 9.75406 9.86481 9.75406C9.45419 9.75406 9.0638 10.047 8.69608 10.6329L7.52734 9.94043C7.83289 9.46669 8.16826 9.10808 8.53244 8.86516C8.8976 8.62173 9.36224 8.5 9.92641 8.5C10.4895 8.5 10.9861 8.67931 11.4128 9.03842C11.8401 9.39653 12.0543 9.8839 12.0543 10.5011C12.0543 10.8375 11.9684 11.1602 11.7967 11.4688C11.6245 11.7774 11.3088 12.1723 10.8467 12.6527L9.66884 13.8779H12.2502V15.1861H7.63947V14.1022L9.5567 12.138C9.94365 11.745 10.2189 11.4323 10.384 11.1985Z" fill="#40596B"/>
<path d="M15.7197 12.3621V11.2222H17.1222V12.3621H17.8611V13.6248H17.1222V15.1865H15.7197V13.6248H13.0918V12.5121L15.4207 8.65039H17.0106L14.7944 12.3621H15.7197Z" fill="#40596B"/>
<path d="M12.2299 6.01636L13.0365 4.59004C10.041 2.89151 6.36459 3.52335 4.0918 5.90878C4.25293 5.33149 4.48271 4.76178 4.7913 4.21579C6.79642 0.670237 11.2844 -0.581314 14.8244 1.42632L15.631 0L17.0507 4.77741L12.2299 6.01636Z" fill="#FF7058"/>
<path d="M7.4108 15.9707L5.77288 15.9853C5.79915 19.4279 8.18407 22.2956 11.3861 23.0719C10.8058 23.2198 10.1972 23.3057 9.57095 23.3118C5.4981 23.3482 2.16974 20.088 2.13792 16.0182L0.5 16.0328L3.92737 12.4155L7.4108 15.9707Z" fill="#FFD15C"/>
<path d="M18.4409 15.1665L19.2727 16.5781C22.241 14.8331 23.532 11.334 22.6031 8.17334C23.0223 8.60162 23.4001 9.08496 23.7189 9.62437C25.7871 13.133 24.627 17.6463 21.1188 19.709L21.9501 21.1196L17.1035 19.9605L18.4409 15.1665Z" fill="#84DBFF"/>
<path d="M18.9155 9.88211V11.1615H18.2539V7.88916H18.9155V9.05334C19.1155 8.85031 19.3392 8.74828 19.5877 8.74828C19.8362 8.74828 20.0453 8.83716 20.216 9.01344C20.3867 9.18921 20.4716 9.42458 20.4716 9.71852V11.1605H19.8105V9.86346C19.8105 9.4993 19.6761 9.317 19.4089 9.317C19.2766 9.317 19.1614 9.36548 19.063 9.46094C18.9645 9.55635 18.9155 9.69679 18.9155 9.88211Z" fill="#40596B"/>
</svg>
