<svg xmlns="http://www.w3.org/2000/svg" width="24" height="24" viewBox="0 0 24 24">
  <g id="Email" transform="translate(20506.605 23103.385)">
    <rect id="Rectangle_552" data-name="Rectangle 552" width="24" height="24" transform="translate(-20506.605 -23103.385)" fill="none"/>
    <g id="Group_1099" data-name="Group 1099">
      <path id="Path_2453" data-name="Path 2453" d="M98.094,140.39a1.644,1.644,0,0,0-.09.536v9.923a1.645,1.645,0,0,0,.156.7l6.661-5.55Z" transform="translate(-20602.531 -23237.273)" fill="#a5a5a5"/>
      <path id="Path_2454" data-name="Path 2454" d="M435.606,140.39,428.88,146l6.661,5.551a1.645,1.645,0,0,0,.156-.7v-9.923a1.645,1.645,0,0,0-.09-.536Z" transform="translate(-20920.379 -23237.273)" fill="#a5a5a5"/>
      <path id="Path_2455" data-name="Path 2455" d="M129.656,299.755a2.554,2.554,0,0,1-3.176,0l-.743-.62-6.766,5.638a1.641,1.641,0,0,0,.828.224h16.538a1.642,1.642,0,0,0,.828-.224l-6.766-5.638Z" transform="translate(-20622.674 -23389.768)" fill="#a5a5a5"/>
      <path id="Path_2456" data-name="Path 2456" d="M124.537,119.547a1.482,1.482,0,0,0,.953-.324l8.289-6.907a1.646,1.646,0,0,0-.973-.318H116.268a1.647,1.647,0,0,0-.973.318l8.289,6.908a1.486,1.486,0,0,0,.953.324Z" transform="translate(-20619.141 -23209.998)" fill="#a5a5a5"/>
    </g>
  </g>
</svg>
