<svg width="24" height="25" viewBox="0 0 24 25" fill="none" xmlns="http://www.w3.org/2000/svg">
<circle cx="17" cy="5" r="5" fill="#59D6D6"/>
<path d="M20.5201 16.2102L18.7201 14.4002V9.94018C18.7696 6.51552 16.2856 3.57907 12.9001 3.06018C10.9779 2.80703 9.03973 3.39394 7.58084 4.67094C6.12196 5.94794 5.28366 7.79135 5.28012 9.73018L5.28012 14.4002L3.48012 16.2102C3.01788 16.6801 2.88193 17.3812 3.13499 17.9898C3.38806 18.5985 3.98095 18.9965 4.64011 19.0002L8.00012 19.0002V19.3402C8.09737 21.4539 9.88613 23.0906 12.0001 23.0002C14.1141 23.0906 15.9029 21.4539 16.0001 19.3402V19.0002H19.3601C20.0193 18.9965 20.6122 18.5985 20.8652 17.9898C21.1183 17.3812 20.9824 16.6801 20.5201 16.2102ZM14.0001 19.3402C13.8849 20.3395 13.0035 21.071 12.0001 21.0002C10.9967 21.071 10.1153 20.3395 10.0001 19.3402V19.0002H14.0001V19.3402Z" fill="black"/>
</svg>
