<svg xmlns="http://www.w3.org/2000/svg" width="24" height="24" viewBox="0 0 24 24">
  <g id="Group_988" data-name="Group 988" transform="translate(-60 -2691)">
    <rect id="Rectangle_237" data-name="Rectangle 237" width="24" height="24" transform="translate(60 2691)" fill="none"/>
    <path id="Path_1157" data-name="Path 1157" d="M388.607,388.311c-1.083,1.083-1.41,2.39-.761,3.04.781.781,2.209.072,3.041-.76,1.083-1.083,1.41-2.39.76-3.041S389.69,387.228,388.607,388.311Zm0,0" transform="translate(-310.813 2320.484)" fill="#a5a5a5"/>
    <path id="Path_1158" data-name="Path 1158" d="M451.47,90.093a.537.537,0,1,0-.6.894.754.754,0,0,1,0,1.256,1.829,1.829,0,0,0,0,3.044.537.537,0,1,0,.6-.894.755.755,0,0,1,0-1.256,1.829,1.829,0,0,0,0-3.044Zm0,0" transform="translate(-371.117 2607.051)" fill="#a5a5a5"/>
    <path id="Path_1159" data-name="Path 1159" d="M376.47.092a.537.537,0,1,0-.6.894.755.755,0,0,1,0,1.256,1.829,1.829,0,0,0,0,3.044.537.537,0,1,0,.6-.894.755.755,0,0,1,0-1.256,1.829,1.829,0,0,0,0-3.044Zm0,0" transform="translate(-298.805 2693.826)" fill="#a5a5a5"/>
    <path id="Path_1160" data-name="Path 1160" d="M241.617,242.185a.537.537,0,0,0,.758-.76l0,0,0,0a.537.537,0,0,0-.76.759l0,0,0,0Zm0,0" transform="translate(-169.988 2461.207)" fill="#a5a5a5"/>
    <path id="Path_1161" data-name="Path 1161" d="M204.9,209.86q.835.815,1.679,1.558a9.489,9.489,0,0,1,5.177-5.187q-.745-.844-1.559-1.68a11.583,11.583,0,0,0-1.953,1.263,1.608,1.608,0,0,1-2.094,2.086A11.466,11.466,0,0,0,204.9,209.86Zm0,0" transform="translate(-134.74 2496.605)" fill="#a5a5a5"/>
    <path id="Path_1162" data-name="Path 1162" d="M8.284,10.274a1.576,1.576,0,0,1,2.159-2.152,12.7,12.7,0,0,1,1.9-1.258C7.9,2.527,2.642-.918.943.778S2.688,7.731,7.024,12.17a12.645,12.645,0,0,1,1.26-1.9Zm0,0" transform="translate(62.332 2693.502)" fill="#a5a5a5"/>
    <path id="Path_1163" data-name="Path 1163" d="M277.369,277.3a8.172,8.172,0,0,0-1.982,3.1,36.529,36.529,0,0,0,2.945,2.246,4.275,4.275,0,0,1,1.406-2.977,4.334,4.334,0,0,1,2.926-1.408c.018,0,.034,0,.052,0a36.529,36.529,0,0,0-2.248-2.939A8.238,8.238,0,0,0,277.369,277.3Zm0,0" transform="translate(-202.705 2428.367)" fill="#a5a5a5"/>
  </g>
</svg>
