<svg width="18" height="25" viewBox="0 0 18 25" fill="none" xmlns="http://www.w3.org/2000/svg">
<path d="M2.36719 7.46254V14.1567H15.6328V7.46254C15.6328 3.80561 12.6573 0.830078 8.99965 0.830078C5.34198 0.830078 2.36719 3.80561 2.36719 7.46254ZM3.48301 7.46254C3.48301 4.41559 5.9527 1.94516 8.99965 1.94516C12.0466 1.94516 14.5163 4.41559 14.5163 7.46254V13.0409H3.48301V7.46254Z" fill="#F3F3F3"/>
<path d="M3.48242 7.46269V13.0411H14.5164V7.46269C14.5164 4.41575 12.0467 1.94531 8.9998 1.94531C5.95287 1.94531 3.48242 4.41575 3.48242 7.46269ZM4.59825 7.46269C4.59825 5.03615 6.57253 3.06188 8.9998 3.06188C11.4271 3.06188 13.4014 5.03615 13.4014 7.46269V11.9252H4.59825V7.46269Z" fill="#E5E5E5"/>
<path d="M1.59714 24.4527H16.4041C17.2254 24.4527 17.8919 23.787 17.8919 22.965V12.2121C17.8919 11.3909 17.2254 10.7244 16.4041 10.7244H1.59714C0.77515 10.7244 0.109375 11.3909 0.109375 12.2121V22.965C0.109375 23.787 0.77515 24.4527 1.59714 24.4527Z" fill="#FFCC5B"/>
<path d="M11.591 18.5404H12.1541C12.6317 18.5404 13.0185 18.1513 13.0155 17.6737V17.6142V17.6016C13.0185 17.0987 12.6094 16.6873 12.1073 16.6873H11.379C10.8226 16.6873 10.3234 16.2708 10.2944 15.7151C10.2632 15.1222 10.7348 14.632 11.321 14.632H13.9484C14.4453 14.632 14.8158 14.2147 14.8098 13.7178C14.8098 13.7141 14.8098 13.7096 14.8098 13.7051C14.8098 13.7007 14.8098 13.6969 14.8098 13.6925C14.8158 13.1956 14.4453 12.779 13.9484 12.779H13.0989C12.5425 12.779 12.0433 12.3624 12.0143 11.8067C11.983 11.2139 12.4547 10.7236 13.0408 10.7236H16.4047C17.2259 10.7236 17.8925 11.3894 17.8925 12.2114V22.9642C17.8925 23.7862 17.2259 24.452 16.4047 24.452H12.0478C11.4802 24.452 11.0197 23.9915 11.0197 23.424C11.0197 22.8564 11.4802 22.3959 12.0478 22.3959H13.4225C13.8978 22.3959 14.2846 22.0068 14.2824 21.5315V21.5204C14.2824 21.4995 14.2831 21.4787 14.2846 21.4579C14.3129 20.9892 13.941 20.5942 13.4716 20.5942H11.6491C11.0926 20.5942 10.5935 20.1776 10.5645 19.6219C10.534 19.0306 11.0056 18.5404 11.591 18.5404Z" fill="#FDBC4B"/>
<path d="M6.76465 16.3213C6.76465 15.0865 7.76591 14.0859 9.00002 14.0859C10.2348 14.0859 11.2354 15.0872 11.2354 16.3213C11.2354 17.1455 10.7839 17.8582 10.1196 18.2457L10.426 21.0911H7.57326L7.87973 18.2457C7.21544 17.8582 6.76465 17.1463 6.76465 16.3213Z" fill="#464646"/>
<path d="M2.36694 16.2471C2.77756 16.2471 3.11082 16.5796 3.11082 16.991V21.2713C3.11082 21.6826 2.77756 22.0152 2.36694 22.0152C1.95631 22.0152 1.62305 21.6826 1.62305 21.2713V16.991C1.62305 16.5804 1.95631 16.2471 2.36694 16.2471Z" fill="#FFD769"/>
<path d="M2.36694 13.1621C2.77756 13.1621 3.11082 13.4946 3.11082 13.906V14.7771C3.11082 15.1884 2.77756 15.521 2.36694 15.521C1.95631 15.521 1.62305 15.1884 1.62305 14.7771V13.906C1.62305 13.4946 1.95631 13.1621 2.36694 13.1621Z" fill="#FFD769"/>
</svg>
