<svg width="142" height="124" viewBox="0 0 142 124" fill="none" xmlns="http://www.w3.org/2000/svg">
<rect x="33.6768" y="11.2287" width="14.4713" height="45.8658" fill="#F5F5F5"/>
<rect x="40.9121" y="11.2287" width="7.23567" height="45.7401" fill="#EBEBEB"/>
<rect x="35.3291" y="6.72333" width="5.11018" height="4.50246" fill="#F5F5F5"/>
<rect x="39.2207" y="6.72333" width="1.21842" height="4.50246" fill="#EBEBEB"/>
<path d="M32.4707 11.2287V10.9653H48.5736V11.2287" fill="#E0E0E0"/>
<rect x="36.5332" y="13.1926" width="1.22441" height="2.58353" fill="#FAFAFA"/>
<path d="M40.9124 16.7881C40.9124 16.815 39.2929 16.839 37.2931 16.839C35.2933 16.839 33.6768 16.815 33.6768 16.7881C33.6768 16.7611 35.2963 16.7402 37.2931 16.7402C39.2899 16.7402 40.9124 16.7611 40.9124 16.7881Z" fill="#E0E0E0"/>
<rect x="43.8311" y="13.1926" width="1.22441" height="2.58353" fill="#E0E0E0"/>
<path d="M48.2103 16.7881C48.2103 16.815 46.5907 16.839 44.5939 16.839C42.5972 16.839 40.9746 16.815 40.9746 16.7881C40.9746 16.7611 42.5942 16.7402 44.5939 16.7402C46.5937 16.7402 48.2103 16.7611 48.2103 16.7881Z" fill="#E0E0E0"/>
<rect x="43.8311" y="18.3207" width="1.22441" height="2.58353" fill="#E0E0E0"/>
<path d="M48.2103 21.9162C48.2103 21.9432 46.5907 21.9671 44.5939 21.9671C42.5972 21.9671 40.9746 21.9432 40.9746 21.9162C40.9746 21.8893 42.5942 21.8683 44.5939 21.8683C46.5937 21.8683 48.2103 21.8893 48.2103 21.9162Z" fill="#E0E0E0"/>
<rect x="43.8311" y="23.6015" width="1.22441" height="2.58353" fill="#E0E0E0"/>
<path d="M48.2103 27.1999C48.2103 27.2269 46.5907 27.2478 44.5939 27.2478C42.5972 27.2478 40.9746 27.2269 40.9746 27.1999C40.9746 27.173 42.5942 27.152 44.5939 27.152C46.5937 27.152 48.2103 27.173 48.2103 27.1999Z" fill="#E0E0E0"/>
<rect x="43.8311" y="28.8854" width="1.22441" height="2.58353" fill="#E0E0E0"/>
<path d="M48.2103 32.4837C48.2103 32.5106 46.5907 32.5316 44.5939 32.5316C42.5972 32.5316 40.9746 32.5106 40.9746 32.4837C40.9746 32.4567 42.5942 32.4328 44.5939 32.4328C46.5937 32.4328 48.2103 32.4567 48.2103 32.4837Z" fill="#E0E0E0"/>
<rect x="43.8311" y="34.0195" width="1.22441" height="2.58353" fill="#E0E0E0"/>
<path d="M48.2103 37.6179C48.2103 37.6449 46.5907 37.6688 44.5939 37.6688C42.5972 37.6688 40.9746 37.6449 40.9746 37.6179C40.9746 37.591 42.5942 37.57 44.5939 37.57C46.5937 37.57 48.2103 37.588 48.2103 37.6179Z" fill="#E0E0E0"/>
<rect x="43.8311" y="39.1716" width="1.22441" height="2.58353" fill="#E0E0E0"/>
<rect x="43.8311" y="44.3925" width="1.22441" height="2.58353" fill="#E0E0E0"/>
<path d="M48.2103 42.7671C48.2103 42.794 46.5907 42.818 44.5939 42.818C42.5972 42.818 40.9746 42.794 40.9746 42.7671C40.9746 42.7401 42.5942 42.7192 44.5939 42.7192C46.5937 42.7192 48.2103 42.7401 48.2103 42.7671Z" fill="#E0E0E0"/>
<rect x="36.5332" y="18.3986" width="1.22441" height="2.58353" fill="#FAFAFA"/>
<path d="M40.9126 21.9941C40.9126 22.0211 39.293 22.045 37.2932 22.045C35.2935 22.045 33.6709 22.0211 33.6709 21.9941C33.6709 21.9672 35.2905 21.9462 37.2872 21.9462C39.284 21.9462 40.9126 21.9672 40.9126 21.9941Z" fill="#E0E0E0"/>
<rect x="36.5332" y="23.6047" width="1.22441" height="2.58353" fill="#FAFAFA"/>
<path d="M40.9126 27.2029C40.9126 27.2299 39.293 27.2508 37.2932 27.2508C35.2935 27.2508 33.6709 27.2299 33.6709 27.2029C33.6709 27.176 35.2905 27.152 37.2872 27.152C39.284 27.152 40.9126 27.176 40.9126 27.2029Z" fill="#E0E0E0"/>
<rect x="36.5332" y="28.8105" width="1.22441" height="2.58353" fill="#FAFAFA"/>
<path d="M40.9126 32.409C40.9126 32.4359 39.293 32.4569 37.2932 32.4569C35.2935 32.4569 33.6709 32.4359 33.6709 32.409C33.6709 32.382 35.2905 32.3581 37.2872 32.3581C39.284 32.3581 40.9126 32.382 40.9126 32.409Z" fill="#E0E0E0"/>
<rect x="36.5332" y="34.0195" width="1.22441" height="2.58353" fill="#FAFAFA"/>
<path d="M40.9126 37.6179C40.9126 37.6449 39.293 37.6688 37.2932 37.6688C35.2935 37.6688 33.6709 37.6419 33.6709 37.6179C33.6709 37.594 35.2905 37.57 37.2872 37.57C39.284 37.57 40.9126 37.588 40.9126 37.6179Z" fill="#E0E0E0"/>
<rect x="36.5332" y="39.2255" width="1.22441" height="2.58353" fill="#FAFAFA"/>
<path d="M40.9124 42.8208C40.9124 42.8477 39.2929 42.8717 37.2931 42.8717C35.2933 42.8717 33.6768 42.8477 33.6768 42.8208C33.6768 42.7938 35.2963 42.7729 37.2931 42.7729C39.2899 42.7729 40.9124 42.7938 40.9124 42.8208Z" fill="#E0E0E0"/>
<rect x="36.5332" y="44.4316" width="1.22441" height="2.58353" fill="#FAFAFA"/>
<rect x="86.6768" y="20.9523" width="14.4713" height="45.8658" fill="#F5F5F5"/>
<rect x="93.915" y="20.9523" width="7.23567" height="45.7401" fill="#EBEBEB"/>
<rect x="88.332" y="16.4496" width="5.11018" height="4.50246" fill="#F5F5F5"/>
<rect x="92.2236" y="16.4496" width="1.21842" height="4.50246" fill="#EBEBEB"/>
<path d="M85.4727 20.9521V20.6887H101.573V20.9521" fill="#E0E0E0"/>
<rect x="89.5352" y="22.916" width="1.22441" height="2.58353" fill="#FAFAFA"/>
<path d="M93.9154 26.5145C93.9154 26.5414 92.2958 26.5624 90.2961 26.5624C88.2963 26.5624 86.6768 26.5414 86.6768 26.5145C86.6768 26.4875 88.2993 26.4636 90.2961 26.4636C92.2928 26.4636 93.9154 26.4875 93.9154 26.5145Z" fill="#E0E0E0"/>
<rect x="96.834" y="22.916" width="1.22441" height="2.58353" fill="#E0E0E0"/>
<path d="M101.214 26.5145C101.214 26.5414 99.5946 26.5624 97.5948 26.5624C95.5951 26.5624 93.9785 26.5414 93.9785 26.5145C93.9785 26.4875 95.5981 26.4636 97.5948 26.4636C99.5916 26.4636 101.214 26.4875 101.214 26.5145Z" fill="#E0E0E0"/>
<rect x="96.834" y="28.0441" width="1.22441" height="2.58353" fill="#E0E0E0"/>
<path d="M101.214 31.6307C101.214 31.6576 99.5946 31.6786 97.5948 31.6786C95.5951 31.6786 93.9785 31.6576 93.9785 31.6307C93.9785 31.6037 95.5981 31.5798 97.5948 31.5798C99.5916 31.5798 101.214 31.6307 101.214 31.6307Z" fill="#E0E0E0"/>
<rect x="96.834" y="33.3281" width="1.22441" height="2.58353" fill="#E0E0E0"/>
<path d="M101.214 36.9263C101.214 36.9533 99.5946 36.9742 97.5948 36.9742C95.5951 36.9742 93.9785 36.9533 93.9785 36.9263C93.9785 36.8994 95.5981 36.8754 97.5948 36.8754C99.5916 36.8754 101.214 36.8994 101.214 36.9263Z" fill="#E0E0E0"/>
<rect x="96.834" y="38.6118" width="1.22441" height="2.58353" fill="#E0E0E0"/>
<path d="M101.214 42.2073C101.214 42.2372 99.5946 42.2582 97.5948 42.2582C95.5951 42.2582 93.9785 42.2372 93.9785 42.2073C93.9785 42.1773 95.5981 42.1594 97.5948 42.1594C99.5916 42.1594 101.214 42.1803 101.214 42.2073Z" fill="#E0E0E0"/>
<rect x="96.834" y="43.7429" width="1.22441" height="2.58353" fill="#E0E0E0"/>
<path d="M101.214 47.3414C101.214 47.3683 99.5946 47.3893 97.5948 47.3893C95.5951 47.3893 93.9785 47.3683 93.9785 47.3414C93.9785 47.3144 95.5981 47.2905 97.5948 47.2905C99.5916 47.2905 101.214 47.3144 101.214 47.3414Z" fill="#E0E0E0"/>
<rect x="96.834" y="48.895" width="1.22441" height="2.58353" fill="#E0E0E0"/>
<rect x="96.834" y="54.1159" width="1.22441" height="2.58353" fill="#E0E0E0"/>
<path d="M101.214 52.4934C101.214 52.5204 99.5946 52.5413 97.5948 52.5413C95.5951 52.5413 93.9785 52.5204 93.9785 52.4934C93.9785 52.4665 95.5981 52.4455 97.5948 52.4455C99.5916 52.4455 101.214 52.4665 101.214 52.4934Z" fill="#E0E0E0"/>
<rect x="89.5352" y="28.122" width="1.22441" height="2.58353" fill="#FAFAFA"/>
<path d="M93.9154 31.7204C93.9154 31.7474 92.2958 31.7684 90.2961 31.7684C88.2963 31.7684 86.6768 31.7474 86.6768 31.7204C86.6768 31.6935 88.2993 31.6725 90.2961 31.6725C92.2928 31.6725 93.9154 31.6935 93.9154 31.7204Z" fill="#E0E0E0"/>
<rect x="89.5352" y="33.331" width="1.22441" height="2.58353" fill="#FAFAFA"/>
<path d="M93.9154 36.9263C93.9154 36.9532 92.2958 36.9771 90.2961 36.9771C88.2963 36.9771 86.6768 36.9532 86.6768 36.9263C86.6768 36.8993 88.2993 36.8784 90.2961 36.8784C92.2928 36.8784 93.9154 36.8993 93.9154 36.9263Z" fill="#E0E0E0"/>
<rect x="89.5352" y="38.537" width="1.22441" height="2.58353" fill="#FAFAFA"/>
<path d="M93.9154 42.1323C93.9154 42.1622 92.2958 42.1832 90.2961 42.1832C88.2963 42.1832 86.6768 42.1622 86.6768 42.1323C86.6768 42.1024 88.2993 42.0844 90.2961 42.0844C92.2928 42.0844 93.9154 42.1084 93.9154 42.1323Z" fill="#E0E0E0"/>
<rect x="89.5352" y="43.7429" width="1.22441" height="2.58353" fill="#FAFAFA"/>
<path d="M93.9154 47.3414C93.9154 47.3683 92.2958 47.3893 90.2961 47.3893C88.2963 47.3893 86.6768 47.3683 86.6768 47.3414C86.6768 47.3144 88.2993 47.2905 90.2961 47.2905C92.2928 47.2905 93.9154 47.3144 93.9154 47.3414Z" fill="#E0E0E0"/>
<rect x="89.5352" y="48.9518" width="1.22441" height="2.58353" fill="#FAFAFA"/>
<path d="M93.9154 52.5473C93.9154 52.5743 92.2958 52.5952 90.2961 52.5952C88.2963 52.5952 86.6768 52.5743 86.6768 52.5473C86.6768 52.5204 88.2993 52.4995 90.2961 52.4995C92.2928 52.4995 93.9154 52.5204 93.9154 52.5473Z" fill="#E0E0E0"/>
<rect x="89.5352" y="54.1579" width="1.22441" height="2.58353" fill="#FAFAFA"/>
<rect x="95.7861" y="38.7495" width="23.4344" height="30.9065" fill="#EBEBEB"/>
<rect x="108.23" y="38.7495" width="10.9867" height="30.9065" fill="#E0E0E0"/>
<rect x="100.699" y="42.9348" width="2.10754" height="5.11916" fill="#F5F5F5"/>
<rect x="100.699" y="62.9682" width="2.10754" height="5.11916" fill="#F5F5F5"/>
<path d="M108.231 50.0625C108.231 50.1194 105.447 50.1643 102.01 50.1643C98.5732 50.1643 95.7861 50.1194 95.7861 50.0625C95.7861 50.0056 98.5703 49.9577 102.01 49.9577C105.45 49.9577 108.231 50.0026 108.231 50.0625Z" fill="#F5F5F5"/>
<rect x="100.699" y="53.0263" width="2.10754" height="5.11916" fill="#F5F5F5"/>
<path d="M108.231 60.1543C108.231 60.2112 105.447 60.2591 102.01 60.2591C98.5732 60.2591 95.7861 60.2112 95.7861 60.1543C95.7861 60.0974 98.5703 60.0495 102.01 60.0495C105.45 60.0495 108.231 60.0974 108.231 60.1543Z" fill="#F5F5F5"/>
<rect x="110.566" y="42.9348" width="2.10754" height="5.11916" fill="#F5F5F5"/>
<rect x="115.137" y="42.9348" width="2.10754" height="5.11916" fill="#F5F5F5"/>
<rect x="110.566" y="52.6462" width="2.10754" height="5.11916" fill="#F5F5F5"/>
<rect x="115.137" y="52.6462" width="2.10754" height="5.11916" fill="#F5F5F5"/>
<rect x="110.566" y="62.3605" width="2.10754" height="5.11916" fill="#F5F5F5"/>
<rect x="115.137" y="62.3605" width="2.10754" height="5.11916" fill="#F5F5F5"/>
<rect x="94.0234" y="37.6718" width="26.9579" height="1.11364" fill="#E0E0E0"/>
<path d="M119.382 38.8933C119.382 38.9502 114.146 38.9951 107.686 38.9951C101.225 38.9951 95.9863 38.9502 95.9863 38.8933C95.9863 38.8364 101.225 38.7885 107.686 38.7885C114.146 38.7885 119.382 38.8334 119.382 38.8933Z" fill="#EBEBEB"/>
<path d="M42.7803 70.2726H21.4834L21.3906 36.6149H42.6875L42.7803 70.2726Z" fill="#EBEBEB"/>
<rect x="32.0391" y="36.6149" width="10.6484" height="33.6577" fill="#E0E0E0"/>
<rect x="23.8213" y="29.9902" width="7.52007" height="6.62497" fill="#EBEBEB"/>
<rect x="29.5488" y="29.9902" width="1.7932" height="6.62497" fill="#E0E0E0"/>
<rect x="19.6152" y="36.2289" width="23.6948" height="1" fill="#E0E0E0"/>
<rect x="25.5938" y="39.507" width="1.80218" height="3.80195" fill="white"/>
<path d="M32.0389 44.8027C32.0389 44.8417 29.644 44.8746 26.7132 44.8746C23.7824 44.8746 21.3965 44.8387 21.3965 44.8027C21.3965 44.7668 23.7914 44.7309 26.7192 44.7309C29.647 44.7309 32.0389 44.7578 32.0389 44.8027Z" fill="#E0E0E0"/>
<rect x="36.335" y="39.507" width="1.80218" height="3.80195" fill="#F5F5F5"/>
<path d="M42.7803 44.8027C42.7803 44.8417 40.3854 44.8746 37.4546 44.8746C34.5238 44.8746 32.1318 44.8417 32.1318 44.8027C32.1318 44.7638 34.5268 44.7309 37.4546 44.7309C40.3824 44.7309 42.7803 44.7578 42.7803 44.8027Z" fill="#EBEBEB"/>
<rect x="36.335" y="47.0539" width="1.80218" height="3.80195" fill="#F5F5F5"/>
<path d="M42.7803 52.3467C42.7803 52.3857 40.3854 52.4186 37.4546 52.4186C34.5238 52.4186 32.1318 52.3857 32.1318 52.3467C32.1318 52.3078 34.5268 52.2719 37.4546 52.2719C40.3824 52.2719 42.7803 52.3048 42.7803 52.3467Z" fill="#EBEBEB"/>
<rect x="36.335" y="54.8286" width="1.80218" height="3.80195" fill="#F5F5F5"/>
<path d="M42.7803 60.1212C42.7803 60.1601 40.3854 60.193 37.4546 60.193C34.5238 60.193 32.1318 60.1601 32.1318 60.1212C32.1318 60.0822 34.5268 60.0463 37.4546 60.0463C40.3824 60.0463 42.7803 60.0703 42.7803 60.1212Z" fill="#EBEBEB"/>
<rect x="36.335" y="62.6" width="1.80218" height="3.80195" fill="#F5F5F5"/>
<path d="M42.7803 67.8958C42.7803 67.9348 40.3854 67.9677 37.4546 67.9677C34.5238 67.9677 32.1318 67.9348 32.1318 67.8958C32.1318 67.8569 34.5268 67.821 37.4546 67.821C40.3824 67.821 42.7803 67.8539 42.7803 67.8958Z" fill="#EBEBEB"/>
<rect x="25.5938" y="47.1677" width="1.80218" height="3.80195" fill="white"/>
<path d="M32.0389 52.4604C32.0389 52.5024 29.644 52.5323 26.7132 52.5323C23.7824 52.5323 21.3965 52.5024 21.3965 52.4604C21.3965 52.4185 23.7914 52.3886 26.7192 52.3886C29.647 52.3886 32.0389 52.4215 32.0389 52.4604Z" fill="#E0E0E0"/>
<rect x="25.5938" y="54.8286" width="1.80218" height="3.80195" fill="white"/>
<path d="M32.0389 60.1214C32.0389 60.1633 29.644 60.1962 26.7132 60.1962C23.7824 60.1962 21.3965 60.1633 21.3965 60.1214C21.3965 60.0794 23.7914 60.0495 26.7192 60.0495C29.647 60.0495 32.0389 60.0705 32.0389 60.1214Z" fill="#E0E0E0"/>
<rect x="25.5938" y="62.4921" width="1.80218" height="3.80195" fill="white"/>
<path d="M32.0389 67.7849C32.0389 67.8238 29.644 67.8568 26.7132 67.8568C23.7824 67.8568 21.3965 67.8238 21.3965 67.7849C21.3965 67.746 23.7914 67.7131 26.7192 67.7131C29.647 67.7131 32.0389 67.743 32.0389 67.7849Z" fill="#E0E0E0"/>
<path d="M127.121 29.8135C127.235 28.9933 126.079 28.3167 125.211 28.2508C124.796 28.2674 124.381 28.2322 123.975 28.1461C123.127 27.8467 122.777 26.751 121.96 26.4038C121.34 26.1403 120.628 26.3738 120.026 26.6762C119.424 26.9785 118.828 27.3587 118.161 27.4006C117.562 27.4396 116.942 27.221 116.433 27.5084C116.053 27.721 115.853 28.158 115.502 28.4065C115.137 28.6303 114.715 28.7446 114.287 28.7358C113.86 28.7239 113.434 28.793 113.033 28.9394C112.623 29.0976 112.367 29.5075 112.404 29.9452L127.121 29.8135Z" fill="#F5F5F5"/>
<path d="M91.0916 6.48386C91.2683 5.20557 89.4601 4.1518 88.098 4.04104C87.4513 3.99015 86.7778 4.08894 86.1671 3.87639C84.8379 3.41237 84.305 1.69401 83.0088 1.14617C82.0388 0.739034 80.9132 1.10127 79.9822 1.57427C79.0512 2.04726 78.1141 2.643 77.0634 2.71185C76.1653 2.76874 75.1564 2.43045 74.3691 2.87651C73.7704 3.2088 73.471 3.89734 72.9141 4.30149C72.3573 4.70563 71.6748 4.78047 71.0102 4.8164C70.3456 4.85232 69.6541 4.8613 69.0464 5.13672C68.4386 5.41213 67.9387 6.05877 68.0644 6.71138L91.0916 6.48386Z" fill="#EBEBEB"/>
<path d="M29.5394 24.2063C29.6801 23.1854 28.2402 22.3442 27.1445 22.2574C26.6296 22.2155 26.0937 22.2963 25.6028 22.1257C24.543 21.7545 24.1059 20.3864 23.0881 19.9493C22.3127 19.623 21.4236 19.9134 20.6752 20.2906C19.9268 20.6678 19.1784 21.1438 18.3461 21.1887C17.6187 21.2336 16.8284 20.9642 16.1907 21.3204C15.7147 21.5838 15.4662 22.1317 15.0292 22.455C14.5743 22.7373 14.0465 22.8798 13.5114 22.8651C12.9781 22.8533 12.4472 22.9406 11.9457 23.1226C11.4637 23.3441 11.0626 23.856 11.1644 24.3769L29.5394 24.2063Z" fill="#F5F5F5"/>
<path d="M18.9503 46.7218C16.5801 46.7789 14.436 48.1429 13.3797 50.2655C12.3234 52.3882 12.5282 54.9211 13.912 56.8463L13.9719 56.9331L18.5013 63.0911C18.6889 63.3456 18.9885 63.4931 19.3046 63.4866C19.6208 63.48 19.914 63.3203 20.0909 63.0582L24.1832 56.972C24.9556 55.7925 25.4885 54.5562 25.4885 53.1013C25.4849 51.3828 24.7897 49.738 23.5597 48.5378C22.3297 47.3377 20.6684 46.6831 18.9503 46.7218ZM19.103 57.7654C16.4477 57.7654 14.2952 55.6128 14.2952 52.9576C14.2952 50.3023 16.4477 48.1498 19.103 48.1498C21.7583 48.1498 23.9108 50.3023 23.9108 52.9576C23.9108 55.6128 21.7583 57.7654 19.103 57.7654H19.103Z" fill="#59D6D6"/>
<g opacity="0.3">
<path d="M18.9503 46.7218C16.5801 46.7789 14.436 48.1429 13.3797 50.2655C12.3234 52.3882 12.5282 54.9211 13.912 56.8463L13.9719 56.9331L18.5013 63.0911C18.6889 63.3456 18.9885 63.4931 19.3046 63.4866C19.6208 63.48 19.914 63.3203 20.0909 63.0582L24.1832 56.972C24.9556 55.7925 25.4885 54.5562 25.4885 53.1013C25.4849 51.3828 24.7897 49.738 23.5597 48.5378C22.3297 47.3377 20.6684 46.6831 18.9503 46.7218ZM19.103 57.7654C16.4477 57.7654 14.2952 55.6128 14.2952 52.9576C14.2952 50.3023 16.4477 48.1498 19.103 48.1498C21.7583 48.1498 23.9108 50.3023 23.9108 52.9576C23.9108 55.6128 21.7583 57.7654 19.103 57.7654H19.103Z" fill="black"/>
</g>
<path d="M18.5734 46.7217C15.1669 46.8126 12.4259 49.551 12.3317 52.9575C12.2921 54.3511 12.713 55.7189 13.5291 56.8492H13.5291L13.592 56.936L18.1184 63.094C18.3049 63.3539 18.6072 63.5055 18.9271 63.4995C19.2469 63.4935 19.5433 63.3307 19.72 63.0641L23.8123 56.978C24.5877 55.7984 25.1176 54.5621 25.1176 53.1071C25.1156 51.3865 24.4204 49.7393 23.1889 48.5377C21.9574 47.336 20.2936 46.6814 18.5734 46.7217V46.7217ZM18.7231 56.9001C16.713 56.8985 15.0847 55.2679 15.0858 53.2578C15.0869 51.2477 16.717 49.619 18.7271 49.6195C20.7372 49.6201 22.3664 51.2497 22.3664 53.2598C22.3647 55.2703 20.7336 56.8988 18.7231 56.8971L18.7231 56.9001Z" fill="#59D6D6"/>
<path d="M119.247 40.6594C117.438 40.6992 115.801 41.7375 114.993 43.3564C114.185 44.9752 114.341 46.9082 115.397 48.3771L115.445 48.4429L118.897 53.134C119.04 53.3232 119.265 53.4324 119.502 53.4276C119.739 53.4229 119.959 53.3048 120.094 53.11L123.214 48.4729C123.834 47.6122 124.182 46.5848 124.21 45.5241C124.207 44.2176 123.68 42.967 122.747 42.0525C121.814 41.138 120.553 40.6361 119.247 40.6594ZM119.364 49.0776C117.342 49.0776 115.702 47.4395 115.7 45.4173C115.697 43.3952 117.334 41.7535 119.356 41.7491C121.378 41.7447 123.021 43.3792 123.028 45.4013C123.031 46.3752 122.647 47.3103 121.959 48.0001C121.271 48.6899 120.338 49.0776 119.364 49.0776V49.0776Z" fill="#59D6D6"/>
<g opacity="0.3">
<path d="M119.247 40.6594C117.438 40.6992 115.801 41.7375 114.993 43.3564C114.185 44.9752 114.341 46.9082 115.397 48.3771L115.445 48.4429L118.897 53.134C119.04 53.3232 119.265 53.4324 119.502 53.4276C119.739 53.4229 119.959 53.3048 120.094 53.11L123.214 48.4729C123.834 47.6122 124.182 46.5848 124.21 45.5241C124.207 44.2176 123.68 42.967 122.747 42.0525C121.814 41.138 120.553 40.6361 119.247 40.6594ZM119.364 49.0776C117.342 49.0776 115.702 47.4395 115.7 45.4173C115.697 43.3952 117.334 41.7535 119.356 41.7491C121.378 41.7447 123.021 43.3792 123.028 45.4013C123.031 46.3752 122.647 47.3103 121.959 48.0001C121.271 48.6899 120.338 49.0776 119.364 49.0776V49.0776Z" fill="black"/>
</g>
<path d="M118.96 40.6595C117.153 40.7025 115.518 41.7421 114.713 43.3604C113.907 44.9786 114.064 46.9097 115.119 48.3772L115.164 48.443L118.613 53.1341C118.756 53.3282 118.984 53.4408 119.225 53.436C119.466 53.4313 119.69 53.3098 119.825 53.1101L122.944 48.473C123.564 47.6121 123.911 46.5846 123.938 45.5242C123.936 44.2148 123.407 42.9614 122.471 42.0462C121.534 41.1311 120.269 40.6314 118.96 40.6595ZM119.074 48.4161C117.541 48.4161 116.298 47.1736 116.298 45.641C116.298 44.1083 117.541 42.8658 119.074 42.8658C120.606 42.8658 121.849 44.1083 121.849 45.641C121.85 46.3772 121.557 47.0835 121.037 47.6042C120.516 48.1248 119.81 48.4169 119.074 48.4161Z" fill="#59D6D6"/>
<path d="M22.4471 69.707L1.06641 122.803L41.1545 116.211L70.5552 122.803L100.665 116.211L140.933 123.892L119.376 69.707L95.3217 63.6479L71.0013 68.282L46.1449 63.6479L22.4471 69.707Z" fill="white"/>
<path d="M22.4473 69.7069L22.8395 69.6021L24.01 69.3028L28.5963 68.1203L46.1362 63.6298H46.1511L70.9985 68.249H70.9775L95.298 63.6088H95.3399L119.391 69.65H119.427V69.683L140.981 123.868L141.035 124L140.894 123.973L120.181 120.021L100.627 116.291H100.66L70.5464 122.877H70.5285L41.1308 116.291H41.1547L1.06363 122.877L0.964844 122.892L1.00376 122.799C7.61675 106.406 12.9784 93.1323 16.6726 83.9567L20.9415 73.3981L22.0522 70.6559C22.3036 70.0392 22.4354 69.7249 22.4354 69.7249C22.4354 69.7249 22.3126 70.0452 22.0641 70.6679L20.9625 73.422L16.7324 83.9807L1.12051 122.823L1.05765 122.746L41.1547 116.142H41.1817L70.5794 122.728H70.5494L100.66 116.142H100.675L120.229 119.872L140.942 123.823L140.856 123.928L119.301 69.7428L119.349 69.7848L95.298 63.7196H95.3399L71.0105 68.3328H70.9895L46.1421 63.6867L28.6203 68.1532L24.025 69.3177L22.8485 69.6171L22.4473 69.7069Z" fill="#263238"/>
<path d="M23.6956 71.1319L4.80859 120.129L40.978 114.25L71.0014 121.198L100.666 114.073L137.547 121.198L118.128 71.1319L95.6781 65.6086L71.0014 70.2428L45.7888 65.6086L23.6956 71.1319Z" fill="white"/>
<path d="M6.90723 114.687L35.6553 108.026L34.5956 101.835L36.9845 100.329L33.2664 85.8666L21.7707 76.1223L6.90723 114.687Z" fill="#455A64"/>
<path d="M4.80859 120.129L6.20963 116.495L54.4135 105.296L57.03 112.501L56.1828 113.956L47.1299 115.675L40.978 114.25L4.80859 120.129Z" fill="#EBEBEB"/>
<path d="M57.0303 104.598L58.9432 111.726L64.4965 114.139L72.3937 110.63L88.9636 105.805L83.7936 98.0151L57.0303 104.598Z" fill="#EBEBEB"/>
<path d="M37.7782 107.238L46.7353 105.295L44.948 99.4758L38.4219 101.05L36.6855 102.278L37.7782 107.238Z" fill="#E0E0E0"/>
<path d="M35.9492 87.9504L39.2003 98.6228L44.2836 97.5031L43.3675 93.4048L54.5488 90.8991L35.9492 87.9504Z" fill="#455A64"/>
<path d="M22.6182 73.931L36.6854 85.223L55.3598 88.7645L75.2796 83.813L66.1879 69.3567L45.7891 65.6086L23.6959 71.1319L22.6182 73.931Z" fill="#EBEBEB"/>
<path d="M68.9092 69.8566L98.1123 114.687L100.666 114.073L72.3998 69.9794L71.0017 70.2428L68.9092 69.8566Z" fill="#EBEBEB"/>
<path d="M45.2471 94.5333L48.9472 105.296L81.7996 96.9013L75.7195 86.5522L45.2471 94.5333Z" fill="#E0E0E0"/>
<path d="M63.5234 119.468L63.8438 118.992L66.0022 115.785L71.1782 114.139L74.7407 111.457L90.179 107.238L94.9748 115.438L71.0016 121.198" fill="#E0E0E0"/>
<path d="M90.873 66.5097L98.6087 75.1165L118.127 71.1319L95.6779 65.6086L90.873 66.5097Z" fill="#E0E0E0"/>
<path d="M122.235 81.7205L107.902 85.705L100.666 76.1223L118.616 72.3952L122.235 81.7205Z" fill="#E0E0E0"/>
<path d="M73.9326 69.6889L88.9638 91.2791L106.309 86.3007L88.9638 66.8688L73.9326 69.6889Z" fill="#EBEBEB"/>
<path d="M115.951 117.025L133.293 110.232L137.547 121.198L115.951 117.025Z" fill="#E0E0E0"/>
<path d="M97.8125 89.989L107.237 87.5312L117.19 99.4759L107.503 102.691L97.8125 89.989Z" fill="#455A64"/>
<path d="M109.359 86.5523L119.846 98.5749L127.743 95.9225L122.549 82.5349L109.359 86.5523Z" fill="#E0E0E0"/>
<path d="M117.191 114.22L109.359 103.356L128.288 97.3234L132.132 107.238L129.665 109.72L117.191 114.22Z" fill="#455A64"/>
<path d="M89.8828 92.8658L104.27 114.687L113.132 116.48L114.802 115.716L96.5706 90.851L89.8828 92.8658Z" fill="#E0E0E0"/>
<path d="M30.9194 109.125L27.336 92.2702L14.6967 94.4795L6.90723 114.687L30.9194 109.125Z" fill="#E0E0E0"/>
<path d="M42.541 66.4199V74.1375L45.2472 74.4788L52.8032 83.2802L59.2995 82.5347L62.3919 87.0163L55.3598 88.7646L36.6854 85.2231L22.6182 73.931L23.6959 71.1319L42.541 66.4199Z" fill="#455A64"/>
<path d="M82.0449 68.2339L92.6574 83.7202L101.8 81.2504L88.9633 66.8688L82.0449 68.2339Z" fill="#E0E0E0"/>
<path d="M113.2 84.2321L109.359 78.2299L119.741 75.2961L122.235 81.7205L113.2 84.2321Z" fill="#EBEBEB"/>
<path d="M97.8125 104.894L102.839 103.155L112.586 116.369L104.27 114.687L97.8125 104.894Z" fill="#EBEBEB"/>
<path d="M51.4561 116.675L56.1292 116.106L57.6859 113.828L63.5235 115.663L61.9967 119.114L51.4561 116.675Z" fill="#455A64"/>
<path d="M23.6955 71.1469L25.1504 70.7727L29.4254 69.695L45.7797 65.5847H45.7947L71.0103 70.2039H70.9893L95.666 65.5607H95.693L118.145 71.078H118.178V71.114C124.139 86.4146 130.704 103.347 137.619 121.171L137.67 121.303L137.532 121.276L119.029 117.701L100.65 114.148H100.683L71.0193 121.273H70.9833L40.9629 114.318H40.9899L4.81747 120.186L4.72168 120.201L4.75461 120.108C10.6012 104.975 15.3342 92.7252 18.6033 84.2591C20.2408 80.0321 21.5101 76.748 22.3723 74.5208L23.3572 71.9911C23.5787 71.4193 23.6955 71.1319 23.6955 71.1319C23.6955 71.1319 23.5847 71.4313 23.3662 72.0031L22.3962 74.5417L18.6512 84.301L4.86238 120.15L4.79951 120.075L40.9659 114.184H40.9928L71.0163 121.141H70.9833L100.647 114.013H100.665L119.058 117.549L137.55 121.123L137.464 121.228C130.551 103.401 123.992 86.4804 118.05 71.1589L118.098 71.2008L95.6451 65.6715H95.672L70.9923 70.2937H70.9713L45.7647 65.6476L29.4493 69.713L25.1654 70.7757L23.6955 71.1469Z" fill="#263238"/>
<g opacity="0.2">
<path d="M70.555 122.802L71.0011 68.2818L46.1447 63.6476L41.1543 116.21L70.555 122.802Z" fill="black"/>
</g>
<g opacity="0.2">
<path d="M95.3223 63.6476L100.666 116.21L140.934 123.892L119.376 69.7068L95.3223 63.6476Z" fill="black"/>
</g>
<path d="M71.1922 16.6893C53.829 17.0935 39.666 31.2475 39.2529 48.6107C39.0701 55.7383 41.2313 62.7288 45.4049 68.5096L45.7252 68.9437L45.7701 69.0065L68.941 100.524C69.9004 101.828 71.4347 102.584 73.0537 102.551C74.6727 102.517 76.174 101.697 77.0778 100.353L98.0334 69.2191C101.997 63.1719 104.715 56.8552 104.715 49.407C104.715 40.5885 101.157 32.1437 94.8463 25.985C88.5363 19.8266 80.0075 16.4748 71.1922 16.6893H71.1922ZM71.9706 73.2066C58.3783 73.2066 47.3622 62.19 47.3627 48.6007C47.3627 35.0124 58.3793 23.9963 71.9686 23.9969C85.5569 23.9969 96.573 35.0134 96.5725 48.6027C96.5725 62.1891 85.5589 73.2044 71.9716 73.2066H71.9706Z" fill="#59D6D6"/>
<g opacity="0.3">
<path d="M71.1922 16.6893C53.829 17.0935 39.666 31.2475 39.2529 48.6107C39.0701 55.7383 41.2313 62.7288 45.4049 68.5096L45.7252 68.9437L45.7701 69.0065L68.941 100.524C69.9004 101.828 71.4347 102.584 73.0537 102.551C74.6727 102.517 76.174 101.697 77.0778 100.353L98.0334 69.2191C101.997 63.1719 104.715 56.8552 104.715 49.407C104.715 40.5885 101.157 32.1437 94.8463 25.985C88.5363 19.8266 80.0075 16.4748 71.1922 16.6893H71.1922ZM71.9706 73.2066C58.3783 73.2066 47.3622 62.19 47.3627 48.6007C47.3627 35.0124 58.3793 23.9963 71.9686 23.9969C85.5569 23.9969 96.573 35.0134 96.5725 48.6027C96.5725 62.1891 85.5589 73.2044 71.9716 73.2066H71.9706Z" fill="black"/>
</g>
<path d="M69.2528 16.6893C51.8896 17.0935 37.7266 31.2475 37.3134 48.6107C37.1307 55.7383 39.2919 62.7288 43.4654 68.5096V68.5096L43.7857 68.9437L43.8306 69.0065L67.0016 100.524C67.9609 101.828 69.4952 102.584 71.1142 102.551C72.7333 102.517 74.2345 101.697 75.1383 100.353L96.0939 69.2191C100.058 63.1719 102.776 56.8552 102.776 49.407C102.776 40.5885 99.2175 32.1437 92.9068 25.985C86.5968 19.8266 78.068 16.4748 69.2528 16.6893ZM70.0311 73.2066C56.4389 73.2066 45.4227 62.19 45.4233 48.6007C45.4233 35.0124 56.4399 23.9963 70.0291 23.9969C83.6174 23.9969 94.6336 35.0134 94.633 48.6027C94.633 62.1891 83.6195 73.2044 70.0322 73.2066H70.0311Z" fill="#59D6D6"/>
<g opacity="0.3">
<path d="M84.1851 67.1594C83.7899 67.6054 57.7721 74.4759 57.3799 74.9219C62.3673 76.4427 68.4564 77.7659 73.6714 77.4635C76.6082 77.2959 79.6587 76.772 81.9937 74.9638C84.3288 73.1556 85.5981 69.7399 84.1851 67.1594Z" fill="black"/>
</g>
<path d="M59.3372 17.5065C57.8135 19.1265 57.1784 21.3894 57.6368 23.5657C57.8643 24.6015 58.3194 25.757 57.7506 26.6522C57.1818 27.5473 55.8586 27.6999 55.3287 28.607C54.7 29.6698 55.5383 31.0019 55.4335 32.2413C55.2936 33.435 54.3081 34.3507 53.1074 34.4027C54.6076 35.3109 56.3293 35.7874 58.0829 35.7798C58.4421 35.1571 58.8004 34.5345 59.1576 33.9118C58.7445 34.5734 59.0079 35.4924 59.5737 36.0283C60.1395 36.5642 60.9298 36.7887 61.6992 36.9264C65.4407 37.5275 69.2479 36.3433 71.9884 33.7262" fill="#263238"/>
<path d="M80.3296 24.0029C79.9553 23.2365 79.4105 22.5539 79.1321 21.7516C78.5034 20.0303 79.0872 17.9078 78.0005 16.4319C77.2281 15.3781 75.8451 15.0039 74.5548 14.7974C73.2645 14.5908 71.8964 14.4531 70.8486 13.6777C70.0793 13.106 69.5673 12.2438 68.801 11.672C67.7083 10.8547 66.2444 10.732 64.8853 10.8368C63.5261 10.9415 62.0653 11.2738 60.9127 12.0671C59.7601 12.8605 58.88 14.1448 58.8501 15.5458C58.8351 16.2283 59.0147 16.9169 58.895 17.5875C58.7632 18.3269 58.2962 18.9556 58.0358 19.6621C57.5316 21.222 58.1474 22.9254 59.5326 23.8023L70.7588 34.7501C72.8544 35.2231 77.5724 33.6335 78.9076 31.9421C80.2427 30.2506 81.2696 25.9428 80.3296 24.0029Z" fill="#263238"/>
<path d="M59.5449 22.2067C59.5449 19.3657 61.2064 15.7733 64.0354 15.8961L72.9865 17.5695C73.8493 17.6076 74.5396 18.2993 74.5761 19.1621L74.9652 40.465H75.0251C75.0251 40.465 73.4086 46.5841 67.4691 45.1321C66.2896 44.8328 65.6729 43.6173 65.3736 42.3331H65.3167C65.3017 42.1774 65.2927 42.0337 65.2808 41.887C65.1035 40.9267 65.0282 39.9503 65.0562 38.9742C64.9275 37.2588 64.8856 36.5553 64.8856 36.5793C64.8856 36.6032 61.2303 36.208 60.1855 31.5349C59.6677 29.2358 59.5449 25.365 59.5449 22.2067Z" fill="#FFBE9D"/>
<path d="M67.7441 25.1196C67.7504 25.2784 67.8195 25.4283 67.9363 25.5361C68.0531 25.6439 68.208 25.7008 68.3668 25.6944C68.5245 25.6993 68.6773 25.6398 68.7902 25.5297C68.9032 25.4196 68.9665 25.2683 68.9656 25.1106C68.9593 24.9518 68.8902 24.8019 68.7734 24.6941C68.6566 24.5863 68.5017 24.5294 68.3429 24.5358C68.1852 24.531 68.0324 24.5904 67.9195 24.7005C67.8065 24.8106 67.7433 24.9619 67.7441 25.1196Z" fill="#263238"/>
<path d="M61.5618 25.5925C61.568 25.7514 61.6372 25.9012 61.754 26.009C61.8708 26.1168 62.0257 26.1738 62.1845 26.1673C62.3448 26.1723 62.5 26.1109 62.6134 25.9975C62.7268 25.8841 62.7883 25.7289 62.7832 25.5686C62.7687 25.239 62.4902 24.9833 62.1606 24.9968C62.0005 24.9909 61.8453 25.0517 61.7318 25.1646C61.6183 25.2775 61.5567 25.4325 61.5618 25.5925Z" fill="#263238"/>
<path d="M60.2628 24.2543C60.3436 24.3531 60.8615 23.925 61.565 23.928C62.2685 23.931 62.7894 24.3471 62.8702 24.2453C62.9092 24.2004 62.8283 24.0208 62.6038 23.8262C62.3103 23.5819 61.9409 23.4475 61.559 23.446C61.1772 23.4529 60.8101 23.595 60.5232 23.8471C60.3137 24.0268 60.2238 24.2094 60.2628 24.2543Z" fill="#263238"/>
<path d="M66.8433 24.0927C66.9391 24.1825 67.442 23.7065 68.1874 23.6347C68.9329 23.5628 69.5316 23.9101 69.6034 23.8053C69.6394 23.7574 69.5376 23.5867 69.2771 23.4221C68.9331 23.2142 68.5303 23.1248 68.1306 23.1676C67.7329 23.2078 67.3599 23.3796 67.0708 23.6556C66.8583 23.8681 66.7954 24.0538 66.8433 24.0927Z" fill="#263238"/>
<path d="M64.8547 28.8556C64.5038 28.7713 64.1439 28.7301 63.783 28.7329C63.6183 28.7329 63.4567 28.7029 63.4237 28.5892C63.3974 28.4185 63.4246 28.2438 63.5016 28.0892C63.6333 27.6791 63.771 27.245 63.9147 26.793C64.4865 24.9459 64.8877 23.4341 64.8128 23.4101C64.738 23.3862 64.2141 24.8681 63.6453 26.7032C63.5076 27.1582 63.3788 27.6013 63.2531 28.0084C63.1606 28.2157 63.1447 28.4491 63.2082 28.667C63.2672 28.7847 63.3781 28.8679 63.5076 28.8915C63.6059 28.912 63.7067 28.9191 63.8069 28.9125C64.1572 28.938 64.5093 28.9188 64.8547 28.8556Z" fill="#263238"/>
<path d="M64.8877 36.5913C67.1078 36.484 69.2548 35.7639 71.0905 34.5107C71.0906 34.5107 69.7614 37.8486 65.0074 37.7019L64.8877 36.5913Z" fill="#EB996E"/>
<path d="M65.2296 30.4093C65.4614 30.0764 65.8483 29.8863 66.2535 29.9064C66.5454 29.9163 66.8213 30.0424 67.0198 30.2567C67.2121 30.4688 67.2516 30.7784 67.1186 31.032C66.9188 31.2841 66.5865 31.3905 66.2774 31.3015C65.9633 31.2113 65.6703 31.0597 65.4152 30.8554C65.338 30.8094 65.2708 30.7483 65.2177 30.6758C65.167 30.6029 65.167 30.5062 65.2177 30.4333" fill="#59D6D6"/>
<path d="M66.8009 29.1878C66.6931 29.1878 66.735 29.8943 66.1632 30.4331C65.5914 30.972 64.8311 30.9421 64.8311 31.0319C64.8311 31.0768 65.0077 31.1576 65.328 31.1456C65.7423 31.1246 66.1363 30.9594 66.4416 30.6786C66.7321 30.407 66.9068 30.0339 66.9296 29.6368C66.9386 29.3494 66.8488 29.1788 66.8009 29.1878Z" fill="#263238"/>
<path d="M66.6005 21.8894C66.6784 22.063 67.322 21.9373 68.0973 21.9822C68.8727 22.0271 69.4984 22.1947 69.5942 22.0301C69.6331 21.9522 69.5163 21.7906 69.2559 21.6349C68.5548 21.2535 67.7178 21.2138 66.9837 21.5271C66.6963 21.6588 66.5646 21.8055 66.6005 21.8894Z" fill="#263238"/>
<path d="M60.6311 22.2575C60.7689 22.3982 61.2718 22.2126 61.8885 22.1647C62.5052 22.1168 63.035 22.1946 63.1458 22.03C63.1937 21.9522 63.1009 21.8085 62.8644 21.6827C62.5409 21.5296 62.1815 21.4685 61.8256 21.5061C61.4693 21.5317 61.1272 21.6561 60.8377 21.8653C60.6281 22.033 60.5683 22.1887 60.6311 22.2575Z" fill="#263238"/>
<path d="M74.9828 17.9767C74.4589 17.3779 73.6357 17.1414 72.8573 16.9588C69.4965 16.1763 66.0546 15.7954 62.604 15.8242C62.2807 16.5786 62.8016 17.4707 63.5021 17.8868C64.2026 18.303 65.0558 18.3898 65.8551 18.5664C66.6544 18.743 67.4987 19.0723 67.9178 19.7639C68.3638 20.5153 68.2171 21.4972 68.6213 22.2696C69.3218 23.5987 71.3365 23.7664 72.0281 25.1075C72.5519 26.1164 72.0969 27.3288 72.0999 28.4664C72.1012 29.6341 72.6053 30.7447 73.4833 31.5144C74.3614 32.2841 75.5284 32.6385 76.6862 32.4869C76.3529 28.4395 76.0216 24.3931 75.6923 20.3476C75.6264 19.5214 75.5336 18.6143 74.9828 17.9767Z" fill="#263238"/>
<path d="M84.4879 26.9845C83.7724 26.5055 82.9102 26.1253 82.542 25.347C82.0091 24.2154 82.7635 22.6886 82.0002 21.6977C81.3056 20.7996 79.6651 21.072 79.0065 20.141C78.4916 19.4135 78.8598 18.6442 78.6084 17.9856C78.3569 17.327 77.2941 16.851 76.6056 17.0306L72.2378 25.7451C72.1031 28.4813 71.7888 29.9722 72.5791 31.4511C73.0132 32.2623 73.5401 33.0377 73.7766 33.9238C74.0131 34.8099 73.9383 35.8637 73.2767 36.5014C76.5876 36.2978 79.4196 34.1513 82.0271 32.0947L84.7843 29.9183C85.09 29.7158 85.3401 29.44 85.5117 29.116C85.862 28.3376 85.2004 27.4635 84.4879 26.9845Z" fill="#263238"/>
<path d="M82.0057 31.2804C81.8977 31.3319 81.7842 31.3711 81.6674 31.3971C81.33 31.4809 80.9805 31.5052 80.6346 31.469C80.0838 31.416 79.5565 31.2199 79.1049 30.9002C78.505 30.4627 78.0805 29.8259 77.9074 29.104C77.7998 28.6887 77.7764 28.2561 77.8385 27.8317C77.9272 27.3843 78.0741 26.9506 78.2756 26.5414C78.4915 26.1148 78.6438 25.659 78.7277 25.1883C78.8161 24.7006 78.6797 24.1989 78.3564 23.8232C78.0032 23.4669 77.4344 23.446 76.8925 23.3113C76.599 23.252 76.3299 23.106 76.1202 22.8921C75.9233 22.6575 75.8031 22.368 75.7759 22.0629C75.6981 21.4642 75.8777 20.8654 75.9076 20.3056C75.9349 20.0214 75.8971 19.7347 75.7969 19.4674C75.685 19.2072 75.4846 18.995 75.2311 18.8687C74.7102 18.5962 74.0995 18.6262 73.5097 18.6591C72.9114 18.7208 72.3072 18.6312 71.7524 18.3987C71.217 18.1628 70.7563 17.7849 70.4203 17.306C70.1267 16.8391 69.9085 16.3289 69.7736 15.7942C69.6465 15.3013 69.469 14.8227 69.2437 14.3662C69.0108 13.9526 68.6924 13.5934 68.3097 13.3124C67.006 12.3576 65.2338 12.3576 63.93 13.3124C63.4892 13.6215 63.107 14.0068 62.8014 14.45C62.5464 14.8333 62.3374 15.2453 62.1787 15.6774C62.1808 15.6468 62.1868 15.6167 62.1967 15.5876C62.2146 15.5307 62.2356 15.4409 62.2775 15.3332C62.3943 15.0078 62.5491 14.6973 62.7385 14.4081C63.0392 13.944 63.4216 13.5383 63.8671 13.2107C64.4561 12.7802 65.1543 12.524 65.8819 12.4712C66.7769 12.4182 67.6635 12.6705 68.3965 13.1867C68.801 13.4788 69.138 13.8546 69.3844 14.2884C69.6174 14.7539 69.801 15.2425 69.9323 15.7463C70.0661 16.2615 70.2781 16.7532 70.561 17.2042C70.8797 17.653 71.3143 18.0068 71.8183 18.228C72.3461 18.4429 72.9194 18.5221 73.4858 18.4585C74.0845 18.4286 74.7221 18.3867 75.3029 18.6891C75.5976 18.8345 75.8303 19.081 75.9585 19.3836C76.0706 19.6772 76.1137 19.9927 76.0843 20.3056C76.0483 20.9044 75.8747 21.4791 75.9466 22.033C75.9694 22.2995 76.0739 22.5525 76.2459 22.7574C76.4322 22.9431 76.6682 23.0709 76.9255 23.1256C77.1859 23.1945 77.4583 23.2274 77.7278 23.2993C78.0056 23.3603 78.262 23.4946 78.4702 23.6885C78.8289 24.1043 78.9807 24.6598 78.8833 25.2003C78.7953 25.687 78.6359 26.1581 78.4103 26.5983C78.2087 26.9969 78.0617 27.4208 77.9733 27.8586C77.911 28.2634 77.9293 28.6764 78.0272 29.0741C78.1923 29.7661 78.5948 30.3784 79.1647 30.8044C79.5994 31.1201 80.1073 31.32 80.6406 31.3852C81.0981 31.4392 81.5618 31.4036 82.0057 31.2804Z" fill="#455A64"/>
<path d="M85.5866 25.0208C85.6524 25.0935 85.7024 25.1791 85.7332 25.2723C85.8241 25.544 85.8145 25.8392 85.7063 26.1045C85.6309 26.2981 85.5085 26.47 85.3501 26.6044C85.1563 26.7619 84.9215 26.8605 84.6735 26.8888C84.0609 26.9633 83.458 26.6895 83.1108 26.1794C82.9119 25.8909 82.7837 25.5596 82.7366 25.2124C82.6966 24.8393 82.724 24.4621 82.8174 24.0988C82.9761 23.3533 83.3533 22.6019 83.2455 21.7637C83.2218 21.348 83.028 20.9604 82.7096 20.692C82.3369 20.4647 81.8905 20.3906 81.4643 20.4854C80.9912 20.5881 80.5038 20.6063 80.0243 20.5393C79.7695 20.4735 79.5415 20.3302 79.3717 20.1292C79.2092 19.9261 79.0928 19.6901 79.0304 19.4376C78.9409 18.9521 78.9127 18.4573 78.9466 17.9648C78.9535 17.5039 78.8627 17.0468 78.6802 16.6236C78.3326 15.8176 77.69 15.175 76.884 14.8274C76.1146 14.4981 75.2854 14.5669 74.5399 14.6268C73.835 14.7267 73.1187 14.7146 72.4174 14.5909C71.8413 14.4624 71.2974 14.2179 70.8188 13.8724C70.4584 13.6152 70.1385 13.3054 69.8698 12.9534C69.6349 12.659 69.4535 12.3256 69.334 11.9684C69.5061 12.2975 69.7064 12.611 69.9327 12.9055C70.5695 13.6962 71.4581 14.2446 72.4504 14.4592C73.1388 14.566 73.8396 14.566 74.528 14.4592C75.2734 14.3933 76.1326 14.3125 76.9558 14.6538C77.8085 15.013 78.4918 15.6845 78.8658 16.5308C79.0594 16.9774 79.1563 17.46 79.1502 17.9468C79.1166 18.4233 79.1437 18.9021 79.231 19.3718C79.3119 19.8278 79.6414 20.2001 80.0842 20.3357C80.5409 20.3966 81.0047 20.3784 81.4553 20.2818C81.9287 20.1796 82.4234 20.2678 82.8324 20.5273C83.1879 20.8274 83.4044 21.2604 83.4311 21.7248C83.4727 22.1503 83.4289 22.5798 83.3024 22.9881C83.1976 23.3833 83.0689 23.7515 82.9821 24.1167C82.8874 24.4615 82.8579 24.8209 82.8952 25.1765C82.9359 25.4982 83.0518 25.8059 83.2335 26.0746C83.5491 26.5507 84.1021 26.8134 84.6705 26.7571C84.8996 26.7342 85.1175 26.647 85.2992 26.5057C85.4507 26.385 85.57 26.2286 85.6464 26.0506C85.7562 25.8007 85.7773 25.5208 85.7063 25.2573C85.6705 25.1765 85.6305 25.0975 85.5865 25.0208L85.5866 25.0208Z" fill="#263238"/>
<path d="M51.3328 31.8193C51.277 32.111 51.3225 32.413 51.4615 32.6754C51.6181 32.9817 51.9038 33.2014 52.2399 33.2742C52.689 33.3417 53.1377 33.1492 53.3984 32.7772C53.5413 32.5629 53.6067 32.3063 53.584 32.0498C53.5538 31.7667 53.4716 31.4917 53.3415 31.2385C53.0901 30.7086 52.65 30.1548 52.6021 29.4213C52.55 28.6708 52.8162 27.933 53.3356 27.3886C53.6048 27.104 53.9258 26.8733 54.2816 26.7091C54.6463 26.548 55.0309 26.4363 55.4251 26.3768C55.8051 26.3187 56.179 26.2255 56.5418 26.0984C56.8808 25.9766 57.1659 25.7392 57.3471 25.4278C57.5012 25.1131 57.5644 24.7616 57.5297 24.413C57.4998 24.0708 57.4233 23.7344 57.3022 23.4131C57.0776 22.7784 56.7902 22.1677 56.7393 21.536C56.6914 20.9546 56.8175 20.3721 57.1016 19.8626C57.3466 19.4558 57.6666 19.0992 58.0446 18.8118C58.3189 18.5933 58.577 18.3551 58.8169 18.0993C59.0146 17.8767 59.1644 17.6159 59.257 17.3329C59.257 17.3329 59.257 17.3539 59.257 17.3928C59.2493 17.4511 59.2353 17.5083 59.2151 17.5635C59.142 17.7772 59.0293 17.9753 58.8828 18.1472C58.6494 18.4144 58.3951 18.6627 58.1224 18.8896C57.7618 19.1767 57.4574 19.5278 57.2243 19.9255C56.9634 20.4134 56.851 20.967 56.901 21.5181C56.9549 22.1168 57.2363 22.7155 57.4728 23.3502C57.6022 23.6864 57.6838 24.0391 57.7153 24.398C57.7553 24.7817 57.6857 25.1688 57.5147 25.5146C57.3136 25.8654 56.9957 26.1345 56.6166 26.275C56.2424 26.4099 55.8566 26.5101 55.4641 26.5744C55.0855 26.6314 54.7161 26.7381 54.3654 26.8917C54.0281 27.0437 53.7232 27.2591 53.4673 27.5264C52.9808 28.0318 52.7289 28.7182 52.7728 29.4184C52.8087 30.0889 53.2188 30.6158 53.4793 31.1786C53.615 31.451 53.6983 31.7466 53.7247 32.0498C53.7492 32.3388 53.6707 32.6272 53.5032 32.864C53.2091 33.2715 52.7079 33.475 52.2129 33.3879C51.615 33.2353 51.2141 32.6739 51.2639 32.0588C51.2717 31.9753 51.295 31.8941 51.3328 31.8193Z" fill="#263238"/>
<path d="M52.4254 50.0747C52.4254 50.0747 52.9284 46.0482 54.8683 44.0365C56.8082 42.0247 64.927 39.5041 64.927 39.5041C64.927 39.5041 65.2623 42.375 67.2081 43.0665C69.2708 43.8029 71.5998 43.5275 73.1086 41.7732C74.0212 40.649 74.6624 39.3296 74.9827 37.9174C74.9827 37.9174 84.6791 38.8155 86.2598 41.4679C87.8404 44.1203 89.8851 54.4274 89.8851 54.4274L80.8203 56.3524L82.0537 74.0928H57.9787L58.4487 57.4421L51.8926 58.3791L52.4254 50.0747Z" fill="#455A64"/>
<path d="M79.0329 56.9212C79.0043 56.7905 78.9933 56.6566 78.9999 56.523C78.9999 56.2655 78.9999 55.8913 78.9999 55.4333C78.9999 54.5113 79.0149 53.2419 79.0448 51.8409C79.0748 50.4399 79.1107 49.1676 79.1496 48.2485C79.1676 47.7875 79.1855 47.4163 79.2035 47.1588C79.2013 47.0244 79.2184 46.8903 79.2544 46.7607C79.2807 46.8917 79.2908 47.0254 79.2843 47.1588C79.2843 47.4163 79.2843 47.7905 79.2843 48.2485C79.2843 49.1706 79.2694 50.4399 79.2394 51.8409C79.2095 53.2419 79.1736 54.5143 79.1346 55.4333C79.1167 55.8913 79.0957 56.2626 79.0808 56.52C79.0842 56.6553 79.0681 56.7905 79.0329 56.9212Z" fill="#263238"/>
<path d="M56.2151 49.6165C56.272 49.6015 56.8378 51.4127 57.4784 53.637C58.1191 55.8613 58.5981 57.6964 58.5412 57.7113C58.4843 57.7263 57.9215 55.9151 57.2779 53.6938C56.6342 51.4725 56.1612 49.6344 56.2151 49.6165Z" fill="#263238"/>
<path d="M85.2602 40.8153C85.2602 40.8512 84.8291 40.932 84.1675 41.1835C82.4323 41.8476 80.9879 43.1043 80.0902 44.731C79.7489 45.3507 79.6082 45.7728 79.5723 45.7608C79.5795 45.658 79.6028 45.557 79.6411 45.4614C79.7251 45.1888 79.8313 44.9235 79.9585 44.6681C80.8094 42.9573 82.3069 41.6559 84.1196 41.0518C84.3898 40.96 84.6672 40.8909 84.9489 40.8452C85.0499 40.8161 85.1555 40.806 85.2602 40.8153Z" fill="#263238"/>
<path d="M54.7251 44.8478C54.7789 44.8478 54.9705 45.3957 55.1502 46.0992C55.3298 46.8027 55.4286 47.3865 55.3717 47.4014C55.3148 47.4164 55.1262 46.8536 54.9466 46.1501C54.767 45.4466 54.6682 44.8628 54.7251 44.8478Z" fill="#263238"/>
<path d="M88.2867 54.7536C88.2867 54.7536 85.5714 68.5424 85.2601 69.7219C84.9488 70.9014 84.4488 74.0777 81.1588 74.7363C76.7192 75.6344 59.2871 75.0027 59.2871 75.0027L62.5801 70.8415L77.8328 66.5636L79.9284 56.5318L88.2867 54.7536Z" fill="#FFBE9D"/>
<path d="M62.2889 68.5126C62.3495 68.6104 62.393 68.7177 62.4177 68.83C62.507 69.1305 62.5652 69.4395 62.5913 69.752C62.6832 70.7895 62.4665 71.8309 61.9686 72.7457C61.7038 73.2554 61.3681 73.725 60.9717 74.1407C60.6424 74.4782 60.2456 74.7425 59.8072 74.9161C59.5129 75.0271 59.2046 75.0966 58.8911 75.1226C58.7771 75.1412 58.6609 75.1412 58.5469 75.1227C58.955 75.0473 59.3557 74.9361 59.7444 74.7903C60.153 74.6069 60.5213 74.3444 60.828 74.018C61.2014 73.6102 61.5213 73.1565 61.78 72.6678C62.2595 71.7821 62.4873 70.782 62.4386 69.776C62.4087 68.9856 62.25 68.5246 62.2889 68.5126Z" fill="#EB996E"/>
<path d="M47.6924 52.1942C47.6924 52.1942 50.1502 60.4657 51.168 64.0401C52.2517 67.8361 54.6197 76.4578 59.667 74.928C63.5079 73.7605 62.3793 68.785 62.3793 68.785L58.4486 57.4271L55.3921 57.939L52.4254 50.2783L47.6924 52.1942Z" fill="#FFBE9D"/>
<path d="M61.0352 69.1443C61.1725 68.5282 61.1725 67.8894 61.0352 67.2733C60.8729 66.6103 60.5953 65.981 60.215 65.4142C59.7356 64.7223 59.2032 64.0687 58.6224 63.4594C58.039 62.8391 57.5045 62.1745 57.0237 61.4716C56.6395 60.8917 56.3041 60.2809 56.0209 59.6454C55.8293 59.2183 55.6653 58.7794 55.5299 58.3312C55.4678 58.1697 55.4275 58.0005 55.4102 57.8283C55.4874 57.9816 55.5525 58.1408 55.6047 58.3043C55.7245 58.6037 55.9041 59.0527 56.1556 59.5826C56.4526 60.2019 56.7969 60.7974 57.1854 61.3638C57.6685 62.053 58.2007 62.7063 58.778 63.3187C59.3663 63.9359 59.901 64.6018 60.3766 65.3094C60.7639 65.9023 61.037 66.5622 61.1819 67.2553C61.2755 67.7217 61.2755 68.202 61.1819 68.6683C61.158 68.7939 61.1229 68.9172 61.0772 69.0366C61.0685 69.0744 61.0544 69.1107 61.0352 69.1443V69.1443Z" fill="#EB996E"/>
<path d="M52.4254 50.2782C52.4254 50.2782 52.4434 46.9852 52.153 46.0452L49.8179 40.8302C49.8179 40.8302 49.2192 40.462 48.9199 41.5008C48.6205 42.5396 49.5425 43.6113 49.5425 43.6113L49.6144 44.9764L48.6804 44.2041L46.8632 40.7973C46.8632 40.7973 45.6089 38.3155 45.2855 38.7017C44.9622 39.0879 45.067 39.8992 45.6059 40.9619L46.8333 43.3928C46.8333 43.3928 47.0189 43.8239 46.3753 43.1982C45.7316 42.5725 44.3336 39.5429 44.0432 39.1627C43.7528 38.7825 43.3576 37.6659 42.732 37.9263C42.1063 38.1868 42.9086 39.51 42.9086 39.51L44.9113 44.0005C44.9113 44.0005 43.7498 42.3001 43.5402 42.0127C43.3307 41.7253 42.8457 40.7524 42.4655 40.2554C42.0853 39.7585 41.6692 39.5669 41.3938 39.6866C41.1147 39.787 40.9624 40.0877 41.0465 40.3722L43.187 44.0843C43.187 44.0843 44.2557 45.7518 44.2557 45.8805C44.2557 46.0092 43.3217 45.3297 43.3217 45.3297L42.4236 44.1861C42.4236 44.1861 41.4537 42.4737 40.9447 42.5665C40.4358 42.6593 40.5256 43.0395 40.5256 43.0395L42.3218 46.1589L44.9383 49.5238L47.7344 52.3019L49.3509 51.781L52.4254 50.2782Z" fill="#FFBE9D"/>
<path d="M47.2794 49.7214C47.3608 49.384 47.4149 49.0407 47.4411 48.6946C47.5458 48.0779 47.7584 47.1529 48.5158 46.5571C48.8218 46.3017 49.2041 46.1553 49.6025 46.141L49.7372 46.141V45.9973C49.6953 45.3567 49.7192 44.746 49.6953 44.3418C49.7146 44.1193 49.6839 43.8953 49.6055 43.6862C49.5639 43.9013 49.5428 44.1198 49.5426 44.3388C49.4967 44.9034 49.4797 45.4699 49.4917 46.0362L49.6144 45.8925C49.1557 45.8914 48.7114 46.0526 48.3601 46.3476C47.9765 46.6572 47.6838 47.0647 47.5129 47.5271C47.3786 47.8954 47.2941 48.28 47.2614 48.6707C47.2095 49.0195 47.2156 49.3745 47.2794 49.7214H47.2794Z" fill="#EB996E"/>
<path d="M50.0996 83.9791C50.0996 81.295 52.2755 79.1191 54.9596 79.1191H86.8305C89.5146 79.1191 91.6905 81.295 91.6905 83.9791V87.7156C91.6905 90.3997 89.5146 92.5756 86.8305 92.5756H54.9596C52.2755 92.5756 50.0996 90.3997 50.0996 87.7156V83.9791Z" fill="white"/>
<path d="M90.2504 92.5787C90.2504 92.5787 90.3462 92.5787 90.5258 92.5428C90.7916 92.4881 91.0365 92.3594 91.2323 92.1716C91.5573 91.8621 91.7227 91.4209 91.6814 90.9741C91.6814 90.4472 91.6814 89.8425 91.6814 89.1779C91.6814 87.8158 91.6814 86.1513 91.6814 84.2174C91.6814 83.2495 91.6814 82.2177 91.6814 81.122C91.6919 80.8473 91.6829 80.5721 91.6544 80.2987C91.5986 80.0276 91.4643 79.7787 91.2682 79.5832C91.0662 79.3814 90.807 79.2466 90.5258 79.1971C90.2272 79.1715 89.9272 79.1645 89.6277 79.1761L51.5903 79.1971C50.9042 79.1961 50.3221 79.7003 50.2252 80.3795C50.1982 80.5921 50.2252 80.8316 50.2102 81.0591V90.4412C50.2102 90.6568 50.2102 90.8753 50.2102 91.0909C50.2065 91.297 50.2484 91.5015 50.333 91.6896C50.5024 92.0667 50.832 92.3479 51.2311 92.456C51.4273 92.5006 51.6288 92.5177 51.8298 92.5069H57.38H74.4798L86.0084 92.5338H89.1428H89.96H90.2355H89.96H89.1428L86.0084 92.5488L74.4798 92.5727L57.38 92.5907H51.8029C51.5837 92.6025 51.364 92.5834 51.1502 92.5338C50.4778 92.3497 50.0149 91.7341 50.0246 91.037V89.0791C50.0246 87.3288 50.0246 85.5476 50.0246 83.7354V81.0052C50.0188 80.7715 50.0248 80.5378 50.0426 80.3047C50.0754 80.0628 50.1669 79.8326 50.309 79.6341C50.5985 79.2307 51.0638 78.9902 51.5604 78.9875L89.5978 79.0114C89.8974 79.0016 90.1974 79.0106 90.4959 79.0384C91.1042 79.1516 91.5801 79.6275 91.6934 80.2358C91.7245 80.5151 91.7335 80.7964 91.7203 81.0771C91.7203 82.1727 91.7203 83.2046 91.7203 84.1725C91.7203 86.1064 91.7203 87.7649 91.7203 89.133C91.7203 89.8116 91.7203 90.4103 91.7203 90.9292C91.7327 91.1738 91.6908 91.4182 91.5975 91.6447C91.5144 91.8307 91.3942 91.9977 91.2443 92.1357C91.0429 92.3239 90.7913 92.4497 90.5198 92.4979C90.4516 92.5102 90.3826 92.5172 90.3133 92.5188L90.2504 92.5787Z" fill="#263238"/>
<path d="M54.2481 84.7771C54.2458 84.4694 54.3716 84.1746 54.5953 83.9633C54.819 83.7521 55.1205 83.6434 55.4276 83.6634C55.7811 83.6469 56.1221 83.7964 56.3496 84.0676L55.9635 84.4178C55.8444 84.2583 55.6566 84.1649 55.4575 84.1664C55.1194 84.1664 54.8453 84.4404 54.8453 84.7786C54.8453 85.1167 55.1194 85.3908 55.4575 85.3908C55.6563 85.3908 55.8435 85.2977 55.9635 85.1393L56.3496 85.4866C56.1221 85.7577 55.7812 85.9072 55.4276 85.8907C55.1205 85.9107 54.819 85.802 54.5953 85.5908C54.3716 85.3795 54.2458 85.0847 54.2481 84.7771Z" fill="#263238"/>
<path d="M56.5743 84.894V83.6965H57.1731V84.867C57.1731 85.2352 57.3257 85.3819 57.5802 85.3819C57.8347 85.3819 57.9844 85.2352 57.9844 84.867V83.7204H58.5831V84.9179C58.5539 85.4529 58.1116 85.8718 57.5757 85.8718C57.0399 85.8718 56.5975 85.4529 56.5684 84.9179L56.5743 84.894Z" fill="#263238"/>
<path d="M59.9369 85.2801H59.6046V85.8489H59.0059V83.7204H59.9848C60.5835 83.7204 60.9368 84.0198 60.9368 84.5137C60.9486 84.8037 60.7826 85.0717 60.5177 85.1903L60.9787 85.8639H60.3141L59.9369 85.2801ZM59.9369 84.1844H59.5986V84.8101H59.9369C60.1854 84.8101 60.3111 84.6963 60.3111 84.5107C60.3111 84.3251 60.1913 84.1844 59.9429 84.1844H59.9369Z" fill="#263238"/>
<path d="M62.1996 85.2801H61.8673V85.8489H61.2686V83.7204H62.2475C62.8462 83.7204 63.1995 84.0198 63.1995 84.5137C63.2113 84.8037 63.0453 85.0717 62.7803 85.1903L63.2414 85.8639H62.5887L62.1996 85.2801ZM62.1996 84.1844H61.8613V84.8101H62.1996C62.451 84.8101 62.5768 84.6963 62.5768 84.5107C62.5768 84.3251 62.457 84.1844 62.2056 84.1844H62.1996Z" fill="#263238"/>
<path d="M65.2468 85.3819V85.8489H63.5254V83.7204H65.2078V84.1904H64.1271V84.5497H65.0791V85.0047H64.1271V85.3969L65.2468 85.3819Z" fill="#263238"/>
<path d="M67.6217 83.7204V85.8639H67.1218L66.1788 84.7233V85.8639H65.5801V83.7204H66.08L67.026 84.864V83.7204H67.6217Z" fill="#263238"/>
<path d="M68.5043 84.1874H67.8486V83.7204H69.7676V84.2024H69.112V85.8638H68.5132L68.5043 84.1874Z" fill="#263238"/>
<path d="M70.8809 83.7204H71.4796V85.3849H72.5004V85.8639H70.8809V83.7204Z" fill="#263238"/>
<path d="M72.6055 84.7771C72.5711 84.2866 72.84 83.8249 73.2837 83.6129C73.7273 83.4008 74.2555 83.4816 74.6155 83.8164C74.9756 84.1513 75.0943 84.6722 74.915 85.13C74.7357 85.5878 74.2946 85.8895 73.8029 85.8907C73.4938 85.9123 73.1895 85.8047 72.9626 85.5937C72.7357 85.3826 72.6064 85.087 72.6055 84.7771ZM74.3747 84.7771C74.3568 84.4612 74.0894 84.2179 73.7732 84.2296C73.4571 84.2414 73.2086 84.504 73.2142 84.8204C73.2199 85.1366 73.4776 85.3902 73.794 85.3908C73.956 85.3954 74.1124 85.3313 74.2247 85.2145C74.337 85.0976 74.3947 84.9388 74.3837 84.7771H74.3747Z" fill="#263238"/>
<path d="M75.1954 84.777C75.1922 84.4696 75.3173 84.1748 75.5406 83.9635C75.7639 83.7521 76.0651 83.6434 76.3719 83.6634C76.7254 83.6469 77.0664 83.7964 77.2939 84.0676L76.9077 84.4178C76.7887 84.2583 76.6009 84.1649 76.4018 84.1663C76.0637 84.1663 75.7896 84.4404 75.7896 84.7786C75.7896 85.1167 76.0637 85.3907 76.4018 85.3907C76.6005 85.3907 76.7878 85.2977 76.9078 85.1393L77.2939 85.4865C77.0664 85.7577 76.7254 85.9072 76.3719 85.8907C76.0651 85.9107 75.7639 85.802 75.5406 85.5906C75.3173 85.3793 75.1922 85.0845 75.1954 84.777Z" fill="#263238"/>
<path d="M78.9608 85.4329H78.0627L77.8951 85.849H77.2754L78.2214 83.7055H78.8201L79.7691 85.849H79.1375L78.9608 85.4329ZM78.7812 84.9868L78.5088 84.3012L78.2334 84.9868H78.7812Z" fill="#263238"/>
<path d="M80.2787 84.1874H79.6201V83.7204H81.5391V84.2024H80.8864V85.8638H80.2877L80.2787 84.1874Z" fill="#263238"/>
<path d="M81.7666 83.7204H82.3653V85.8639H81.7666V83.7204Z" fill="#263238"/>
<path d="M82.6944 84.7771C82.6599 84.2866 82.9289 83.8249 83.3725 83.6129C83.8161 83.4008 84.3443 83.4816 84.7044 83.8164C85.0644 84.1513 85.1832 84.6722 85.0039 85.13C84.8245 85.5878 84.3835 85.8895 83.8918 85.8907C83.5827 85.9123 83.2784 85.8047 83.0515 85.5937C82.8245 85.3826 82.6952 85.087 82.6943 84.7771H82.6944ZM84.4636 84.7771C84.4457 84.4612 84.1782 84.2179 83.8621 84.2296C83.546 84.2414 83.2974 84.504 83.3031 84.8204C83.3087 85.1366 83.5665 85.3902 83.8828 85.3908C84.0433 85.3928 84.1973 85.3277 84.3076 85.2111C84.4179 85.0946 84.4745 84.9372 84.4636 84.7771H84.4636Z" fill="#263238"/>
<path d="M87.4304 83.7204V85.8639H86.9305L85.9845 84.7233V85.8639H85.3857V83.7204H85.8857L86.8317 84.864V83.7204H87.4304Z" fill="#263238"/>
<path d="M58.9277 88.3515C58.9539 87.9025 59.2463 87.5128 59.67 87.3619C60.0938 87.2111 60.5666 87.3285 60.8706 87.66L60.5713 87.9384C60.445 87.786 60.2572 87.6981 60.0593 87.6989C59.6989 87.6989 59.4067 87.9911 59.4067 88.3515C59.4067 88.7119 59.6989 89.0041 60.0593 89.0041C60.2582 89.0063 60.447 88.9169 60.5713 88.7616L60.8706 89.04C60.5682 89.3742 60.0945 89.4938 59.6697 89.3432C59.2449 89.1927 58.9523 88.8015 58.9277 88.3515Z" fill="#E0E0E0"/>
<path d="M61.1846 87.3337H61.6576V89.3694H61.1846V87.3337Z" fill="#E0E0E0"/>
<path d="M62.5618 87.7169H61.9092V87.3337H63.6844V87.7169H63.0318V89.3694H62.5618V87.7169Z" fill="#E0E0E0"/>
<path d="M64.8758 88.6479V89.3694H64.4058V88.6419L63.6064 87.3337H64.1064L64.6482 88.2318L65.1931 87.3337H65.6571L64.8758 88.6479Z" fill="#E0E0E0"/>
<path d="M66.1787 89.109C66.1756 89.2138 66.148 89.3163 66.0979 89.4084L65.9332 89.8275H65.6339L65.7596 89.3635C65.6603 89.3237 65.5976 89.2248 65.604 89.118C65.6039 88.9626 65.7299 88.8366 65.8854 88.8366C66.0408 88.8366 66.1668 88.9626 66.1668 89.118L66.1787 89.109Z" fill="#E0E0E0"/>
<path d="M67.1992 88.3515C67.227 87.9027 67.52 87.5137 67.9438 87.3631C68.3676 87.2125 68.8403 87.3294 69.1451 87.66L68.8457 87.9384C68.7198 87.7857 68.5318 87.6978 68.3338 87.6989C67.9734 87.6989 67.6812 87.9911 67.6812 88.3515C67.6812 88.712 67.9734 89.0042 68.3338 89.0042C68.5329 89.0072 68.722 88.9176 68.8457 88.7617L69.1451 89.0401C68.8418 89.3734 68.3683 89.4924 67.9435 89.3421C67.5187 89.1918 67.2254 88.8014 67.1992 88.3515H67.1992Z" fill="#E0E0E0"/>
<path d="M69.2947 88.3516C69.269 87.8948 69.5245 87.4686 69.9394 87.2759C70.3543 87.0833 70.8448 87.1632 71.1771 87.4776C71.5094 87.7921 71.6163 88.2774 71.4468 88.7023C71.2774 89.1273 70.8659 89.4059 70.4084 89.4053C70.1187 89.4218 69.835 89.3181 69.6243 89.1187C69.4135 88.9193 69.2943 88.6418 69.2947 88.3516ZM71.0461 88.3516C71.0378 88.0015 70.7488 87.7235 70.3987 87.729C70.0485 87.7344 69.7683 88.0213 69.7709 88.3714C69.7736 88.7216 70.0582 89.0041 70.4084 89.0042C70.5825 89.0103 70.7511 88.9432 70.8734 88.8191C70.9957 88.6951 71.0605 88.5256 71.052 88.3516L71.0461 88.3516Z" fill="#E0E0E0"/>
<path d="M71.8662 88.4743V87.3337H72.3362V88.4563C72.3362 88.8425 72.5039 89.0042 72.7912 89.0042C73.0786 89.0042 73.2433 88.8425 73.2433 88.4563V87.3337H73.7103V88.4743C73.7103 88.9835 73.2975 89.3963 72.7883 89.3963C72.279 89.3963 71.8662 88.9835 71.8662 88.4743Z" fill="#E0E0E0"/>
<path d="M76.0419 87.3337V89.3694H75.6557L74.6408 88.133V89.3694H74.1738V87.3337H74.563L75.5808 88.5701V87.3337H76.0419Z" fill="#E0E0E0"/>
<path d="M76.9466 87.7169H76.2939V87.3337H78.0692V87.7169H77.4166V89.3694H76.9466V87.7169Z" fill="#E0E0E0"/>
<path d="M79.6195 89.3695L79.2274 88.8097H78.7933V89.3755H78.3203V87.3398H79.2184C79.7603 87.3398 80.1015 87.6212 80.1015 88.0792C80.1134 88.3612 79.9451 88.6197 79.6824 88.7228L80.1405 89.3755L79.6195 89.3695ZM79.1735 87.717H78.7903V88.4265H79.1735C79.4729 88.4265 79.6076 88.2947 79.6076 88.0732C79.6076 87.8517 79.4729 87.717 79.1735 87.717Z" fill="#E0E0E0"/>
<path d="M81.4068 88.6479V89.3694H80.9368V88.6419L80.1465 87.3337H80.6465L81.1913 88.2318L81.7361 87.3337H82.2002L81.4068 88.6479Z" fill="#E0E0E0"/>
</svg>
