<svg width="18" height="21" viewBox="0 0 18 21" fill="none" xmlns="http://www.w3.org/2000/svg">
<path d="M17.5206 13.2099L15.7206 11.3999V6.93993C15.7701 3.51528 13.2861 0.578821 9.90061 0.0599338C7.97837 -0.193211 6.04022 0.393693 4.58133 1.67069C3.12245 2.9477 2.28415 4.7911 2.28061 6.72993L2.28061 11.3999L0.480605 13.2099C0.0183681 13.6799 -0.117581 14.3809 0.135482 14.9896C0.388546 15.5982 0.981437 15.9962 1.6406 15.9999L5.0006 15.9999V16.3399C5.09786 18.4536 6.88662 20.0903 9.0006 19.9999C11.1146 20.0903 12.9034 18.4536 13.0006 16.3399V15.9999H16.3606C17.0198 15.9962 17.6127 15.5982 17.8657 14.9896C18.1188 14.3809 17.9828 13.6799 17.5206 13.2099ZM11.0006 16.3399C10.8854 17.3392 10.004 18.0708 9.0006 17.9999C7.9972 18.0708 7.11582 17.3392 7.0006 16.3399V15.9999H11.0006V16.3399Z" fill="black"/>
</svg>
