<svg width="22" height="18" viewBox="0 0 22 18" fill="none" xmlns="http://www.w3.org/2000/svg">
<path d="M9.21289 9.5957H12.7879V10.7874H9.21289V9.5957Z" fill="white"/>
<path d="M17.3308 10.7875H13.9791V11.3833C13.9791 11.7126 13.7125 11.9792 13.3832 11.9792H8.61658C8.28733 11.9792 8.02075 11.7126 8.02075 11.3833V10.7875H4.66905C3.89866 10.7875 3.21733 10.2964 2.97341 9.56561L0.831055 3.13745V16.15C0.831055 17.1356 1.63294 17.9375 2.61855 17.9375H19.3813C20.3669 17.9375 21.1688 17.1356 21.1688 16.15V3.13793L19.0263 9.56561C18.7825 10.2964 18.1012 10.7875 17.3308 10.7875Z" fill="white"/>
<path d="M13.3834 0.0625H8.61679C7.63118 0.0625 6.82929 0.86439 6.82929 1.84999V2.44583H1.85645L4.10369 9.18849C4.18515 9.43225 4.41262 9.5958 4.66927 9.5958H8.02097V8.99997C8.02097 8.67071 8.28754 8.40413 8.61681 8.40413H13.3835C13.7127 8.40413 13.9793 8.67071 13.9793 8.99997V9.5958H17.331C17.5876 9.5958 17.8151 9.43225 17.8966 9.18849L20.144 2.44583H15.171V1.84999C15.171 0.86439 14.3691 0.0625 13.3835 0.0625H13.3834ZM8.02096 2.44583V1.84999C8.02096 1.5212 8.28799 1.25416 8.61679 1.25416H13.3834C13.7122 1.25416 13.9793 1.5212 13.9793 1.84999V2.44583H8.02096Z" fill="white"/>
</svg>
