<svg xmlns="http://www.w3.org/2000/svg" width="164" height="169" viewBox="0 0 164 169">
  <g id="Group_732" data-name="Group 732" transform="translate(6916.022 1264.157)">
    <circle id="Ellipse_145" data-name="Ellipse 145" cx="82" cy="82" r="82" transform="translate(-6916.022 -1264.157)" fill="#fff"/>
    <g id="Icon_ionic-ios-camera" data-name="Icon ionic-ios-camera" transform="translate(-6870.055 -1209.138)">
      <path id="Path_28" data-name="Path 28" d="M35.539,26.084A10.791,10.791,0,1,1,24.748,15.293,10.791,10.791,0,0,1,35.539,26.084Z" transform="translate(11.285 4.506)" fill="#59d6d6"/>
      <path id="Path_29" data-name="Path 29" d="M70.842,16.883H60.614a3.046,3.046,0,0,1-2.252-1.013c-5.33-5.968-7.338-7.995-9.515-7.995H32.8c-2.2,0-4.354,2.027-9.7,8.014a2.987,2.987,0,0,1-2.233.995H20.1v-1.5a1.506,1.506,0,0,0-1.5-1.5H13.715a1.506,1.506,0,0,0-1.5,1.5v1.5H10.806c-3.322,0-6.306,2.477-6.306,5.761v33.03a6.5,6.5,0,0,0,6.287,6.249H70.842c3.3,0,5.724-2.965,5.724-6.249V22.645A5.594,5.594,0,0,0,70.842,16.883ZM41.283,54.492A16.045,16.045,0,1,1,56.56,39.216,16.06,16.06,0,0,1,41.283,54.492ZM58.549,27.768a2.44,2.44,0,1,1,2.44-2.44A2.435,2.435,0,0,1,58.549,27.768Z" transform="translate(-4.5 -7.875)" fill="#59d6d6"/>
    </g>
    <ellipse id="Ellipse_146" data-name="Ellipse 146" cx="21" cy="21.5" rx="21" ry="21.5" transform="translate(-6812.022 -1138.157)" fill="#fff"/>
    <g id="Layer_2" data-name="Layer 2" transform="translate(-6810.727 -1138.191)">
      <g id="plus" transform="translate(0 0)">
        <rect id="Rectangle_9" data-name="Rectangle 9" width="38" height="40" transform="translate(37.705 40.034) rotate(180)" fill="#fff" opacity="0"/>
        <path id="Path_30" data-name="Path 30" d="M28.568,15.465H18.741V5.638a1.638,1.638,0,0,0-3.276,0v9.827H5.638a1.638,1.638,0,0,0,0,3.276h9.827v9.827a1.638,1.638,0,0,0,3.276,0V18.741h9.827a1.638,1.638,0,0,0,0-3.276Z" transform="translate(2.186 2.851)" fill="#58d7d7"/>
      </g>
    </g>
  </g>
</svg>
