<svg width="19" height="19" viewBox="0 0 19 19" fill="none" xmlns="http://www.w3.org/2000/svg">
<path d="M17.71 16.29L14.31 12.9C15.407 11.5025 16.0022 9.77665 16 8C16 3.58172 12.4183 0 8 0C3.58172 0 0 3.58172 0 8C0 12.4183 3.58172 16 8 16C9.77665 16.0022 11.5025 15.407 12.9 14.31L16.29 17.71C16.4778 17.8993 16.7334 18.0058 17 18.0058C17.2666 18.0058 17.5222 17.8993 17.71 17.71C17.8993 17.5222 18.0058 17.2666 18.0058 17C18.0058 16.7334 17.8993 16.4778 17.71 16.29ZM2 8C2 4.68629 4.68629 2 8 2C11.3137 2 14 4.68629 14 8C14 11.3137 11.3137 14 8 14C4.68629 14 2 11.3137 2 8V8Z" fill="#BFB9B9"/>
</svg>
