<svg width="42" height="42" viewBox="0 0 42 42" fill="none" xmlns="http://www.w3.org/2000/svg">
<path d="M41.6387 20.9997C41.6388 20.6516 41.4312 20.3369 41.1114 20.2L13.4346 8.33844C13.1179 8.20264 12.751 8.26662 12.4989 8.50143C12.2467 8.73624 12.1569 9.09775 12.2698 9.42316L16.2845 20.9996L12.2698 32.576C12.1602 32.8918 12.2414 33.2412 12.4764 33.4762C12.4837 33.4835 12.4912 33.4907 12.4988 33.4978C12.7509 33.7326 13.1178 33.7965 13.4345 33.6608L41.1114 21.7995C41.4312 21.6623 41.6387 21.3478 41.6387 20.9997Z" fill="#A7E9E9"/>
<path d="M41.639 20.9997L16.2849 20.9996L12.2701 32.5761C12.1606 32.8918 12.2418 33.2413 12.4768 33.4762C12.4841 33.4835 12.4916 33.4908 12.4992 33.4978C12.7513 33.7326 13.1182 33.7966 13.4349 33.6608L41.1117 21.7995C41.4316 21.6624 41.639 21.3478 41.639 20.9997Z" fill="#59D6D6"/>
</svg>
