<svg width="30" height="30" viewBox="0 0 30 30" fill="none" xmlns="http://www.w3.org/2000/svg">
<path d="M4.37948 19.223C4.20965 19.5617 4.2758 19.9712 4.54337 20.239L4.75829 20.4539C5.37925 19.7181 6.10299 18.9195 6.98077 18.0419C7.0428 17.9799 7.10666 17.9499 7.16892 17.8927L5.78622 16.5098C4.98236 17.9636 4.51359 18.957 4.37948 19.223Z" fill="white"/>
<path d="M11.9531 23.0139C11.0732 23.8937 10.2767 24.6188 9.54492 25.2402L9.83607 25.5314C10.1062 25.8015 10.5195 25.8665 10.8594 25.6916C11.3147 25.457 12.0306 25.1201 13.5505 24.2736L12.1025 22.8257C12.0453 22.8882 12.0153 22.9518 11.9531 23.0139Z" fill="white"/>
<path d="M11.4838 18.5116C10.8486 17.8765 9.06241 18.4459 8.2233 19.2848C5.41624 22.0919 4.14844 24.0821 3.5792 25.2572C3.416 25.5939 3.48398 25.9969 3.74858 26.2615C4.01363 26.5268 4.41738 26.5941 4.75431 26.4309C5.90309 25.8732 7.869 24.6113 10.7095 21.771C11.6321 20.8479 12.0874 19.1155 11.4845 18.5124L11.4838 18.5116Z" fill="white"/>
<path d="M2.74339 11.7014L0.257451 14.1873C-0.0236221 14.4684 -0.0813013 14.9035 0.11783 15.2482C0.312155 15.5883 0.719115 15.7616 1.10639 15.6579C2.44996 15.2976 3.63216 15.1454 4.42823 15.3496C5.56076 13.3361 6.77775 11.4825 8.06661 9.79886C7.32113 9.32093 4.85762 9.58712 2.74339 11.7014H2.74339Z" fill="white"/>
<path d="M14.8772 29.9056C15.2158 30.0768 15.6257 30.0106 15.8937 29.7424L18.3799 27.2565C20.3046 25.3313 20.6433 22.8474 20.2067 22.0598C18.3288 23.475 16.4266 24.67 14.6518 25.6705C14.7743 26.3619 14.6927 27.0328 14.4032 28.9921C14.3467 29.3713 14.5426 29.7383 14.8772 29.9056H14.8772Z" fill="white"/>
<path d="M17.4497 8.81605C16.4217 9.8442 16.4217 11.5167 17.4497 12.5448C18.4778 13.573 20.1505 13.573 21.1787 12.5448C22.2068 11.5167 22.2068 9.8442 21.1787 8.81605C20.1505 7.78788 18.4778 7.78788 17.4497 8.81605Z" fill="white"/>
<path d="M29.949 0.856599C29.9174 0.421943 29.5713 0.0783813 29.1381 0.0458845C26.9794 -0.116625 24.8293 0.148883 22.7217 0.793428C22.8803 2.24136 23.6292 3.80832 24.9078 5.08688C26.2017 6.38055 27.8112 7.12924 29.285 7.26932C29.8526 5.28007 30.1218 3.14959 29.949 0.856623V0.856599Z" fill="white"/>
<path d="M23.6643 6.33001C22.2018 4.86742 21.3086 3.11323 21.0221 1.40527C15.7442 3.56986 10.6917 8.29681 6.69922 14.9373L8.68277 16.9208C10.038 16.3706 11.6832 16.2252 12.7267 17.2685C13.7716 18.3136 13.6235 19.9581 13.0735 21.3115L15.1223 23.3603C20.2315 20.2811 26.1798 15.4298 28.7092 8.97546C26.9596 8.7111 25.1507 7.81637 23.6643 6.32999L23.6643 6.33001ZM22.421 13.7878C20.7078 15.501 17.9197 15.501 16.2063 13.7878C14.4928 12.0744 14.4928 9.28606 16.2063 7.57286C17.9197 5.85965 20.7078 5.85965 22.421 7.57286C24.1345 9.28631 24.1345 12.0744 22.421 13.7878Z" fill="white"/>
</svg>
