<svg width="20" height="20" viewBox="0 0 20 20" fill="none" xmlns="http://www.w3.org/2000/svg">
<path d="M18.71 17.29L15.31 13.9C16.407 12.5025 17.0022 10.7767 17 9C17 4.58172 13.4183 1 9 1C4.58172 1 1 4.58172 1 9C1 13.4183 4.58172 17 9 17C10.7767 17.0022 12.5025 16.407 13.9 15.31L17.29 18.71C17.4778 18.8993 17.7334 19.0058 18 19.0058C18.2666 19.0058 18.5222 18.8993 18.71 18.71C18.8993 18.5222 19.0058 18.2666 19.0058 18C19.0058 17.7334 18.8993 17.4778 18.71 17.29ZM3 9C3 5.68629 5.68629 3 9 3C12.3137 3 15 5.68629 15 9C15 12.3137 12.3137 15 9 15C5.68629 15 3 12.3137 3 9V9Z" stroke="#A5A5A5"/>
</svg>
