<svg width="100" height="100" viewBox="0 0 100 100" fill="none" xmlns="http://www.w3.org/2000/svg">
<circle cx="50" cy="50" r="50" fill="#59D6D6"/>
<path d="M58.5581 29.6575H41.4392C39.8021 29.6575 38.4795 30.9852 38.4795 32.6223V67.3815C38.4795 69.0135 39.8021 70.3425 41.4392 70.3425H58.5581C60.1927 70.3425 61.5204 69.0148 61.5204 67.3815V32.6223C61.5191 30.9852 60.1927 29.6575 58.5581 29.6575ZM59.3003 62.6215H40.6996V34.6588H59.3003V62.6215ZM53.9677 32.666H46.031V31.8005H53.9689L53.9677 32.666ZM57.364 32.2705C57.364 32.6891 57.0224 33.0281 56.6051 33.0281C56.1865 33.0281 55.8462 32.6878 55.8462 32.2705C55.8462 31.8532 56.1865 31.5129 56.6051 31.5129C57.0237 31.5116 57.364 31.8519 57.364 32.2705ZM53.612 67.1837H46.3841V64.9597H53.612V67.1837Z" fill="white"/>
</svg>
