<svg width="269" height="257" viewBox="0 0 269 257" fill="none" xmlns="http://www.w3.org/2000/svg">
<ellipse cx="144" cy="218.052" rx="125" ry="7.29795" fill="#F5F5F5"/>
<path d="M162.535 162.305C162.535 162.259 162.535 162.214 162.503 162.169L160.82 151.57C160.712 150.999 160.866 150.408 161.241 149.963C161.617 149.518 162.172 149.265 162.755 149.275L181.102 149.275L185.493 120.303C185.757 118.804 187.034 117.693 188.555 117.64L217.869 117.64C218.549 117.619 219.2 117.909 219.639 118.428C220.079 118.946 220.258 119.636 220.126 120.303L214.079 160.229C213.815 161.728 212.538 162.838 211.016 162.891H210.455L209.901 164.742C209.529 165.973 208.396 166.816 207.11 166.818H160.498C160.494 165.09 161.237 163.445 162.535 162.305Z" fill="#59D6D6"/>
<path opacity="0.5" d="M162.535 162.305C162.535 162.259 162.535 162.214 162.503 162.169L160.82 151.57C160.712 150.999 160.866 150.408 161.241 149.963C161.617 149.518 162.172 149.265 162.755 149.275L181.102 149.275L185.493 120.303C185.757 118.804 187.034 117.693 188.555 117.64L217.869 117.64C218.549 117.619 219.2 117.909 219.639 118.428C220.079 118.946 220.258 119.636 220.126 120.303L214.079 160.229C213.815 161.728 212.538 162.838 211.016 162.891H210.455L209.901 164.742C209.529 165.973 208.396 166.816 207.11 166.818H160.498C160.494 165.09 161.237 163.445 162.535 162.305Z" fill="black"/>
<path d="M193.126 214.229H195.169L192.371 166.811H190.321L193.126 214.229Z" fill="#59D6D6"/>
<path opacity="0.5" d="M193.126 214.229H195.169L192.371 166.811H190.321L193.126 214.229Z" fill="white"/>
<path d="M162.663 214.229H160.613L163.418 166.811H165.461L162.663 214.229Z" fill="#59D6D6"/>
<path opacity="0.5" d="M162.663 214.229H160.613L163.418 166.811H165.461L162.663 214.229Z" fill="white"/>
<path d="M205.942 214.229H207.986L205.181 166.811H203.138L205.942 214.229Z" fill="#59D6D6"/>
<path opacity="0.5" d="M205.942 214.229H207.986L205.181 166.811H203.138L205.942 214.229Z" fill="white"/>
<path d="M175.48 214.229H173.43L176.234 166.811H178.278L175.48 214.229Z" fill="#59D6D6"/>
<path opacity="0.5" d="M175.48 214.229H173.43L176.234 166.811H178.278L175.48 214.229Z" fill="white"/>
<path d="M140.344 210.431L135.87 208.42L138.965 197.376L143.439 199.388L140.344 210.431Z" fill="#FFC3BD"/>
<path d="M136.019 207.014L141.041 209.271C141.219 209.345 141.305 209.549 141.234 209.729L139.693 213.809C139.499 214.246 138.99 214.444 138.552 214.254C136.818 213.436 136.025 212.965 133.82 211.966C132.46 211.353 127.766 209.29 126.006 208.22C124.246 207.15 125.362 205.441 126.2 205.738C129.971 207.066 133.414 207.369 135.122 206.943C135.421 206.865 135.736 206.89 136.019 207.014V207.014Z" fill="#263238"/>
<path opacity="0.2" d="M143.44 199.394L138.965 197.376L137.373 203.069L141.847 205.087L143.44 199.394Z" fill="black"/>
<path d="M179.497 137.478C179.497 137.478 143.271 139.347 143.22 153.402C143.142 173.606 135.986 198.911 135.986 198.911L144.316 202.263C144.316 202.263 156.887 172.8 156.707 157.031C166.609 154.188 192.242 158.965 195.272 150.752C196.758 146.492 197.15 141.928 196.414 137.478H179.497Z" fill="#59D6D6"/>
<path opacity="0.3" d="M179.497 137.478C179.497 137.478 143.271 139.347 143.22 153.402C143.142 173.606 135.986 198.911 135.986 198.911L144.316 202.263C144.316 202.263 156.887 172.8 156.707 157.031C166.609 154.188 192.242 158.965 195.272 150.752C196.758 146.492 197.15 141.928 196.414 137.478H179.497Z" fill="black"/>
<path d="M144.413 204.687L134.871 200.4L135.638 196.487L145.708 199.968L144.413 204.687Z" fill="#263238"/>
<path d="M134.084 207.079C134.499 207.252 134.931 207.38 135.374 207.459C135.419 207.466 135.465 207.446 135.49 207.408C135.515 207.371 135.515 207.322 135.49 207.285C135.393 207.124 134.516 205.686 133.872 205.66C133.724 205.649 133.581 205.718 133.498 205.841C133.342 206.017 133.295 206.264 133.375 206.486C133.53 206.764 133.783 206.975 134.084 207.079ZM135.129 207.175C134.258 206.976 133.678 206.685 133.562 206.382C133.518 206.242 133.555 206.088 133.659 205.983C133.694 205.917 133.765 205.88 133.839 205.886C134.181 205.905 134.755 206.615 135.129 207.175Z" fill="#59D6D6"/>
<path d="M135.323 207.446C135.339 207.453 135.358 207.453 135.374 207.446C135.414 207.444 135.45 207.422 135.471 207.388C135.471 207.337 136.174 206.099 135.922 205.454C135.854 205.289 135.714 205.163 135.542 205.112C135.357 205.034 135.141 205.095 135.026 205.261C134.704 205.699 134.949 206.93 135.278 207.395C135.283 207.418 135.3 207.438 135.323 207.446ZM135.523 205.364C135.607 205.4 135.674 205.467 135.71 205.551C135.765 206.093 135.643 206.638 135.361 207.104C135.098 206.577 135.043 205.969 135.207 205.402C135.272 205.321 135.385 205.297 135.477 205.344L135.523 205.364Z" fill="#59D6D6"/>
<path d="M181.869 101.91C181.45 103.199 181.031 104.398 180.579 105.617C180.128 106.835 179.645 108.021 179.142 109.208C178.13 111.587 177.021 113.94 175.764 116.241C174.502 118.604 173.055 120.863 171.438 122.998C170.581 124.125 169.641 125.188 168.627 126.176C167.52 127.268 166.274 128.209 164.92 128.974L164.649 129.122L164.514 129.167C163.663 129.48 162.752 129.593 161.851 129.496C161.269 129.442 160.693 129.337 160.13 129.18C159.206 128.921 158.301 128.598 157.422 128.213C155.835 127.506 154.291 126.705 152.8 125.815C151.343 124.951 149.937 124.049 148.564 123.101C147.191 122.153 145.856 121.167 144.541 120.096L146.475 116.983C147.932 117.627 149.402 118.317 150.878 118.917C152.355 119.516 153.812 120.206 155.269 120.786C156.726 121.367 158.183 121.927 159.575 122.359C160.208 122.563 160.854 122.72 161.509 122.83C161.737 122.868 161.968 122.885 162.199 122.882C162.341 122.882 162.38 122.791 161.948 122.927L161.542 123.127C163.18 121.932 164.589 120.452 165.7 118.756C167.002 116.845 168.176 114.851 169.214 112.786C170.277 110.678 171.27 108.498 172.198 106.274C172.663 105.172 173.114 104.05 173.546 102.928C173.978 101.806 174.403 100.646 174.764 99.5952L181.869 101.91Z" fill="#FFC3BD"/>
<path d="M176.357 96.5717C170.96 99.3439 168.865 108.821 168.865 108.821L179.554 115.958C182.997 112.734 186.053 105.643 186.646 102.38C187.484 97.4228 182.765 93.2773 176.357 96.5717Z" fill="#263238"/>
<path opacity="0.3" d="M178.337 104.682C176.531 106.803 175.822 109.981 175.835 113.482L179.555 115.964C182.895 112.812 185.905 106.029 186.55 102.69C183.397 102.187 179.71 103.051 178.337 104.682Z" fill="black"/>
<path d="M179.001 211.082H174.101L171.857 199.729H176.757L179.001 211.082Z" fill="#FFC3BD"/>
<path d="M173.952 209.89H179.458C179.55 209.886 179.64 209.92 179.708 209.982C179.776 210.045 179.816 210.133 179.819 210.225L180.09 214.583C180.09 215.061 179.704 215.45 179.226 215.453C177.292 215.453 176.396 215.305 173.972 215.305C172.482 215.305 167.428 215.46 165.371 215.46C163.315 215.46 163.373 213.429 164.243 213.242C168.156 212.417 171.722 211.308 173.108 210.193C173.346 209.998 173.644 209.891 173.952 209.89Z" fill="#263238"/>
<path opacity="0.2" d="M176.757 199.736H171.857L173.076 205.886L177.918 205.583L176.757 199.736Z" fill="black"/>
<path d="M189.128 137.478C189.128 137.478 156.803 140.211 157.602 154.24C158.473 169.603 170.915 204.165 170.915 204.165H179.89C179.89 204.165 175.834 172.897 173.862 157.25C182.971 157.25 201.874 158.965 204.904 150.745C206.409 146.572 207.141 142.159 207.064 137.723L189.128 137.478Z" fill="#59D6D6"/>
<path opacity="0.3" d="M189.128 137.478C189.128 137.478 156.803 140.211 157.602 154.24C158.473 169.603 170.915 204.165 170.915 204.165H179.89C179.89 204.165 175.834 172.897 173.862 157.25C182.971 157.25 201.874 158.965 204.904 150.745C206.409 146.572 207.141 142.159 207.064 137.723L189.128 137.478Z" fill="black"/>
<path d="M180.432 204.126L169.684 204.958L168.711 200.361L179.974 200.045L180.432 204.126Z" fill="#263238"/>
<path d="M172.212 210.747C172.647 210.734 173.079 210.673 173.501 210.567C173.545 210.557 173.578 210.521 173.585 210.476C173.59 210.435 173.573 210.393 173.54 210.367C173.379 210.257 171.993 209.309 171.393 209.542C171.256 209.598 171.157 209.719 171.129 209.864C171.054 210.089 171.108 210.336 171.27 210.509C171.543 210.705 171.879 210.79 172.212 210.747L172.212 210.747ZM173.205 210.405C172.328 210.58 171.683 210.554 171.451 210.322C171.35 210.212 171.32 210.055 171.374 209.915C171.383 209.844 171.43 209.783 171.496 209.754C171.818 209.625 172.637 210.044 173.205 210.405Z" fill="#59D6D6"/>
<path d="M173.495 210.573H173.547C173.581 210.555 173.602 210.521 173.605 210.483C173.605 210.418 173.721 209.013 173.224 208.549C173.097 208.422 172.918 208.363 172.741 208.388C172.539 208.393 172.367 208.537 172.328 208.736C172.212 209.271 172.973 210.289 173.437 210.58C173.457 210.585 173.477 210.583 173.495 210.573L173.495 210.573ZM172.851 208.587C172.942 208.587 173.029 208.622 173.095 208.684C173.365 209.157 173.478 209.703 173.418 210.244C172.992 209.883 172.502 209.103 172.58 208.755C172.58 208.691 172.631 208.607 172.792 208.587H172.851Z" fill="#59D6D6"/>
<path d="M147.675 117.511L143.117 114.559L141.467 120.264C141.467 120.264 146.624 121.902 147.566 120.509L147.675 117.511Z" fill="#FFC3BD"/>
<path d="M138.011 115.526L138.159 119.935L141.466 120.264L143.117 114.559L138.011 115.526Z" fill="#FFC3BD"/>
<path d="M205.027 94.3862C204.537 93.0968 202.287 91.8074 200.894 91.8074H199.979C198.386 91.8074 196.388 91.9299 194.454 92.162C190.768 92.5645 187.109 93.178 183.494 93.9994C181.831 94.4377 180.225 94.9922 178.981 95.4693C177.35 96.114 176.402 96.5459 176.402 96.5459C176.402 96.5459 179.116 125.19 179.574 137.703H207.083C208.031 132.333 207.412 122.488 207.49 112.779C207.49 106.958 207.019 99.6985 205.027 94.3862Z" fill="#263238"/>
<path d="M206.328 99.2729C206.464 100.259 206.554 101.091 206.612 101.994C206.67 102.896 206.722 103.76 206.748 104.643C206.793 106.41 206.748 108.183 206.632 109.962C206.508 111.758 206.273 113.545 205.929 115.313L205.658 116.66L205.31 117.969C205.2 118.414 205.039 118.865 204.904 119.31L204.685 119.955L204.633 120.116L204.51 120.438C204.427 120.659 204.33 120.874 204.22 121.083C203.526 122.3 202.52 123.31 201.306 124.01C200.422 124.54 199.49 124.985 198.521 125.338C196.802 125.955 195.033 126.428 193.235 126.75C189.816 127.365 186.348 127.665 182.874 127.646L182.494 123.991C185.647 123.223 188.857 122.366 191.855 121.367C193.302 120.894 194.715 120.323 196.084 119.658C196.663 119.379 197.211 119.042 197.722 118.652C198.154 118.33 198.367 117.963 198.283 118.04L198.244 118.098L198.276 117.963L198.392 117.428C198.47 117.067 198.573 116.718 198.624 116.344L198.818 115.242L198.972 114.114C199.153 112.605 199.269 111.064 199.308 109.511C199.346 107.957 199.34 106.378 199.308 104.804C199.308 104.018 199.243 103.231 199.185 102.451L199.095 101.284L199.005 100.182L206.328 99.2729Z" fill="#FFC3BD"/>
<path d="M206.323 93.5737C202.235 90.679 198.689 90.9433 196.82 97.4418C195.588 101.69 196.001 110.793 196.001 110.793L208.25 109.917C209.714 103.141 209.862 96.088 206.323 93.5737Z" fill="#263238"/>
<path d="M192.836 79.2874L190.102 82.4593L186.376 86.7723C186.602 87.3268 186.791 87.8953 186.943 88.4743C187.588 90.7823 187.317 92.9871 184.004 94.4119C184.004 94.4119 181.141 98.1511 187.949 97.1132C194.757 96.0752 195.782 92.5165 195.782 92.5165C192.771 90.4083 192.597 83.278 192.836 79.2874Z" fill="#FFC3BD"/>
<path opacity="0.2" d="M186.376 86.7852C186.602 87.3397 186.791 87.9082 186.943 88.4872C188.503 87.8941 190.373 85.8117 190.322 84.129C190.308 83.5705 190.234 83.015 190.102 82.4722L186.376 86.7852Z" fill="black"/>
<path d="M179.858 68.0245C177.704 68.9787 177.995 75.6512 179.858 76.7086C181.721 77.7659 184.442 65.9808 179.858 68.0245Z" fill="#263238"/>
<path d="M193.229 73.5817C192.971 78.8424 193.087 81.9305 190.476 84.7478C188.766 86.6331 186.152 87.4156 183.688 86.7799C181.223 86.1441 179.314 84.1949 178.73 81.7178C177.543 77.0502 178.162 69.23 183.243 66.8898C185.468 65.7937 188.109 65.9692 190.169 67.35C192.23 68.7309 193.397 71.1069 193.229 73.5817Z" fill="#FFC3BD"/>
<path opacity="0.3" d="M188.522 78.2686C188.413 79.0809 187.368 79.6096 186.182 79.4549C184.996 79.3001 184.125 78.5136 184.248 77.7013C184.37 76.889 185.395 76.3668 186.582 76.5215C187.768 76.6763 188.625 77.4628 188.522 78.2686Z" fill="#ED847E"/>
<path opacity="0.3" d="M179.381 77.7595C179.182 77.2846 178.734 76.9611 178.22 76.9214C178.202 77.8192 178.242 78.7173 178.343 79.6098C179.149 79.1585 179.593 78.4042 179.381 77.7595Z" fill="#ED847E"/>
<path d="M179.278 68.5533C181.019 71.5962 190.322 69.9909 190.322 69.9909C189.772 72.6231 189.528 75.3099 189.593 77.998C190.533 78.4143 191.596 78.4558 192.565 78.1141L194.854 76.3154C194.854 76.3154 198.561 72.1249 196.917 69.0626C198.4 67.0898 173.908 63.6342 179.278 68.5533Z" fill="#263238"/>
<path d="M198.476 68.4629C198.502 67.797 198.147 67.1743 197.561 66.8576C197.581 65.9661 196.908 65.211 196.02 65.1299C195.832 64.5477 195.39 64.0823 194.819 63.8642C194.248 63.6462 193.608 63.6991 193.08 64.0081C192.875 63.4654 192.445 63.0382 191.901 62.8367C191.357 62.6352 190.753 62.6792 190.244 62.9572C189.587 62.0149 188.31 61.7465 187.33 62.3448C186.989 62.5118 186.693 62.757 186.466 63.0604C185.763 62.4624 184.758 62.3769 183.964 62.8476C183.51 63.0658 183.144 63.4318 182.926 63.8856C182.269 63.459 181.43 63.4317 180.747 63.8147C180.185 64.0773 179.77 64.5793 179.619 65.1814C179.481 65.2199 179.347 65.2718 179.219 65.3362C178.792 65.5217 178.465 65.8806 178.32 66.3228C178.175 66.7649 178.225 67.248 178.459 67.6506C178.314 68.0832 178.356 68.5566 178.575 68.9568C178.794 69.357 179.17 69.6476 179.613 69.7587C180.129 69.9606 180.711 69.8982 181.173 69.5915C181.635 69.2848 181.919 68.7722 181.933 68.2179C181.94 68.1278 181.94 68.0373 181.933 67.9472C183.164 68.4694 184.47 68.7916 185.802 68.9013C190.282 69.4235 193.299 68.8368 194.569 68.0181C194.689 68.1285 194.824 68.2217 194.969 68.2953C194.958 68.515 194.993 68.7348 195.072 68.94C194.563 69.3132 194.316 69.9476 194.439 70.5669C194.562 71.1861 195.033 71.6779 195.646 71.8282C196.163 72.0333 196.747 71.9723 197.21 71.665C197.673 71.3576 197.956 70.8429 197.967 70.2874C197.972 70.0906 197.944 69.8944 197.883 69.7072C198.242 69.3907 198.457 68.9412 198.476 68.4629Z" fill="#263238"/>
<path d="M195.202 78.1913C194.564 79.3818 193.514 80.2988 192.249 80.7701C190.605 81.3504 189.825 79.874 190.315 78.2365C190.76 76.7602 192.159 74.6778 193.79 74.8067C195.421 74.9357 195.988 76.7086 195.202 78.1913Z" fill="#FFC3BD"/>
<path d="M184.615 75.5031C184.615 75.9286 184.403 76.2896 184.125 76.3025C183.848 76.3154 183.616 75.9802 183.61 75.5482C183.603 75.1163 183.822 74.7681 184.106 74.7552C184.39 74.7423 184.615 75.0776 184.615 75.5031Z" fill="#263238"/>
<path d="M179.78 75.7287C179.78 76.1606 179.568 76.5152 179.29 76.5281C179.013 76.541 178.781 76.2057 178.775 75.7802C178.768 75.3547 178.987 74.9937 179.271 74.9808C179.555 74.9679 179.78 75.3032 179.78 75.7287Z" fill="#263238"/>
<path d="M181.25 75.6577C180.908 76.8191 180.411 77.9292 179.773 78.9586C180.311 79.2574 180.952 79.3046 181.527 79.0875L181.25 75.6577Z" fill="#ED847E"/>
<path d="M181.876 81.1375C182.878 81.1216 183.83 80.6979 184.513 79.9642C184.541 79.9104 184.527 79.8447 184.481 79.806C184.435 79.7673 184.368 79.7661 184.32 79.803C183.568 80.5944 182.491 80.9902 181.406 80.8732C181.372 80.8696 181.339 80.88 181.313 80.902C181.287 80.9239 181.272 80.9555 181.27 80.9892C181.267 81.0217 181.276 81.0544 181.297 81.0798C181.317 81.1052 181.347 81.1214 181.38 81.1246C181.545 81.1383 181.711 81.1426 181.876 81.1375V81.1375Z" fill="#263238"/>
<path d="M186.349 73.9879C186.391 73.9755 186.428 73.9534 186.459 73.9235C186.557 73.8254 186.557 73.667 186.459 73.5689C185.908 72.9865 185.103 72.718 184.312 72.8533C184.179 72.8835 184.095 73.0163 184.125 73.1498C184.156 73.2834 184.288 73.3671 184.422 73.3368C185.044 73.2453 185.671 73.4617 186.105 73.917C186.167 73.9834 186.261 74.0105 186.349 73.9879Z" fill="#263238"/>
<path d="M178.246 74.1299C178.327 74.1296 178.402 74.0884 178.446 74.0203C178.784 73.4612 179.363 73.0917 180.013 73.021C180.149 73.014 180.255 72.8996 180.251 72.7631C180.251 72.6959 180.224 72.6315 180.175 72.5852C180.126 72.5389 180.06 72.5146 179.993 72.5182C179.181 72.5925 178.452 73.0468 178.027 73.7431C177.991 73.7994 177.979 73.8679 177.993 73.9332C178.008 73.9986 178.048 74.0555 178.104 74.0912C178.144 74.1229 178.196 74.1369 178.246 74.1299Z" fill="#263238"/>
<path d="M183.468 123.862L178.955 123.604L180.889 128.542C180.889 128.542 185.338 128.729 185.247 126.428L183.468 123.862Z" fill="#FFC3BD"/>
<path d="M174.462 126.46L176.596 129.715L180.864 128.542L178.955 123.604L174.462 126.46Z" fill="#FFC3BD"/>
<path d="M210.256 145.607H190.489C189.236 145.65 188.182 146.559 187.956 147.793L186.35 157.94C186.237 158.485 186.381 159.052 186.739 159.478C187.097 159.905 187.631 160.143 188.188 160.126H207.954C209.207 160.083 210.261 159.173 210.488 157.94L212.093 147.818C212.215 147.269 212.076 146.695 211.716 146.262C211.357 145.83 210.818 145.588 210.256 145.607Z" fill="#59D6D6"/>
<path opacity="0.5" d="M210.256 145.607H190.489C189.236 145.65 188.182 146.559 187.956 147.793L186.35 157.94C186.237 158.485 186.381 159.052 186.739 159.478C187.097 159.905 187.631 160.143 188.188 160.126H207.954C209.207 160.083 210.261 159.173 210.488 157.94L212.093 147.818C212.215 147.269 212.076 146.695 211.716 146.262C211.357 145.83 210.818 145.588 210.256 145.607Z" fill="black"/>
<path d="M155.83 129.825C155.754 129.896 155.636 129.896 155.559 129.825L130.268 104.527C130.198 104.453 130.198 104.337 130.268 104.263C130.342 104.193 130.458 104.193 130.532 104.263L155.83 129.574C155.889 129.647 155.889 129.752 155.83 129.825Z" fill="#59D6D6"/>
<path d="M128.611 105.797L127.567 104.753C126.702 103.883 126.702 102.477 127.567 101.607C128.033 101.135 128.686 100.898 129.346 100.962C128.248 102.324 127.967 104.171 128.611 105.797Z" fill="#59D6D6"/>
<path d="M128.766 102.677C129.485 103.893 131.049 104.304 132.273 103.599L129.694 99.1697C128.476 99.8866 128.062 101.451 128.766 102.677Z" fill="#59D6D6"/>
<path d="M133.13 104.018C134.001 104.887 134.002 106.297 133.134 107.167C132.265 108.038 130.855 108.039 129.984 107.17L128.611 105.797C127.972 104.174 128.253 102.334 129.346 100.975C129.866 101.018 130.354 101.247 130.719 101.62L133.13 104.018Z" fill="#59D6D6"/>
<path d="M128.733 103.141C129.947 103.862 130.355 105.426 129.649 106.648L125.22 104.069C125.937 102.847 127.506 102.432 128.733 103.141Z" fill="#59D6D6"/>
<path d="M130.462 102.845C130.291 101.956 130.865 101.095 131.751 100.91L132.396 104.134C131.508 104.301 130.649 103.728 130.462 102.845H130.462Z" fill="#59D6D6"/>
<path d="M137.082 111.122C134.974 109.427 131.106 110.233 129.385 112.812C133.04 113.488 141.009 114.301 137.082 111.122Z" fill="#59D6D6"/>
<path d="M149.963 123.984C148.409 122.727 145.534 123.301 144.238 125.274C146.959 125.738 152.877 126.35 149.963 123.984Z" fill="#59D6D6"/>
<path d="M143.104 117.041C141.699 115.306 142.337 112.089 144.516 110.632C145.07 113.682 145.747 120.303 143.104 117.041Z" fill="#59D6D6"/>
<path opacity="0.2" d="M128.611 105.797L127.567 104.753C126.702 103.883 126.702 102.477 127.567 101.607C128.033 101.135 128.686 100.898 129.346 100.962C128.248 102.324 127.967 104.171 128.611 105.797Z" fill="black"/>
<path d="M150.53 209.774H161.206C163.183 209.798 165.102 210.443 166.693 211.617L173.024 216.13C173.572 216.517 173.372 217.691 172.766 217.691H138.971C138.358 217.691 138.165 216.517 138.713 216.13L145.044 211.618C146.634 210.442 148.553 209.797 150.53 209.774V209.774Z" fill="#59D6D6"/>
<rect x="197.171" y="174.338" width="82.6112" height="3.92619" transform="rotate(90 197.171 174.338)" fill="#59D6D6"/>
<rect opacity="0.3" x="158.708" y="135.875" width="5.68621" height="3.92619" transform="rotate(90 158.708 135.875)" fill="black"/>
<rect x="99.8701" y="128.587" width="111.996" height="4.9706" fill="#59D6D6"/>
<rect opacity="0.3" x="99.8701" y="128.587" width="39.3715" height="4.9706" fill="black"/>
<path d="M161.207 207.801C160.788 208.217 160.326 208.587 159.827 208.903C159.774 208.936 159.707 208.936 159.653 208.903C159.6 208.874 159.572 208.815 159.582 208.755C159.627 208.497 160.027 206.209 160.82 205.886C161.001 205.812 161.207 205.834 161.368 205.944C161.635 206.091 161.805 206.368 161.813 206.673C161.76 207.112 161.543 207.514 161.207 207.801H161.207ZM159.969 208.446C160.93 207.769 161.497 207.124 161.497 206.679C161.487 206.476 161.369 206.294 161.187 206.202C161.119 206.15 161.029 206.138 160.949 206.17C160.53 206.331 160.156 207.53 159.969 208.439V208.446Z" fill="#59D6D6"/>
<path d="M159.858 208.871C159.839 208.892 159.815 208.908 159.787 208.916C159.734 208.933 159.675 208.921 159.633 208.884C159.568 208.833 158.143 207.595 158.156 206.66C158.155 206.421 158.265 206.195 158.453 206.048C158.638 205.864 158.921 205.825 159.149 205.951C159.794 206.331 160.058 208.117 159.897 208.807C159.89 208.831 159.877 208.854 159.858 208.871ZM158.614 206.325C158.524 206.413 158.475 206.534 158.479 206.66C158.479 207.214 159.169 208.014 159.626 208.452C159.678 207.678 159.388 206.441 158.982 206.209C158.917 206.17 158.82 206.144 158.666 206.273C158.647 206.291 158.629 206.31 158.614 206.331V206.325Z" fill="#59D6D6"/>
<path d="M154.521 214.228L159.066 209.484L148.035 198.994L143.49 203.739L154.521 214.228Z" fill="#FF8B7B"/>
<path d="M158.782 208.678L153.67 214.029C153.509 214.213 153.509 214.489 153.67 214.674L157.538 219.109C157.75 219.329 158.042 219.454 158.347 219.454C158.652 219.454 158.945 219.329 159.156 219.109C160.897 217.22 161.645 216.227 163.888 213.881C165.268 212.436 167.447 210.464 169.355 208.472C171.264 206.479 169.297 204.603 168.317 205.248C163.914 208.24 162.193 207.827 159.885 208.13C159.464 208.176 159.073 208.37 158.782 208.678Z" fill="#263238"/>
<path opacity="0.2" d="M143.49 203.746L148.035 198.994L153.722 204.403L149.176 209.155L143.49 203.746Z" fill="black"/>
<path d="M85.8225 143.306C97.6913 143.892 121.551 153.17 123.614 157.354C130.19 170.686 156.842 205.557 152.11 200.903L145.109 206.57C148.899 209.387 113.39 178.609 112.603 164.665C100.747 163.975 84.6942 163.646 77.9572 159.094C73.3089 155.955 71.9099 149.424 72.7996 143.415C72.7803 143.409 73.9601 142.713 85.8225 143.306Z" fill="#263238"/>
<path d="M154.257 200.954L146.03 208.871L143.039 206.196L151.884 197.093L154.257 200.954Z" fill="#263238"/>
<path d="M121.254 214.712C120.68 214.698 120.109 214.618 119.552 214.474C119.495 214.46 119.453 214.41 119.449 214.351C119.453 214.285 119.489 214.224 119.546 214.19C119.791 214.042 121.976 212.759 122.692 213.1C122.855 213.183 122.952 213.356 122.937 213.539C122.942 213.859 122.802 214.165 122.557 214.37C122.171 214.621 121.714 214.741 121.254 214.712ZM120.023 214.254C121.132 214.48 122.002 214.441 122.376 214.138C122.545 214.006 122.637 213.798 122.621 213.584C122.633 213.502 122.592 213.422 122.518 213.384C122.144 213.204 120.913 213.758 120.023 214.254Z" fill="#59D6D6"/>
<path d="M119.585 214.48C119.562 214.489 119.537 214.489 119.514 214.48C119.468 214.455 119.444 214.402 119.456 214.351C119.456 214.267 119.759 212.378 120.565 211.772C120.755 211.609 121.005 211.532 121.255 211.56C121.5 211.559 121.702 211.753 121.713 211.998C121.751 212.739 120.346 214.151 119.669 214.512C119.639 214.508 119.61 214.497 119.585 214.48ZM121.1 211.817C120.967 211.816 120.839 211.864 120.739 211.953C120.256 212.327 119.953 213.391 119.817 214.022C120.52 213.519 121.423 212.456 121.397 212.004C121.397 211.934 121.365 211.843 121.171 211.817L121.1 211.817Z" fill="#59D6D6"/>
<path d="M87.1304 86.3792C86.9047 90.5181 87.2206 100.492 83.8424 102.819C83.8424 102.819 83.1462 106.1 90.3603 107.074C98.2836 108.151 95.144 103.502 95.144 103.502C92.3782 102.077 92.7908 96.3075 94.3123 93.2774L87.1304 86.3792Z" fill="#FF8B7B"/>
<path d="M99.6706 82.4078C99.6207 82.4079 99.5717 82.3946 99.5288 82.3691C99.3811 82.2822 99.3296 82.0935 99.4128 81.9436C99.888 81.061 100.759 80.4612 101.753 80.3319C101.931 80.3212 102.084 80.4569 102.095 80.6349C102.105 80.8129 101.97 80.9659 101.792 80.9766C101.007 81.084 100.322 81.5644 99.9543 82.266C99.893 82.3618 99.7841 82.4163 99.6706 82.4078Z" fill="#263238"/>
<path d="M101.875 85.9343C102.434 87.1005 103.15 88.1849 104.003 89.1578C103.489 89.5917 102.808 89.7738 102.146 89.6542L101.875 85.9343Z" fill="#FF5652"/>
<path d="M101.334 85.0898C101.373 85.6185 101.682 86.0246 102.03 85.9988C102.378 85.973 102.623 85.5282 102.585 84.9995C102.546 84.4709 102.23 84.0647 101.888 84.0905C101.547 84.1163 101.295 84.5289 101.334 85.0898Z" fill="#263238"/>
<path d="M101.74 84.0969L102.978 83.6392C102.978 83.6392 102.404 84.6771 101.74 84.0969Z" fill="#263238"/>
<path d="M112.062 214.325H118.631L121.629 199.104H115.053L112.062 214.325Z" fill="#FF8B7B"/>
<path d="M119.172 213.565H111.765C111.493 213.573 111.256 213.751 111.172 214.009L109.489 219.831C109.401 220.109 109.454 220.412 109.629 220.645C109.804 220.878 110.081 221.012 110.372 221.004C112.951 220.959 114.24 220.804 117.464 220.804C119.462 220.804 122.351 221.017 125.11 221.017C127.869 221.017 128.424 218.284 127.308 218.039C122.325 216.93 121.738 215.402 120.217 213.945C119.932 213.686 119.557 213.55 119.172 213.565Z" fill="#263238"/>
<path opacity="0.2" d="M115.053 199.104H121.629L120.082 206.95H113.506L115.053 199.104Z" fill="black"/>
<path d="M84.0428 107.654C84.1911 108.015 84.4103 108.492 84.6037 108.944C84.7971 109.395 85.0034 109.82 85.2484 110.233C85.6782 111.093 86.1209 111.952 86.5765 112.812C87.4556 114.498 88.4463 116.124 89.542 117.679C90.5565 119.159 91.7304 120.523 93.0427 121.747C93.3586 122.031 93.6874 122.289 93.9969 122.534C94.1581 122.643 94.3192 122.779 94.4804 122.869L94.7254 123.024L94.8479 123.108C94.8479 123.108 94.8995 123.14 94.8479 123.108C94.7435 123.088 94.638 123.075 94.532 123.069C94.2918 123.058 94.0527 123.107 93.8357 123.211C93.6358 123.32 93.565 123.391 93.5456 123.43C93.5263 123.469 93.5779 123.43 93.6358 123.333C94.0071 122.715 94.279 122.043 94.4417 121.341C94.6803 120.49 94.8608 119.562 95.0284 118.62C95.3508 116.719 95.5506 114.752 95.7247 112.741C96.0406 108.75 96.2146 104.663 96.3114 100.621L99.6315 100.401C100.206 104.543 100.535 108.715 100.618 112.896C100.664 115.031 100.602 117.168 100.431 119.297C100.339 120.418 100.184 121.533 99.9668 122.637C99.8471 123.237 99.6965 123.831 99.5155 124.416C99.3028 125.104 99.0175 125.768 98.6645 126.396C98.4312 126.802 98.1545 127.183 97.8393 127.53C97.4036 127.995 96.8856 128.376 96.3114 128.652C95.6233 128.967 94.8685 129.109 94.1129 129.065C93.495 129.02 92.8901 128.865 92.3271 128.607L91.9919 128.452L91.7791 128.342L91.3536 128.11C91.07 127.962 90.8121 127.788 90.5413 127.627C90.0221 127.299 89.5207 126.944 89.0392 126.563C87.2333 125.112 85.6193 123.438 84.2362 121.58C82.9118 119.818 81.7058 117.97 80.6259 116.048C80.1037 115.094 79.6138 114.114 79.1431 113.153C78.9046 112.663 78.6789 112.167 78.4533 111.671C78.2276 111.174 78.0407 110.691 77.8086 110.104L84.0428 107.654Z" fill="#FF8B7B"/>
<path d="M82.8694 102.819C86.0478 103.928 89.6323 114.32 89.6323 114.32L78.4791 119.033C78.4791 119.033 73.5794 110.317 74.9848 106.964C76.4483 103.477 79.0206 101.478 82.8694 102.819Z" fill="#59D6D6"/>
<path d="M98.2779 102.135L102.436 99.7565L100.115 96.3203C100.115 96.3203 94.5129 98.6477 96.4598 101.433L98.2779 102.135Z" fill="#FF8B7B"/>
<path d="M103.474 96.3202L101.495 93.3933L100.115 96.3202L102.436 99.7564L103.474 96.3202Z" fill="#FF8B7B"/>
<path opacity="0.2" d="M101.495 93.3933L100.115 96.3202C100.115 96.3202 96.9756 97.6096 96.2148 99.447L100.992 97.6161L102.436 94.7859L101.495 93.3933Z" fill="black"/>
<path d="M107.774 111.986C107.303 117.544 103.326 128.484 98.7484 143.306H72.0322C72.4255 133.732 74.972 126.93 74.1662 109.956C73.9599 105.739 76.5709 101.955 80.7936 101.723C81.9218 101.658 83.1016 101.62 84.2814 101.626C88.3264 101.538 92.3724 101.738 96.3888 102.226C97.9361 102.445 99.5349 102.729 101.024 103.025C105.228 103.857 108.135 107.716 107.774 111.986Z" fill="#59D6D6"/>
<path opacity="0.2" d="M103.061 114.346C102.384 117.041 103.313 121.438 104.847 124.016C105.492 121.966 106.033 120.103 106.478 118.42C105.545 116.902 104.394 115.53 103.061 114.346Z" fill="black"/>
<path d="M106.123 107.48C108.612 109.898 111.229 112.341 113.86 114.681C115.149 115.848 116.51 116.989 117.844 118.079C119.179 119.168 120.545 120.232 121.912 121.173C122.247 121.405 122.595 121.657 122.931 121.818L123.891 122.411C124.309 122.65 124.773 122.795 125.252 122.837C126.645 122.899 128.034 122.659 129.326 122.134C130.873 121.554 132.367 120.845 133.794 120.013C134.529 119.581 135.27 119.143 135.992 118.672C136.714 118.201 137.449 117.698 138.113 117.234L140.415 119.639C139.77 120.406 139.125 121.057 138.442 121.721C137.759 122.385 137.062 123.011 136.321 123.655C134.817 124.919 133.18 126.017 131.441 126.93C129.487 128.002 127.31 128.602 125.084 128.684C123.75 128.701 122.43 128.424 121.216 127.872L120.977 127.762L120.816 127.678L120.481 127.504L119.836 127.15C119.385 126.918 118.979 126.66 118.547 126.408C115.358 124.417 112.329 122.18 109.489 119.716C106.659 117.331 103.983 114.875 101.372 112.206L106.123 107.48Z" fill="#FF8B7B"/>
<path d="M100.276 102.948C103.596 102.413 112.216 111.129 112.216 111.129L107.413 122.044C107.413 122.044 95.647 113.959 95.3117 110.342C94.9378 106.577 96.253 103.592 100.276 102.948Z" fill="#59D6D6"/>
<path d="M138.913 120.87L144.348 120.348L142.208 115.113C142.208 115.113 138.198 116.28 136.779 118.614L138.913 120.87Z" fill="#FF8B7B"/>
<path d="M148.203 119.517L146.443 115.713L142.207 115.113L144.341 120.348L148.203 119.517Z" fill="#FF8B7B"/>
<path d="M83.3978 84.5546C84.2745 91.0015 84.5066 93.7737 88.0331 96.8618C93.3325 101.51 101.082 99.0215 102.152 92.4263C103.119 86.4887 101.507 76.9149 94.9764 74.8003C92.046 73.8373 88.8258 74.4608 86.4667 76.4482C84.1076 78.4356 82.9462 81.5032 83.3977 84.5546H83.3978Z" fill="#FF8B7B"/>
<path d="M95.2535 76.8183C97.3552 77.6951 99.8631 82.4014 99.3731 85.6249C98.8832 88.8483 95.8015 94.6506 99.76 97.0746C99.76 97.0746 92.6232 101.059 80.0001 97.5259C76.0094 96.4106 75.9062 93.8189 75.9062 93.8189C75.9062 93.8189 80.7415 91.7301 79.1749 88.3261C77.6082 84.9221 76.6477 77.7338 80.9155 76.8183C81.5602 72.9501 92.0752 71.5898 96.7879 75.1614C101.501 78.733 95.2535 76.8183 95.2535 76.8183Z" fill="#263238"/>
<path d="M91.6113 77.3856C94.635 80.5768 102.777 79.7065 101.739 76.9279C100.702 74.1492 97.001 73.4014 97.001 73.4014C97.001 73.4014 98.3484 75.0518 93.8871 73.7366C89.4258 72.4214 89.8449 75.4902 91.6113 77.3856Z" fill="#263238"/>
<path d="M99.6961 86.044C100.225 87.1731 100.353 88.4493 100.057 89.6607C99.6445 91.2596 98.2197 91.1436 97.3107 89.9444C96.492 88.8613 95.7183 86.7209 96.6145 85.4896C97.5106 84.2582 99.0385 84.6837 99.6961 86.044Z" fill="#FF8B7B"/>
<path d="M103.223 143.306C115.085 143.892 134.503 146.484 133.291 155.471C130.519 176.069 121.583 205.435 121.583 205.435H112.622C112.622 205.435 113.628 170.621 117.696 163.968C105.982 164.613 91.3666 163.53 84.4942 159.172C78.6919 155.484 76.5322 149.405 77.4025 143.409C77.4025 143.409 91.3537 142.713 103.223 143.306Z" fill="#59D6D6"/>
<path d="M122.763 205.609H111.346L111.849 201.606L124.04 201.199L122.763 205.609Z" fill="#263238"/>
<path d="M71.6323 141.739L70.4267 144.124C70.3365 144.311 70.5557 144.498 70.8651 144.498H98.8707C99.1092 144.498 99.3091 144.382 99.3284 144.234L99.5669 141.842C99.5669 141.675 99.3735 141.539 99.1092 141.539H72.0707C71.8997 141.524 71.7333 141.6 71.6323 141.739Z" fill="#263238"/>
<path d="M75.2622 144.763H74.5402C74.3984 144.763 74.2888 144.685 74.2952 144.595L74.6369 141.488C74.6369 141.397 74.7723 141.326 74.9141 141.326H75.662C75.8038 141.326 75.9134 141.397 75.9005 141.488L75.5652 144.595C75.533 144.685 75.4105 144.763 75.2622 144.763Z" fill="#59D6D6"/>
<path d="M92.8108 144.763H92.0888C91.9469 144.763 91.8309 144.685 91.8438 144.595L92.1855 141.488C92.1855 141.397 92.3208 141.326 92.4627 141.326H93.1847C93.333 141.326 93.4426 141.397 93.4297 141.488L93.0687 144.595C93.0687 144.685 92.9591 144.763 92.8108 144.763Z" fill="#59D6D6"/>
<path d="M116.593 162.305C116.593 162.26 116.593 162.215 116.593 162.17L118.276 151.571C118.385 150.999 118.23 150.408 117.855 149.963C117.48 149.518 116.924 149.265 116.342 149.276L98.0326 149.276L93.6487 120.303C93.3842 118.801 92.1038 117.69 90.58 117.64H61.2657C60.5866 117.62 59.935 117.91 59.4957 118.428C59.0564 118.946 58.8774 119.637 59.0092 120.303L65.0565 160.229C65.321 161.731 66.6013 162.841 68.1252 162.892H68.6797L69.2341 164.742C69.606 165.973 70.7395 166.816 72.0256 166.818H118.637C118.639 165.089 117.894 163.444 116.593 162.305H116.593Z" fill="#59D6D6"/>
<path opacity="0.3" d="M116.593 162.305C116.593 162.26 116.593 162.215 116.593 162.17L118.276 151.571C118.385 150.999 118.23 150.408 117.855 149.963C117.48 149.518 116.924 149.265 116.342 149.276L98.0326 149.276L93.6487 120.303C93.3842 118.801 92.1038 117.69 90.58 117.64H61.2657C60.5866 117.62 59.935 117.91 59.4957 118.428C59.0564 118.946 58.8774 119.637 59.0092 120.303L65.0565 160.229C65.321 161.731 66.6013 162.841 68.1252 162.892H68.6797L69.2341 164.742C69.606 165.973 70.7395 166.816 72.0256 166.818H118.637C118.639 165.089 117.894 163.444 116.593 162.305H116.593Z" fill="black"/>
<path d="M86.0027 221.037H83.959L86.7634 166.811H88.8071L86.0027 221.037Z" fill="#59D6D6"/>
<path opacity="0.5" d="M86.0027 221.037H83.959L86.7634 166.811H88.8071L86.0027 221.037Z" fill="white"/>
<path d="M116.464 221.037H118.514L115.71 166.811H113.666L116.464 221.037Z" fill="#59D6D6"/>
<path opacity="0.5" d="M116.464 221.037H118.514L115.71 166.811H113.666L116.464 221.037Z" fill="white"/>
<path d="M73.1927 221.037H71.1426L73.947 166.811H75.9907L73.1927 221.037Z" fill="#59D6D6"/>
<path opacity="0.5" d="M73.1927 221.037H71.1426L73.947 166.811H75.9907L73.1927 221.037Z" fill="white"/>
<path d="M103.654 221.037H105.698L102.9 166.811H100.85L103.654 221.037Z" fill="#59D6D6"/>
<path opacity="0.5" d="M103.654 221.037H105.698L102.9 166.811H100.85L103.654 221.037Z" fill="white"/>
<circle cx="143.883" cy="30.8774" r="30.017" fill="white"/>
<circle opacity="0.2" cx="143.883" cy="30.8774" r="30.017" fill="#59D6D6"/>
<circle cx="114.293" cy="62.9602" r="5.0802" transform="rotate(-45 114.293 62.9602)" fill="white"/>
<circle opacity="0.2" cx="114.293" cy="62.9602" r="5.0802" transform="rotate(-45 114.293 62.9602)" fill="#59D6D6"/>
<circle cx="135.645" cy="51.4938" r="8.03935" transform="rotate(-76.72 135.645 51.4938)" fill="white"/>
<circle opacity="0.2" cx="135.645" cy="51.4938" r="8.03935" transform="rotate(-76.72 135.645 51.4938)" fill="#59D6D6"/>
<path d="M170.142 59.347C169.79 61.0455 170.881 62.7081 172.58 63.0598C174.279 63.4114 175.941 62.3189 176.291 60.62C176.642 58.9211 175.548 57.2598 173.849 56.9101C172.154 56.5647 170.498 57.6535 170.142 59.347H170.142Z" fill="white"/>
<path opacity="0.2" d="M170.142 59.347C169.79 61.0455 170.881 62.7081 172.58 63.0598C174.279 63.4114 175.941 62.3189 176.291 60.62C176.642 58.9211 175.548 57.2598 173.849 56.9101C172.154 56.5647 170.498 57.6535 170.142 59.347H170.142Z" fill="#59D6D6"/>
<path d="M160.865 51.3594C160.3 54.1109 162.072 56.7997 164.823 57.3655C167.574 57.9312 170.264 56.1596 170.83 53.4083C171.396 50.657 169.625 47.9675 166.873 47.401C164.121 46.8341 161.43 48.6067 160.865 51.3594H160.865Z" fill="white"/>
<path opacity="0.2" d="M160.865 51.3594C160.3 54.1109 162.072 56.7997 164.823 57.3655C167.574 57.9312 170.264 56.1596 170.83 53.4083C171.396 50.657 169.625 47.9675 166.873 47.401C164.121 46.8341 161.43 48.6067 160.865 51.3594H160.865Z" fill="#59D6D6"/>
<path d="M126.94 36.9117C125.294 35.2663 124.115 33.2126 123.523 30.9612L124.168 30.8C124.722 32.9373 125.835 34.8887 127.392 36.454L126.94 36.9117Z" fill="#59D6D6"/>
<path d="M123.749 27.641H123.105C123.094 24.1644 124.475 20.8282 126.94 18.3767L127.398 18.828C125.054 21.1606 123.74 24.334 123.749 27.641Z" fill="#59D6D6"/>
<path d="M159.227 19.9757C154.99 15.7389 148.121 15.7389 143.883 19.9757C139.647 15.738 132.777 15.738 128.539 19.9753C124.302 24.2125 124.302 31.0825 128.539 35.3198L143.883 50.6696L159.227 35.3194C161.263 33.2855 162.407 30.5255 162.407 27.6475C162.407 24.7695 161.263 22.0096 159.227 19.9757H159.227Z" fill="#59D6D6"/>
<path opacity="0.6" d="M65.4447 38.0635C63.909 36.528 61.4194 36.528 59.8837 38.0635C58.3482 36.5277 55.8584 36.5277 54.3227 38.0634C52.787 39.599 52.787 42.0889 54.3227 43.6246L59.8837 49.1877L65.4447 43.6244C66.1826 42.8873 66.5972 41.887 66.5972 40.844C66.5972 39.8009 66.1826 38.8007 65.4446 38.0635H65.4447Z" fill="#59D6D6"/>
<path opacity="0.6" d="M12.4993 117.856C10.9637 116.32 8.47408 116.32 6.93843 117.856C5.40288 116.32 2.91304 116.32 1.37735 117.855C-0.158337 119.391 -0.158337 121.881 1.37735 123.417L6.93843 128.98L12.4993 123.416C13.2373 122.679 13.6519 121.679 13.6519 120.636C13.6519 119.593 13.2373 118.593 12.4993 117.856H12.4993Z" fill="#59D6D6"/>
<path opacity="0.6" d="M256.453 23.3336C256.02 22.9006 255.318 22.9006 254.885 23.3336C254.452 22.9005 253.75 22.9005 253.317 23.3335C252.884 23.7665 252.884 24.4685 253.317 24.9015L254.885 26.4699L256.453 24.9014C256.661 24.6936 256.778 24.4116 256.778 24.1175C256.778 23.8234 256.661 23.5414 256.453 23.3336Z" fill="#59D6D6"/>
<path opacity="0.6" d="M203.506 103.125C203.073 102.692 202.372 102.692 201.939 103.125C201.506 102.692 200.804 102.692 200.371 103.125C199.938 103.558 199.938 104.26 200.371 104.693L201.939 106.262L203.506 104.693C203.714 104.485 203.831 104.203 203.831 103.909C203.831 103.615 203.714 103.333 203.506 103.125Z" fill="#59D6D6"/>
<path opacity="0.6" d="M239.189 183.983C238.553 183.347 237.521 183.347 236.884 183.983C236.248 183.347 235.216 183.347 234.58 183.983C233.943 184.62 233.943 185.652 234.58 186.288L236.884 188.594L239.189 186.288C239.495 185.983 239.667 185.568 239.667 185.136C239.667 184.703 239.495 184.289 239.189 183.983H239.189Z" fill="#59D6D6"/>
</svg>
