<svg width="22" height="15" viewBox="0 0 22 15" fill="none" xmlns="http://www.w3.org/2000/svg">
<path d="M8.74036 9.92836H8.47342V9.01902H8.68071C8.8924 9.01902 8.98138 9.10409 8.98138 9.37836V9.636C8.98187 9.85698 8.89729 9.92836 8.74036 9.92836ZM11.9763 7.81244H11.7524V8.72227H11.9348C12.1083 8.72227 12.2134 8.646 12.2134 8.4084V8.11555C12.2134 7.90631 12.1411 7.81244 11.9763 7.81244ZM8.93542 8.28275V8.11702C8.93542 7.90533 8.86356 7.81244 8.69831 7.81244H8.47391V8.59564H8.65627C8.82933 8.59564 8.93542 8.52036 8.93542 8.28275ZM17.9315 8.40987V8.11702C17.9315 7.90533 17.8601 7.81244 17.6948 7.81244H17.4704V8.72227H17.6528C17.8254 8.72373 17.9315 8.646 17.9315 8.40987ZM15.7251 9.41258H16.1739L15.949 7.91511L15.7251 9.41258ZM22 1.13569V13.484C22 14.1113 21.4916 14.6197 20.8643 14.6197H1.13569C0.508444 14.6197 0 14.1113 0 13.484V1.13569C0 0.508444 0.508444 0 1.13569 0H20.8643C21.4916 0 22 0.508444 22 1.13569ZM17.0045 10.3537H17.47V9.14662H17.6313C17.8425 9.14662 17.9359 9.24782 17.9359 9.52356V9.98947C17.9359 10.231 17.953 10.2769 17.9779 10.3532H18.4526C18.4057 10.2422 18.4018 10.1376 18.4018 9.99387V9.53529C18.4018 9.22582 18.3255 9.00191 18.0913 8.90462C18.2996 8.80831 18.3964 8.60933 18.3964 8.30378V8.07107C18.3964 7.61298 18.1891 7.38858 17.7061 7.38858H17.0036L17.0045 10.3537ZM13.6072 9.64235C13.6072 10.1166 13.8444 10.3864 14.3015 10.3864C14.7586 10.3864 14.9957 10.1146 14.9957 9.64235V9.24733H14.5552V9.6712C14.5552 9.88387 14.4633 9.95916 14.3137 9.95916C14.1665 9.95916 14.0736 9.88289 14.0736 9.6712V8.07156C14.0736 7.85938 14.1665 7.77871 14.3137 7.77871C14.4633 7.77871 14.5552 7.85938 14.5552 8.07155V8.38836H14.9957V8.1004C14.9957 7.62618 14.7586 7.35582 14.3015 7.35582C13.8444 7.35582 13.6072 7.62764 13.6072 8.1004V9.64235ZM9.72791 10.3537H10.9976V9.92982H10.1933V9.06253H10.8328V8.63915H10.1933V7.81342H10.9976V7.39005H9.72791V10.3537ZM3.81871 7.38955H3.17093L2.85316 9.49373L2.50996 7.38955H1.86218V10.3532H2.26844V8.25733L2.61556 10.3532H3.05604L3.37773 8.22702V10.3532H3.81822L3.81871 7.38955ZM5.42813 7.38955H4.158V10.3532H5.42813V9.92933H4.62342V9.06204H5.26289V8.63867H4.62342V7.81342H5.42813V7.38955ZM5.47311 5.81973C5.78698 5.81973 6.0412 5.56551 6.0412 5.25164V2.48404C6.0412 2.17067 5.78698 1.91644 5.47311 1.91644H2.42147C2.1076 1.91644 1.85387 2.17067 1.85387 2.48404V5.25164C1.85387 5.56551 2.10809 5.81973 2.42147 5.81973H5.47311ZM7.66822 7.38955H7.02093L6.70364 9.49373L6.36044 7.38955H5.71316V10.3532H6.11942V8.25733L6.46604 10.3532H6.90653L7.22822 8.22702V10.3532H7.66822V7.38955H7.66822ZM8.008 10.3537H8.74084C9.20627 10.3537 9.44778 10.1083 9.44778 9.65067V9.40915C9.44778 9.09529 9.35049 8.87089 9.10116 8.77458C9.30844 8.6768 9.40133 8.48125 9.40133 8.17764V8.07156C9.40133 7.61395 9.19356 7.38955 8.71102 7.38955H8.008V10.3537ZM11.834 11.6033H8.07302V12.5258H11.834V11.6033H11.834ZM12.2173 9.5216V9.98849C12.2173 10.229 12.2344 10.276 12.2599 10.3512H12.7341C12.6872 10.2412 12.6832 10.1366 12.6832 9.9924V9.53431C12.6832 9.22485 12.6075 9.00093 12.3738 8.90364C12.5811 8.80636 12.6793 8.60836 12.6793 8.3028V8.06911C12.6793 7.612 12.4706 7.3876 11.989 7.3876H11.286V10.3512H11.7519V9.14467H11.9128C12.1244 9.14613 12.2173 9.24733 12.2173 9.5216ZM15.9857 11.6033H12.2242V12.5258H15.9857V11.6033ZM16.3172 10.3537H16.787L16.3128 7.39004H15.6308L15.1565 10.3537H15.5843L15.665 9.81493H16.2365L16.3172 10.3537ZM20.1368 11.6033H16.3763V12.5258H20.1368V11.6033ZM20.1368 8.12191C20.1368 7.6472 19.9095 7.38955 19.4436 7.38955H18.7064V10.3532H19.4436C19.9095 10.3532 20.1368 10.0951 20.1368 9.62084V8.12191ZM19.4353 7.81244H19.1723V9.92835H19.4353C19.5834 9.92835 19.6719 9.85307 19.6719 9.64089V8.1004C19.6719 7.89018 19.5834 7.81244 19.4353 7.81244Z" fill="#A5A5A5"/>
</svg>
